<svg width="16" height="16" viewBox="0 0 16 16" fill="none" xmlns="http://www.w3.org/2000/svg">
<g clip-path="url(#clip0)">
<path d="M16 12.5556H0V2.97559H14.8C15.1183 2.97559 15.4235 3.10201 15.6485 3.32706C15.8736 3.5521 16 3.85733 16 4.17559V12.5756V12.5556ZM10 2.97559C10 2.44515 9.78929 1.93645 9.41421 1.56137C9.03914 1.1863 8.53043 0.975586 8 0.975586H0V2.97559H10Z" fill="#FFC112"/>
<path d="M2 3.8877H14V9.8837H2V3.8877Z" fill="white"/>
<path d="M16 13.8237V6.05566C16 5.79114 15.8952 5.53739 15.7085 5.34997C15.5219 5.16255 15.2685 5.05672 15.004 5.05566H1C0.734784 5.05566 0.48043 5.16102 0.292893 5.34856C0.105357 5.53609 0 5.79045 0 6.05566L0 13.8197C0 14.1464 0.1298 14.4598 0.360844 14.6908C0.591889 14.9219 0.905253 15.0517 1.232 15.0517H14.768C14.9297 15.0527 15.0901 15.0217 15.2398 14.9604C15.3895 14.8991 15.5255 14.8088 15.6401 14.6946C15.7547 14.5804 15.8454 14.4447 15.9072 14.2952C15.969 14.1457 16.0005 13.9854 16 13.8237Z" fill="#FFD741"/>
</g>
<defs>
<clipPath id="clip0">
<rect width="16" height="16" fill="white"/>
</clipPath>
</defs>
</svg>
