<?xml version="1.0" encoding="utf-8"?>
<!-- Generator: Adobe Illustrator 22.0.1, SVG Export Plug-In . SVG Version: 6.00 Build 0)  -->
<svg version="1.1" id="图层_1" xmlns="http://www.w3.org/2000/svg" xmlns:xlink="http://www.w3.org/1999/xlink" x="0px" y="0px"
	 viewBox="0 0 200 200" style="enable-background:new 0 0 200 200;" xml:space="preserve">
<style type="text/css">
	.st0{fill:#FFFFFF;}
</style>
<g>
	<path class="st0" d="M174,73.4c-0.5-7.5-5.6-12.8-12.4-13.5c-8-0.9-18.6-1.4-26.7-1.8c-0.6,0.7-0.4,1.2-1,2.2
		c-5.8,12.4-11.5,24.9-17.3,37.3l19.5,11.5c2.7,1.6,2.7,5.4,0,7l-33.9,20.1c-1.2,0.7-2.5,0.7-3.6,0.3c-5.3,12.1-10.5,24.4-24.8,30.7
		c1.8,0.4,2.6,0.7,3.4,0.8c27.3,0.8,54.6,0.3,81.7-2.3c9.4-0.9,14.3-5.7,15.2-15.1c1-10.1,2.1-20.2,2-30.3
		C176,104.6,175.1,89,174,73.4z"/>
	<path class="st0" d="M86.8,145.8c2.4-11.2-1.9-19.6-10.8-25.9c-11.3-7.9-23.9-11.2-37.6-10c-1.3,0.1-2.5,0.2-4.9,0.4
		c21.5-25,42.1-49.1,63-73.3c-4.4-2-7.3-1.5-9.8,1.4c-4.5,5.1-9.1,10-13.4,15.2c-2,2.4-4.3,3.4-7.4,3.5c-8.9,0.5-17.8,1-26.6,2
		c-7.2,0.8-12.4,6.6-13.1,13.4c-2.8,26.4-3,52.7,0,79c0.8,7.1,5,12.1,12,13.5c9.8,2,19.7,2.3,29.4-0.5
		C77.2,162,84.5,156.4,86.8,145.8z"/>
	<path class="st0" d="M54.7,97.6c20.1,7.5,35,19.1,37,42.1c2.2-4.4,2.1-11.2,0-17.4c-3.5-10.6-9.7-19.4-18.5-26.3
		c-2-1.6-2.3-2.7-0.4-4.4c0.7-0.7,1.3-1.5,1.9-2.3c14.2-16.6,28.5-33.2,42.8-49.8c1.2-1.4,3.5-4.2,3.5-4.2s-4.7-3.4-6.9-3.5
		c-1.6-0.1-3.7,1.5-5,3C92.8,53.2,76.7,71.9,60.5,90.5C58.6,92.8,56.8,95.1,54.7,97.6z"/>
	<path class="st0" d="M83.2,92.3c13.9,5.2,15.8,14.8,16.5,27.6c1.5-3,2.9-15.2,1.5-19.5c-1.2-3.6-2.1-5.9-5.3-9.1
		c-1.4-1.1-1.6-1.9-0.3-3c0.5-0.5,0.9-1,1.4-1.6c9.8-11.5,33.2-37.9,43.1-49.4c0.8-1,2.5-2.8,2.5-2.8s-3.4-2.5-4.9-2.5
		c-1.1-0.1-2.6,1.1-3.4,2c-11.2,12.8-35.9,40.7-47,53.6C85.9,89,84.6,90.6,83.2,92.3z"/>
	<path class="st0" d="M105.7,126.1l18.8-11.2c1.5-0.9,1.5-3,0-3.9l-10.8-6.4c-2.9,6.3-5.8,12.5-8.7,18.8c-0.4,0.9-0.8,1.9-1.3,2.8
		C104.4,126.5,105.1,126.5,105.7,126.1z"/>
</g>
</svg>
