<svg id="图层_1" data-name="图层 1" xmlns="http://www.w3.org/2000/svg" viewBox="0 0 510 108"><defs><style>.cls-1{fill:#00a8e5;}</style></defs><path class="cls-1" d="M135.77,47.72A40.27,40.27,0,0,0,119.93,36.2,40.92,40.92,0,0,0,114,21.43L89.32,49.69s19.7,23.37,0,44.91c0,0,13.66-26-12.08-46.49l30.28-34.58a47.19,47.19,0,0,0-5.78-4.72L67.26,49.42s30.47,17.87,19.43,44.4c0,0,3.94-29.69-34.67-40.46L94.37,4.62a49.53,49.53,0,0,0-8.25-2.94L32.06,64.92S81.7,59.14,83,90.4c0,0,1.31,11.82-12.61,11.82s-37-19.17-43.87-32.31c0,0-3.15-4.46,2.63-10.77C34.19,53.91,65.93,15.61,78.6.3A52.39,52.39,0,0,0,73,0,50.06,50.06,0,0,0,40.62,11.57a42.38,42.38,0,0,0-14.46,23.9A41.15,41.15,0,0,0,9.08,46.91,35.66,35.66,0,0,0,0,70.46,34.62,34.62,0,0,0,3.36,85.34a37.52,37.52,0,0,0,9,11.94A42.81,42.81,0,0,0,41,108h62.13a42.78,42.78,0,0,0,28.71-10.72,37.52,37.52,0,0,0,8.94-11.94,34.63,34.63,0,0,0,3.35-14.88A35.23,35.23,0,0,0,135.77,47.72Z"/><path class="cls-1" d="M174,40.32V32.53a7.27,7.27,0,0,0,3.91-1.28c.62-.52,2-3.07,4-7.65a18.82,18.82,0,0,1,3.25-5.37,6.6,6.6,0,0,1,4.8-1.89h7.3a6.24,6.24,0,0,1,4.8,2q1.48,1.68,4.57,8.76,2,4.57,4.53,5.15c.15,0,.93.11,2.34.26v7.79q-5.37-.32-7.62-1.5A9.11,9.11,0,0,1,202.34,35q-.89-1.5-2.77-5.55a17.49,17.49,0,0,0-2.24-4,2.44,2.44,0,0,0-1.85-.79H192a2.83,2.83,0,0,0-2.47,1.19,61.55,61.55,0,0,0-3.43,6.51c-1.58,3.37-3.17,5.5-4.75,6.38C180.14,39.42,177.7,39.94,174,40.32Zm0,16V48.15h14.38V39.88h8.41v8.27h5.89a10.65,10.65,0,0,1,8.14,3.43,10.18,10.18,0,0,1,2.95,7.13V74.19a10.12,10.12,0,0,1-3.3,7.48,11.08,11.08,0,0,1-8.1,3.21h-8.09V76.75h6.51a4.47,4.47,0,0,0,3.3-1.28A4.59,4.59,0,0,0,205.55,72V60.38a3.93,3.93,0,0,0-1.14-2.82,4.42,4.42,0,0,0-3.26-1.27H191V91.22h-8.27V56.29Zm43.6-31.63V16.52h37.74v8.14H240.57v6.9h5.77c2.84,0,5,.75,6.46,2.25A7.08,7.08,0,0,1,254.91,39V71.6h-8.09V42.12c0-1.61-.92-2.42-2.77-2.42H228.34a2,2,0,0,0-1.67.88,2.51,2.51,0,0,0-.57,1.54V71.6H218V39.53A7.8,7.8,0,0,1,220,33.81a7.51,7.51,0,0,1,5.76-2.25h6.6v-6.9Zm0,66.6v-9q7.31-3.83,10.6-8.09a16.81,16.81,0,0,0,3.35-7.35,42.27,42.27,0,0,0,.57-7.26V45h8.4V60.07a31.87,31.87,0,0,0,1.06,9.15q2.46,8.1,13.68,13.29v9q-12.18-5.53-19-13.68Q230.95,85,217.65,91.26Z"/><path class="cls-1" d="M264.59,25.62V17.48h18.09v8.14Zm0,19.36V36.84h6.29q5.28,0,7,1.19a8.17,8.17,0,0,1,2.51,2.55,10.36,10.36,0,0,1,1,5.11V79.47c0,1.7.19,2.76.58,3.17s1.4.7,2.9.7h4.22V91.4h-6.46c-2.94,0-4.92-.39-5.94-1.15a9.4,9.4,0,0,1-2.69-3,8.67,8.67,0,0,1-.75-4V49q0-2.46-.66-3.21c-.43-.56-1.39-.84-2.85-.84Zm57.86,10.6v4h22.92v8.14H322.45V91.66h-8.14V67.73H292.57V59.59h21.74v-4h-13a9,9,0,0,1-6.69-2.46c-1.52-1.52-2.29-4.62-2.29-9.28V25.62a8.34,8.34,0,0,1,2.38-6.29q2.5-2.41,7.44-2.42h31.71q5.55,0,8,2.47a8,8,0,0,1,2.38,6V44q0,5.9-1.19,7.79-2.32,3.78-8.32,3.78ZM292.62,91.66v-8a3,3,0,0,0,1.71-1.28,35.22,35.22,0,0,0,1.15-5.9l.48-4.88h8.27l-.61,5.28q-1,8.85-4,12A9.59,9.59,0,0,1,292.62,91.66Zm8.05-59.26h13.64V25.18H304.23a4.09,4.09,0,0,0-2.86.75,3.24,3.24,0,0,0-.7,2.29Zm13.64,14.91V40.54H300.67v3.87a3,3,0,0,0,.7,2.29,4.15,4.15,0,0,0,2.64.61Zm8.14-14.91H336V29.58a6.78,6.78,0,0,0-.62-3.52,2.61,2.61,0,0,0-2.33-.88h-10.6Zm0,14.91h10c1.46,0,2.43-.26,2.9-.79A3.66,3.66,0,0,0,336,44V40.54H322.45Zm11.17,24.33h8.14l.62,5.55a40.55,40.55,0,0,0,.92,5.1,2.86,2.86,0,0,0,1.89,1.41v8a9.88,9.88,0,0,1-7.26-3,13.3,13.3,0,0,1-2.9-6.07,48.94,48.94,0,0,1-.88-6Z"/><path class="cls-1" d="M354.43,48.85v-8h81v8h-63.4L365,76.09a9.94,9.94,0,0,0-.35,2.55,3.78,3.78,0,0,0,1.93,3.56,4.58,4.58,0,0,0,2.29.66h50.33a16.87,16.87,0,0,0,4.31-.31,3.48,3.48,0,0,0,2.29-3.61,8.26,8.26,0,0,0-.22-2l-4.44-18.44h8.4l4,17.2a27.45,27.45,0,0,1,.79,6.12q0,4.53-4.31,7.39-3,2-9.15,2H368.46a14.24,14.24,0,0,1-8.4-2.42,9.37,9.37,0,0,1-4.13-8.14,17.83,17.83,0,0,1,.66-4.35l7.08-27.46Zm1.54-24V17h78.14v7.88Z"/></svg>