<?xml version="1.0" standalone="no"?><!DOCTYPE svg PUBLIC "-//W3C//DTD SVG 1.1//EN" "http://www.w3.org/Graphics/SVG/1.1/DTD/svg11.dtd"><svg t="1597480047835" class="icon" viewBox="0 0 1024 1024" version="1.1" xmlns="http://www.w3.org/2000/svg" p-id="8308" xmlns:xlink="http://www.w3.org/1999/xlink" width="200" height="200"><defs><style type="text/css"></style></defs><path d="M828.1 722.4c-17.3-40.9-42-77.5-73.5-109s-68.2-56.2-109.1-73.5c-10.2-4.3-20.6-8.1-31-11.4 54.5-34.7 90.8-95.7 90.8-164.9 0-107.7-87.6-195.4-195.4-195.4-107.7 0-195.4 87.6-195.4 195.4 0 69.9 36.9 131.3 92.2 165.8-9.6 3.1-19 6.6-28.3 10.5-40.9 17.3-77.5 42-109 73.5s-56.2 68.2-73.5 109c-17.9 42.3-27 87.2-27 133.6h46c0-163.8 133.3-297.1 297.1-297.1S809.1 692.2 809.1 856h46c0-46.4-9.1-91.3-27-133.6zM360.6 363.5c0-82.4 67-149.4 149.4-149.4s149.4 67 149.4 149.4-67 149.4-149.4 149.4c-82.4-0.1-149.4-67.1-149.4-149.4z" p-id="8309"></path></svg>