<?xml version="1.0" standalone="no"?><!DOCTYPE svg PUBLIC "-//W3C//DTD SVG 1.1//EN" "http://www.w3.org/Graphics/SVG/1.1/DTD/svg11.dtd"><svg t="1587520948295" class="icon" viewBox="0 0 1024 1024" version="1.1" xmlns="http://www.w3.org/2000/svg" p-id="7200" xmlns:xlink="http://www.w3.org/1999/xlink" width="200" height="200"><defs><style type="text/css"></style></defs><path d="M748.307692 78.769231H275.692308a39.384615 39.384615 0 0 0-39.384616 39.384615v827.076923a39.384615 39.384615 0 0 0 39.384616 39.384616h472.615384a39.384615 39.384615 0 0 0 39.384616-39.384616V118.153846a39.384615 39.384615 0 0 0-39.384616-39.384615z m-196.923077 867.091692h-78.76923v-40.605538h78.76923v40.605538z m197.080616-159.035077a39.384615 39.384615 0 0 1-39.384616 39.384616H314.88a39.384615 39.384615 0 0 1-39.384615-39.384616V182.193231a39.384615 39.384615 0 0 1 39.384615-39.384616h394.24a39.384615 39.384615 0 0 1 39.384615 39.384616v604.632615z" p-id="7201"></path></svg>