<svg t="1587521463658" class="icon" viewBox="0 0 1024 1024" version="1.1" xmlns="http://www.w3.org/2000/svg" p-id="16149" width="200" height="200"><path d="M245.75 479.963l101.679-73.75 101.714 73.75-38.82-119.39L512 286.748H386.25l-38.821-119.393-38.821 119.393h-125.75l101.713 73.823z" p-id="16150"></path><path d="M658.286 347.429c0-171.68-139.178-310.858-310.857-310.858C175.715 36.571 36.57 175.75 36.57 347.43c0 94.928 42.643 179.785 109.715 236.785V987.43l201.143-109.715L548.57 987.43V584.214c67.072-57 109.715-141.857 109.715-236.785z m-548.572 0c0-131.072 106.643-237.715 237.715-237.715S585.143 216.357 585.143 347.43 478.5 585.143 347.429 585.143 109.714 478.5 109.714 347.429zM475.43 864.214L382.464 813.5l-35.035-19.106-35.036 19.106-92.964 50.714V630.5c39.07 17.678 82.322 27.785 128 27.785s88.928-10.107 128-27.785v233.713zM731.429 256H1024v73.143H731.429V256z m0 219.429H1024v73.142H731.429V475.43zM621.714 694.857H1024V768H621.714v-73.143z" p-id="16151"></path></svg>
