<?xml version="1.0" standalone="no"?><!DOCTYPE svg PUBLIC "-//W3C//DTD SVG 1.1//EN" "http://www.w3.org/Graphics/SVG/1.1/DTD/svg11.dtd"><svg t="1592633853042" class="icon" viewBox="0 0 1024 1024" version="1.1" xmlns="http://www.w3.org/2000/svg" p-id="10242" xmlns:xlink="http://www.w3.org/1999/xlink" width="200" height="200"><defs><style type="text/css"></style></defs><path d="M716.8 584.448a4.4544 4.4544 0 0 1-0.3072 0.512c-52.224-23.9104-113.3568-36.864-180.992-36.864-204.9024 0-344.32 118.528-368.4864 302.4896a45.9776 45.9776 0 0 0 45.6192 51.9168l170.3424-0.1536a39.5776 39.5776 0 1 1 1.024 78.848v0.1024H207.9744a144.3328 144.3328 0 0 1-86.1696-29.8496c-27.4432-21.7088-36.4544-52.5312-36.4544-67.328 0-195.84 116.736-359.936 330.7008-403.456a234.6496 234.6496 0 1 1 234.5472 0 466.944 466.944 0 0 1 102.8096 33.2288l-0.1024 0.256A39.5776 39.5776 0 0 1 716.8 584.448z m194.7136 225.024c8.448 128.9216-36.3008 162.2016-57.1904 170.6496a16.5888 16.5888 0 0 1-16.7424-2.56 190.2592 190.2592 0 0 0-1.6896-1.3824c-39.5776-31.5904-70.5536-39.0656-115.3536-51.712-30.208-8.5504-70.656-13.1584-96.3584-15.4112a27.3408 27.3408 0 0 1-24.9344-27.2384V801.792c0-13.1072 9.9328-24.064 22.9888-25.2416 125.3888-11.7248 193.7408-67.7888 216.0128-89.6a23.0912 23.0912 0 0 0 1.3312-1.9456 16.7936 16.7936 0 0 1 16.384-7.2192c16.2304 2.3552 48.2816 21.2992 55.552 131.584z m-354.816-29.0816c13.0048 0 23.6032 10.5984 23.6032 23.6544v78.592a23.6032 23.6032 0 1 1-47.2576 0v-78.592c0-13.056 10.5984-23.6544 23.6544-23.6544z m-23.3472-346.624a156.4672 156.4672 0 1 0 0-312.832 156.4672 156.4672 0 0 0 0 312.832z" p-id="10243"></path></svg>