<svg width="18" height="18" viewBox="0 0 18 18"  xmlns="http://www.w3.org/2000/svg">
<path d="M6.015 9.12555C7.87266 9.12555 9.38406 7.61758 9.38406 5.76414V1.62695H6.015C4.16156 1.62695 2.65391 3.13852 2.65391 4.99633V5.76414C2.65391 7.61773 4.16156 9.12555 6.015 9.12555ZM3.81844 4.99633C3.81844 3.7807 4.80375 2.79164 6.015 2.79164H8.21953V5.76414C8.21953 6.97539 7.23047 7.96086 6.015 7.96086C4.80375 7.96086 3.81844 6.97539 3.81844 5.76414V4.99633V4.99633ZM14.9313 11.4226H11.0492C10.9589 11.4226 10.8692 11.4287 10.7811 11.4405C10.4797 10.7215 9.76875 10.2149 8.94141 10.2149H3.07922C1.98016 10.2149 1.08594 11.1093 1.08594 12.2085V16.6785H9.63594V16.6788H16.9227V13.4177C16.9227 12.3176 16.0295 11.4226 14.9313 11.4226ZM2.25047 12.2085C2.25047 11.7515 2.62234 11.3796 3.07922 11.3796H8.94141C9.39859 11.3796 9.77047 11.7515 9.77047 12.2085V15.514H2.25047V12.2085V12.2085ZM15.758 15.5143H10.935V12.5948C10.972 12.5899 11.01 12.5873 11.0491 12.5873H14.9311C15.3872 12.5873 15.758 12.9599 15.758 13.4179V15.5143V15.5143Z" fill="#15213E"/>
<path d="M12.9933 10.8482C14.5006 10.8482 15.7266 9.62457 15.7266 8.12051V4.79395H12.9933C11.4894 4.79395 10.2656 6.02035 10.2656 7.5277V8.12035C10.2656 9.62457 11.4894 10.8482 12.9933 10.8482ZM11.4303 7.5277C11.4303 6.66254 12.1317 5.95863 12.9934 5.95863H14.5622V8.12051C14.5622 8.98238 13.8586 9.68363 12.9934 9.68363C12.1317 9.68363 11.4303 8.98254 11.4303 8.12051V7.5277Z" fill="#15213E"/>
</svg>
