<?xml version="1.0" standalone="no"?><!DOCTYPE svg PUBLIC "-//W3C//DTD SVG 1.1//EN" "http://www.w3.org/Graphics/SVG/1.1/DTD/svg11.dtd"><svg t="1648367866638" class="icon" viewBox="0 0 1066 1024" version="1.1" xmlns="http://www.w3.org/2000/svg" p-id="1581" xmlns:xlink="http://www.w3.org/1999/xlink" width="208.203125" height="200"><defs><style type="text/css"></style></defs><path d="M267.971323 1023.938914a104.02484 104.02484 0 0 1-102.30493-120.986701l39.024141-234.026235a15.004723 15.004723 0 0 0-4.270119-12.988278L31.335571 489.877523a103.787611 103.787611 0 0 1 57.409375-176.61686l234.619308-35.228481a14.886109 14.886109 0 0 0 11.090447-8.06578L440.436679 57.765219a103.728303 103.728303 0 0 1 185.690862 0l105.981977 212.26049a14.708187 14.708187 0 0 0 11.031141 8.006473l234.619307 35.228481a103.787611 103.787611 0 0 1 57.409376 176.61686l-169.084845 166.41602a14.64888 14.64888 0 0 0-4.270119 12.928971l39.024142 234.026235a103.787611 103.787611 0 0 1-150.225153 109.184567l-210.540582-109.421796a14.589573 14.589573 0 0 0-13.640658 0l-210.540581 109.421796a103.846918 103.846918 0 0 1-47.920223 11.505598z m265.281133-211.845341a104.084147 104.084147 0 0 1 47.860916 11.861442l210.481274 109.421795a14.826802 14.826802 0 0 0 21.469209-15.597795l-38.964835-234.026236a103.906225 103.906225 0 0 1 29.653603-91.036561l169.084845-166.060177a14.886109 14.886109 0 0 0-8.184395-25.26487l-234.619307-35.22848a103.728303 103.728303 0 0 1-77.455211-56.223232l-106.041285-212.91287c-7.116865-14.293037-19.393456-14.293037-26.510321 0L413.985665 309.28708a103.787611 103.787611 0 0 1-77.455211 56.223231l-234.560001 35.228481a14.886109 14.886109 0 0 0-8.243701 25.26487l169.144152 166.060177a104.084147 104.084147 0 0 1 29.653603 90.977254l-39.024142 234.085542a14.826802 14.826802 0 0 0 21.409901 15.597796l210.540582-109.421796a104.084147 104.084147 0 0 1 47.801608-11.209062z" p-id="1582"></path></svg>