<svg t="1587522821824" class="icon" viewBox="0 0 1024 1024" version="1.1" xmlns="http://www.w3.org/2000/svg" p-id="30668" width="200" height="200"><path d="M256.777652 562.255508l102.227345 0L359.004997 204.456734 256.777652 204.456734 256.777652 562.255508zM461.235408 562.255508l102.228367 0L563.463776 357.796729 461.235408 357.796729 461.235408 562.255508zM921.261527 0 103.435612 0C46.979752 0 1.206223 45.77353 1.206223 102.229389L1.206223 664.482853c0 56.45586 45.77353 102.228367 102.229389 102.228367l357.799796 0 0 153.34204L256.777652 920.05326c-56.456882 0-102.228367 45.774552-102.228367 102.229389 0 0.392537 0.010222 0.778941 0.013289 1.169434l715.58937 0c0-0.389471-0.002044-0.778941-0.002044-1.169434 0-56.454838-45.77353-102.229389-102.228367-102.229389L563.463776 920.05326 563.463776 766.71122l357.797752 0c56.454838 0 102.229389-45.772507 102.229389-102.228367L1023.490917 102.229389C1023.489894 45.77353 977.715343 0 921.261527 0zM921.261527 562.255508c0 56.454838-45.769441 102.228367-102.224278 102.228367L205.663979 664.483875c-56.456882 0-102.227345-45.77353-102.227345-102.228367L103.436634 204.456734c0-56.456882 45.772507-102.227345 102.227345-102.227345l613.37327 0c56.454838 0 102.224278 45.772507 102.224278 102.227345L921.261527 562.255508zM665.692143 562.255508 767.919488 562.255508 767.919488 460.027141 665.692143 460.027141 665.692143 562.255508z" p-id="30669"></path></svg>
