<?xml version="1.0" standalone="no"?><!DOCTYPE svg PUBLIC "-//W3C//DTD SVG 1.1//EN" "http://www.w3.org/Graphics/SVG/1.1/DTD/svg11.dtd"><svg t="1592634388369" class="icon" viewBox="0 0 1024 1024" version="1.1" xmlns="http://www.w3.org/2000/svg" p-id="11842" xmlns:xlink="http://www.w3.org/1999/xlink" width="200" height="200"><defs><style type="text/css"></style></defs><path d="M1030.45970148 606.26540064v282.79620058a47.13269964 47.13269964 0 0 1-47.13270101 47.13269961H40.67299953a47.13269964 47.13269964 0 0 1-47.13270101-47.13269961v-282.79620058a94.26540064 94.26540064 0 1 0 0-188.53080128V134.93839878a47.13269964 47.13269964 0 0 1 47.13270101-47.13269961h942.65400094a47.13269964 47.13269964 0 0 1 47.13270101 47.13269961v282.79620058a94.26540064 94.26540064 0 1 0 0 188.53080128z m-94.26540065 47.13269965c-42.60796043-23.56635051-94.26540064-59.24580401-94.26540063-141.39810029s51.65743885-117.83174977 94.26540063-141.39810029V182.0710998H87.80569917v188.53079991c47.13269964 23.56635051 94.26540064 64.28900338 94.26540063 141.39810029s-47.13269964 117.83174977-94.26540063 141.39810029v188.53079991h848.38860166v-188.53079991z m-612.72510074-329.9289002h94.26539927v377.06159982h-94.26539927v-377.06159982z" p-id="11843"></path></svg>
