<svg width="18" height="18" viewBox="0 0 18 18"  xmlns="http://www.w3.org/2000/svg">
<path d="M15.4864 1.45881C14.9786 1.37135 14.4645 1.32633 13.9493 1.32422C12.1915 1.32278 10.4703 1.82684 8.99096 2.77631C7.50781 1.8393 5.78692 1.34762 4.03262 1.35964C3.51742 1.36175 3.00328 1.40677 2.49554 1.49422C2.32923 1.52289 2.17862 1.61001 2.07083 1.73987C1.96305 1.86973 1.90517 2.03381 1.90762 2.20256V10.7026C1.90611 10.8066 1.92755 10.9098 1.97042 11.0046C2.01329 11.0995 2.07654 11.1837 2.15566 11.2513C2.23479 11.319 2.32785 11.3683 2.42822 11.3959C2.52859 11.4235 2.6338 11.4286 2.73637 11.4109C3.75143 11.2351 4.79139 11.2643 5.79501 11.4967C6.79862 11.729 7.74558 12.1598 8.58012 12.7638L8.66512 12.8134H8.74304C8.8216 12.8461 8.90586 12.863 8.99096 12.863C9.07606 12.863 9.16032 12.8461 9.23888 12.8134H9.31679L9.40179 12.7638C10.2305 12.1463 11.1748 11.7015 12.1786 11.4558C13.1824 11.21 14.2253 11.1682 15.2455 11.333C15.3481 11.3507 15.4533 11.3456 15.5537 11.318C15.6541 11.2904 15.7471 11.241 15.8263 11.1734C15.9054 11.1058 15.9686 11.0216 16.0115 10.9267C16.0544 10.8319 16.0758 10.7287 16.0743 10.6246V2.12464C16.0669 1.96325 16.0046 1.80923 15.8977 1.68812C15.7907 1.56701 15.6456 1.4861 15.4864 1.45881V1.45881ZM8.28262 10.8726C6.97213 10.1831 5.51341 9.82331 4.03262 9.82422H3.32429V2.74089C3.56017 2.72672 3.79675 2.72672 4.03262 2.74089C5.54377 2.73922 7.02194 3.18267 8.28262 4.01589V10.8726ZM14.6576 9.85256H13.9493C12.4685 9.85164 11.0098 10.2115 9.69929 10.9009V4.01589C10.96 3.18267 12.4381 2.73922 13.9493 2.74089C14.1852 2.72672 14.4217 2.72672 14.6576 2.74089V9.85256V9.85256ZM15.4864 12.7921C14.9786 12.7047 14.4645 12.6597 13.9493 12.6576C12.1915 12.6561 10.4703 13.1602 8.99096 14.1096C7.51161 13.1602 5.79045 12.6561 4.03262 12.6576C3.51742 12.6597 3.00328 12.7047 2.49554 12.7921C2.40342 12.8069 2.31512 12.8398 2.23569 12.8887C2.15627 12.9377 2.08728 13.0019 2.03268 13.0775C1.97807 13.1532 1.93892 13.2389 1.91746 13.3297C1.896 13.4205 1.89266 13.5146 1.90762 13.6067C1.94362 13.7907 2.05106 13.9528 2.20639 14.0577C2.36173 14.1626 2.55231 14.2017 2.73637 14.1663C3.75143 13.9906 4.79139 14.0197 5.79501 14.2521C6.79862 14.4844 7.74558 14.9153 8.58012 15.5192C8.70009 15.6046 8.84369 15.6505 8.99096 15.6505C9.13822 15.6505 9.28183 15.6046 9.40179 15.5192C10.2363 14.9153 11.1833 14.4844 12.1869 14.2521C13.1905 14.0197 14.2305 13.9906 15.2455 14.1663C15.4296 14.2017 15.6202 14.1626 15.7755 14.0577C15.9309 13.9528 16.0383 13.7907 16.0743 13.6067C16.0894 13.5146 16.0862 13.4204 16.0649 13.3295C16.0435 13.2386 16.0044 13.1529 15.9497 13.0772C15.8951 13.0015 15.826 12.9373 15.7465 12.8884C15.667 12.8395 15.5786 12.8068 15.4864 12.7921Z" fill="#15213E"/>
</svg>
