<svg width="18" height="18" viewBox="0 0 18 18"  xmlns="http://www.w3.org/2000/svg">
<path d="M11.7532 5.625C11.7532 5.54766 11.69 5.48438 11.6126 5.48438H10.6546C10.6019 5.48438 10.5527 5.51426 10.5298 5.56172L9.04095 8.52891H8.98294L7.49407 5.56172C7.46946 5.51426 7.422 5.48438 7.36927 5.48438H6.39017C6.36731 5.48438 6.34446 5.48965 6.32337 5.50195C6.25481 5.53887 6.23021 5.625 6.26712 5.6918L8.09349 9.05977H7.09153C7.01419 9.05977 6.95091 9.12305 6.95091 9.20039V9.67676C6.95091 9.7541 7.01419 9.81738 7.09153 9.81738H8.42747V10.5029H7.09153C7.01419 10.5029 6.95091 10.5662 6.95091 10.6436V11.1199C6.95091 11.1973 7.01419 11.2605 7.09153 11.2605H8.42747V12.375C8.42747 12.4523 8.49075 12.5156 8.56809 12.5156H9.44524C9.52259 12.5156 9.58587 12.4523 9.58587 12.375V11.2588H10.9271C11.0044 11.2588 11.0677 11.1955 11.0677 11.1182V10.6418C11.0677 10.5645 11.0044 10.5012 10.9271 10.5012H9.58587V9.81563H10.9271C11.0044 9.81563 11.0677 9.75234 11.0677 9.675V9.19863C11.0677 9.12129 11.0044 9.05801 10.9271 9.05801H9.91458L11.7374 5.69004C11.7462 5.6707 11.7532 5.64785 11.7532 5.625V5.625Z" fill="#15213E"/>
<path d="M2.77562 8.86289C2.7932 8.07012 2.95668 7.30371 3.26254 6.57949C3.57543 5.83945 4.02367 5.17324 4.59496 4.60195C5.16625 4.03066 5.8307 3.58066 6.57074 3.26777C7.33715 2.94434 8.15101 2.7791 8.98949 2.7791C9.82972 2.7791 10.6436 2.94258 11.4082 3.26777C12.1483 3.58066 12.8127 4.03066 13.384 4.60195C13.5598 4.77773 13.7233 4.9623 13.8744 5.15391L12.9955 5.84121C12.9024 5.91328 12.934 6.06094 13.0483 6.08906L15.8045 6.7623C15.8924 6.7834 15.9786 6.7166 15.9786 6.62695L15.9926 3.78809C15.9926 3.67031 15.8573 3.60352 15.7659 3.67734L14.9256 4.33477C13.5475 2.57168 11.4012 1.44141 8.99125 1.44141C4.86918 1.44141 1.51703 4.74785 1.44144 8.85586C1.43968 8.93496 1.50297 9 1.58207 9H2.63675C2.71234 9 2.77386 8.93848 2.77562 8.86289ZM16.418 9H15.3633C15.2877 9 15.2244 9.06152 15.2227 9.13711C15.2051 9.92988 15.0416 10.6963 14.7358 11.4205C14.4229 12.1605 13.9746 12.8268 13.4034 13.398C12.8321 13.9693 12.1676 14.4193 11.4276 14.7322C10.6612 15.0557 9.8473 15.2209 9.00883 15.2209C8.17035 15.2209 7.35472 15.0574 6.59007 14.7322C5.85004 14.4193 5.18558 13.9693 4.61429 13.398C4.43851 13.2223 4.27504 13.0377 4.12386 12.8461L5.00101 12.1588C5.09418 12.0867 5.06254 11.9391 4.94828 11.9109L2.19203 11.2377C2.10414 11.2166 2.018 11.2834 2.018 11.373L2.00394 14.2154C2.00394 14.3332 2.13929 14.4 2.2307 14.3262L3.07093 13.6687C4.45257 15.4283 6.59886 16.5586 9.00883 16.5586C13.1309 16.5586 16.483 13.2521 16.5586 9.14414C16.5604 9.06504 16.4971 9 16.418 9Z" fill="#15213E"/>
</svg>
