<svg width="18" height="18" viewBox="0 0 18 18"  xmlns="http://www.w3.org/2000/svg">
<path d="M9.0077 15.3875C8.47556 15.3875 7.97556 15.1804 7.60056 14.8054L1.63984 8.84288C0.864844 8.06788 0.864844 6.80538 1.63984 6.02859L4.61484 3.05359C4.7452 2.92324 4.9202 2.85181 5.10413 2.85181H12.9148C13.0988 2.85181 13.2738 2.92502 13.4041 3.05359L16.3791 6.02859C17.1541 6.80359 17.1541 8.06609 16.3791 8.84288L10.4148 14.8054C10.0398 15.1804 9.53984 15.3875 9.0077 15.3875ZM5.38984 4.23574L2.61663 7.00716C2.38092 7.24466 2.38092 7.62859 2.61663 7.86609L8.57734 13.8268C8.80592 14.0554 9.2077 14.0554 9.43449 13.8268L15.397 7.86609C15.6345 7.62859 15.6345 7.24466 15.397 7.00716L12.6256 4.23574H5.38984ZM15.8863 8.35538H15.8898H15.8863Z" fill="#333333"/>
<path d="M8.93537 12.5607C8.74429 12.5607 8.56215 12.4822 8.43179 12.3429L5.16394 8.86432C4.90322 8.58575 4.91572 8.14825 5.19429 7.88753C5.47286 7.62682 5.91036 7.63932 6.17108 7.91789L8.93358 10.8607L11.6961 7.91789C11.9568 7.63932 12.3943 7.62503 12.6729 7.88753C12.9514 8.14825 12.9657 8.58575 12.7032 8.86432L9.43894 12.3429C9.30858 12.4822 9.12644 12.5607 8.93537 12.5607Z" fill="#333333"/>
</svg>
