<svg width="18" height="18" viewBox="0 0 18 18"  xmlns="http://www.w3.org/2000/svg">
<rect x="1.6" y="1.6" width="14.8" height="12.8" rx="1.4" stroke="#15213E" stroke-width="1.2"/>
<path fill-rule="evenodd" clip-rule="evenodd" d="M5.34385 5.4955L5.34609 5.53421V9.45524C5.34609 9.73999 5.10542 9.99872 4.87612 9.99872C4.64672 9.99872 4.41389 9.79306 4.41389 9.51557V6.00197C4.34384 5.99533 4.27574 5.97517 4.21337 5.94261L4.17555 5.91703C4.07087 5.8314 4.00676 5.69362 4.00049 5.54511V5.49513C3.99425 5.34512 4.04745 5.20073 4.14239 5.10293L4.17555 5.07171C4.26236 5.00699 4.46109 5.00109 4.56392 5.00323H4.82676C5.0845 4.97045 5.31604 5.19082 5.34385 5.4955ZM8.59184 5.23642L8.53121 5.19707C8.11094 4.93458 7.57784 4.93458 7.15751 5.19707L7.09718 5.23605L7.03005 5.28924C6.87397 5.42038 6.74437 5.58012 6.64821 5.75987L6.60753 5.83979L6.55906 5.94761C6.48115 6.13064 6.42162 6.32096 6.38134 6.51577L6.35943 6.63386L6.33226 6.81072C6.30007 7.04662 6.28442 7.28534 6.28442 7.5244L6.28631 7.67443C6.29188 7.87432 6.31003 8.07366 6.34067 8.27128L6.36635 8.4188L6.39127 8.53438C6.43691 8.72516 6.50186 8.91079 6.58511 9.08841L6.63698 9.19275L6.67855 9.26939C6.7771 9.44218 6.90652 9.59542 7.06038 9.7215L7.12661 9.77245L7.19223 9.81616C7.36698 9.92563 7.56688 9.98849 7.77283 9.99873L7.84934 9.99961L7.92623 9.99873C8.13322 9.98855 8.33389 9.92407 8.50807 9.81179L8.5737 9.76719L8.63993 9.71523C8.79371 9.58747 8.92308 9.4329 9.02178 9.25902L9.06335 9.18185L9.11468 9.07592C9.19719 8.89566 9.26094 8.7074 9.30493 8.5141L9.32934 8.39654L9.35427 8.24973C9.38439 8.05312 9.40216 7.85483 9.40749 7.656L9.40936 7.50598L9.40496 7.3279C9.39773 7.15006 9.38217 6.9726 9.35713 6.79666L9.32932 6.62133L9.30777 6.50323C9.26847 6.30905 9.20909 6.11949 9.13059 5.93759L9.08125 5.83041L9.0403 5.75236C8.94023 5.5723 8.81088 5.41487 8.65845 5.28862L8.59184 5.23642ZM12.6554 5.23642L12.5948 5.19707C12.174 4.9344 11.6408 4.93467 11.2202 5.19734L11.1599 5.23666L11.093 5.28986C10.9374 5.42156 10.8078 5.58113 10.7108 5.76039L10.6702 5.84016L10.6215 5.94798C10.544 6.12945 10.4846 6.32006 10.4439 6.51604L10.4218 6.63412L10.3949 6.81106C10.3624 7.04689 10.3467 7.28571 10.3467 7.52476L10.3486 7.6747C10.3543 7.87461 10.3726 8.07395 10.4033 8.27155L10.4284 8.41907L10.4533 8.53468C10.4983 8.72527 10.5625 8.9108 10.6449 9.08843L10.6961 9.19314L10.7377 9.26965C10.8364 9.44245 10.966 9.59572 11.1199 9.72185L11.1861 9.77282L11.2518 9.81653C11.4266 9.92596 11.6266 9.98879 11.8326 9.99901L11.9092 10L11.986 9.99875C12.1933 9.98865 12.3942 9.92417 12.5686 9.8118L12.6342 9.76721L12.7001 9.71525C12.854 9.58747 12.9834 9.43291 13.0823 9.25904L13.1239 9.18187L13.1751 9.07594C13.2578 8.89571 13.3216 8.70744 13.3657 8.51412L13.3901 8.39655L13.415 8.24975C13.4457 8.05318 13.4639 7.85488 13.4697 7.65602L13.4716 7.506L13.4663 7.32792C13.4583 7.1501 13.4413 6.97279 13.4154 6.79668L13.3866 6.62135L13.366 6.50351C13.3278 6.3096 13.2699 6.1201 13.1932 5.93795L13.1451 5.83041L13.1038 5.75236C13.006 5.5758 12.8766 5.41871 12.722 5.28889L12.6554 5.23642ZM11.8808 5.88412H11.9174C11.9901 5.88016 12.0617 5.90282 12.1189 5.94786L12.148 5.9729L12.1911 6.01975C12.2476 6.08694 12.2945 6.16162 12.3305 6.24165L12.3567 6.30413L12.3943 6.40883C12.4296 6.51549 12.4575 6.62449 12.4777 6.73504L12.4955 6.84689L12.5151 7.00255C12.5266 7.10693 12.5343 7.21169 12.5383 7.31663L12.5414 7.47406L12.5379 7.63094C12.5339 7.73502 12.5261 7.83909 12.5151 7.94279L12.4955 8.0978L12.4792 8.20313C12.4603 8.30685 12.4337 8.40901 12.3995 8.50872L12.363 8.60616L12.3373 8.66561C12.3007 8.74338 12.2549 8.81368 12.2008 8.87491L12.159 8.91934L12.1283 8.94429C12.0652 8.99024 11.9918 9.01276 11.9174 9.00775V9.00024H11.8714C11.8111 8.99588 11.7521 8.97459 11.6996 8.93839L11.6677 8.91335L11.6261 8.8715C11.5724 8.81278 11.5268 8.74463 11.4905 8.66964L11.4652 8.61213L11.4296 8.51585C11.3962 8.41904 11.3703 8.31874 11.3515 8.21592L11.3358 8.11275L11.3158 7.95557C11.3049 7.85027 11.2974 7.74468 11.294 7.63908L11.2915 7.4797L11.2946 7.31912C11.2986 7.21199 11.3062 7.10503 11.3174 6.99843L11.3374 6.83938L11.3546 6.72879C11.3739 6.61991 11.4011 6.51256 11.4359 6.40759L11.4733 6.3044L11.4993 6.24193C11.5355 6.16236 11.5825 6.08814 11.639 6.02136L11.6817 5.9744L11.7177 5.94472C11.7671 5.90914 11.823 5.88822 11.8808 5.88412ZM7.81134 5.88416H7.84793C7.92062 5.8802 7.99225 5.90286 8.04944 5.9479L8.07848 5.97294L8.12167 6.01979C8.17813 6.08698 8.22503 6.16165 8.26103 6.24169L8.28722 6.30417L8.32477 6.40887C8.36015 6.51553 8.38801 6.62453 8.40817 6.73508L8.42598 6.84693L8.44566 7.00259C8.45709 7.10697 8.46481 7.21173 8.46881 7.31667L8.47195 7.4741L8.46845 7.63098C8.46442 7.73506 8.45667 7.83913 8.44566 7.94283L8.42598 8.09784L8.40971 8.20317C8.39087 8.30689 8.36423 8.40905 8.33003 8.50876L8.29348 8.6062L8.26783 8.66565C8.23126 8.74342 8.18541 8.81372 8.1313 8.87495L8.08948 8.91938L8.05879 8.94433C7.99567 8.99028 7.92228 9.0128 7.84789 9.00779V9.00028H7.80194C7.74159 8.99592 7.6826 8.97463 7.63011 8.93843L7.59821 8.91339L7.55662 8.87154C7.50291 8.81282 7.45732 8.74467 7.42103 8.66968L7.39573 8.61217L7.36013 8.51589C7.32671 8.41908 7.30077 8.31878 7.28199 8.21596L7.26635 8.11279L7.24632 7.95561C7.23542 7.8503 7.22791 7.74472 7.22452 7.63912L7.22201 7.47974L7.22514 7.31916C7.22909 7.21203 7.2367 7.10507 7.24793 6.99846L7.26796 6.83942L7.28512 6.72883C7.30444 6.61995 7.3316 6.5126 7.3664 6.40763L7.40386 6.30444L7.42977 6.24197C7.46604 6.1624 7.51306 6.08818 7.56952 6.0214L7.61227 5.97444L7.64819 5.94476C7.69764 5.90918 7.75352 5.88826 7.81134 5.88416Z" fill="#15213E"/>
<path d="M4 16.5H14" stroke="#15213E" stroke-width="1.2" stroke-linecap="round"/>
<path d="M7 12H11" stroke="#15213E" stroke-width="1.2" stroke-linecap="round"/>
</svg>
