<?xml version="1.0" standalone="no"?><!DOCTYPE svg PUBLIC "-//W3C//DTD SVG 1.1//EN" "http://www.w3.org/Graphics/SVG/1.1/DTD/svg11.dtd"><svg t="1589447484745" class="icon" viewBox="0 0 1024 1024" version="1.1" xmlns="http://www.w3.org/2000/svg" p-id="3813" xmlns:xlink="http://www.w3.org/1999/xlink" width="200" height="200"><defs><style type="text/css"></style></defs><path d="M512.18963 128c51.863704 0 102.115556 10.145185 149.428148 30.151111 45.700741 19.342222 86.755556 47.028148 122.026666 82.299259s62.957037 76.325926 82.29926 122.026667c20.005926 47.312593 30.151111 97.564444 30.151111 149.428148s-10.145185 102.115556-30.151111 149.428148c-19.342222 45.700741-47.028148 86.755556-82.29926 122.026667S707.318519 846.317037 661.617778 865.659259c-47.217778 20.195556-97.564444 30.340741-149.428148 30.340741-51.863704 0-102.115556-10.145185-149.428149-30.151111-45.700741-19.342222-86.755556-47.028148-122.026666-82.299259s-62.957037-76.325926-82.299259-122.026667c-20.005926-47.312593-30.151111-97.564444-30.151112-149.428148s10.145185-102.115556 30.151112-149.428148c19.342222-45.700741 47.028148-86.755556 82.299259-122.026667s76.325926-62.957037 122.026666-82.299259c47.312593-20.195556 97.564444-30.340741 149.428149-30.340741m0-42.666667c-235.614815 0-426.666667 191.051852-426.666667 426.666667s191.051852 426.666667 426.666667 426.666667 426.666667-191.051852 426.666666-426.666667-190.957037-426.666667-426.666666-426.666667z" p-id="3814"></path><path d="M701.819259 441.362963h-379.259259c-11.757037 0-21.333333-9.576296-21.333333-21.333333s9.576296-21.333333 21.333333-21.333334h379.259259c11.757037 0 21.333333 9.576296 21.333334 21.333334s-9.481481 21.333333-21.333334 21.333333zM664.177778 592.592593h-303.407408c-11.757037 0-21.333333-9.576296-21.333333-21.333334s9.576296-21.333333 21.333333-21.333333h303.407408c11.757037 0 21.333333 9.576296 21.333333 21.333333S675.934815 592.592593 664.177778 592.592593z" p-id="3815"></path><path d="M512.18963 772.266667c-11.757037 0-21.333333-9.576296-21.333334-21.333334V420.02963c0-11.757037 9.576296-21.333333 21.333334-21.333334s21.333333 9.576296 21.333333 21.333334v330.903703c0 11.757037-9.481481 21.333333-21.333333 21.333334zM512.18963 398.696296c-5.499259 0-10.903704-2.085926-15.075556-6.257777-8.343704-8.343704-8.343704-21.807407 0-30.151112l104.296296-104.296296c8.343704-8.343704 21.807407-8.343704 30.151111 0s8.343704 21.807407 0 30.151111l-104.296296 104.296297c-4.077037 4.171852-9.576296 6.257778-15.075555 6.257777z" p-id="3816"></path><path d="M512.18963 398.696296c-5.499259 0-10.903704-2.085926-15.075556-6.257777l-104.296296-104.296297c-8.343704-8.343704-8.343704-21.807407 0-30.151111s21.807407-8.343704 30.151111 0l104.296296 104.296296c8.343704 8.343704 8.343704 21.807407 0 30.151112-4.077037 4.171852-9.576296 6.257778-15.075555 6.257777z" p-id="3817"></path></svg>