<?xml version="1.0" standalone="no"?><!DOCTYPE svg PUBLIC "-//W3C//DTD SVG 1.1//EN" "http://www.w3.org/Graphics/SVG/1.1/DTD/svg11.dtd"><svg t="1589445303161" class="icon" viewBox="0 0 1024 1024" version="1.1" xmlns="http://www.w3.org/2000/svg" p-id="16510" xmlns:xlink="http://www.w3.org/1999/xlink" width="200" height="200"><defs><style type="text/css"></style></defs><path d="M569.55 680.15l-72.22 72.17-96.11 96c-2.7 2.7-5.38 5.41-8.09 8.08q-5.55 5.44-11.56 10.38c-1.72 1.4-6.15 4.44 1.69-1.22-1.13 0.81-2.23 1.68-3.36 2.5q-3.37 2.46-6.87 4.75a180 180 0 0 1-27.94 14.92l7.18-3a189.43 189.43 0 0 1-47.37 12.91l8-1.07a194.63 194.63 0 0 1-50.35 0l8 1.07a189.43 189.43 0 0 1-47.37-12.91l7.18 3a185.89 185.89 0 0 1-37.05-21.33c-4.34-3.19 6.25 5 1.12 0.82q-1.91-1.54-3.77-3.15-4.29-3.71-8.33-7.67c-2.47-2.42-4.89-4.88-7.33-7.32-7.55-7.54-14.74-15.21-21.54-23.44 6.44 7.78 1.74 2.2 0.39 0.31q-1.67-2.32-3.26-4.7-2.76-4.14-5.28-8.44a180.49 180.49 0 0 1-10.14-20.07l3 7.19a181.39 181.39 0 0 1-12.48-45.25l1.08 8a181.63 181.63 0 0 1 0-48l-1.08 8a181.27 181.27 0 0 1 12.48-45.25l-3 7.18a180.7 180.7 0 0 1 13.09-24.91c2.56-4 5.47-7.82 8.15-11.77-5.7 8.41-1 1.3 0.69-0.72s3.16-3.71 4.79-5.51c3.35-3.7 6.89-7.22 10.4-10.76L208 594.91l105.25-106.4 26.12-26.4c11.07-11.2 12-31.5 0-42.52s-30.7-11.95-42.52 0l-40.32 40.76-78.4 79.25-51.25 51.81c-37.24 37.65-59.42 86.73-61.68 139.77-2.52 58.6 21.6 114.82 62.73 155.94 17.19 17.18 35 33.42 56.58 45.11 27.19 14.78 56.77 23 87.53 25.52 59.29 4.92 120.49-16.73 163.09-58.29 13.68-13.33 27-27 40.55-40.49l78.22-78.17 55.34-55.31 2.83-2.83c11.14-11.13 12-31.53 0-42.51s-30.63-11.88-42.52 0zM723.2 612.36l39.91-39.92 78.6-78.66L896 439.49a218.62 218.62 0 0 0 33-41.68c16.11-26.8 24.91-56.47 28.6-87.33 7.06-59-12.92-120-52.28-164.19a295.93 295.93 0 0 0-49-44.5 196 196 0 0 0-79.62-32.95c-30.83-5.19-62.09-4.45-92.35 3.88s-58.1 23.88-81.83 44.5c-15.7 13.65-30 29.17-44.78 43.78l-78.33 77.48L423 294.25l-2.9 2.87c-11.2 11.08-11.92 31.58 0 42.52s30.57 11.82 42.52 0l71-70.27L629 175.13c2.67-2.63 5.32-5.29 8-7.91 3.84-3.76 7.83-7.37 12-10.77 0.74-0.61 1.5-1.21 2.25-1.82 4.24-3.45-6.31 4.72-0.92 0.76q3.18-2.32 6.45-4.52a178.24 178.24 0 0 1 28.51-15.42l-7.19 3A180.85 180.85 0 0 1 723.29 126l-8 1.07a182.48 182.48 0 0 1 48 0l-8-1.07a181 181 0 0 1 45.25 12.48l-7.19-3a179.57 179.57 0 0 1 20.07 10.13q4.29 2.52 8.44 5.29c1.58 1.06 3.15 2.14 4.71 3.26 1.88 1.35 7.46 6-0.32-0.39 8.23 6.8 15.9 14 23.44 21.53 2.44 2.44 4.9 4.87 7.32 7.33q4 4 7.67 8.33c0.91 1.07 1.82 2.14 2.71 3.23 4.81 5.88-3.38-4.66-0.38-0.58a186 186 0 0 1 21.33 37.06l-3-7.18a189.31 189.31 0 0 1 12.91 47.37l-1.07-8a194.71 194.71 0 0 1 0 50.36l1.07-8a189.24 189.24 0 0 1-12.91 47.36l3-7.18A180.45 180.45 0 0 1 874.9 371q-3.54 5.58-7.49 10.88c-1.37 1.83-4.13 4.52 1.72-2.2-0.77 0.88-1.47 1.82-2.21 2.72-1.64 2-3.33 4-5.07 5.86-3.28 3.64-6.77 7.07-10.23 10.54l-36.75 36.77L707.55 543l-26.86 26.88c-11.14 11.14-12 31.53 0 42.51s30.63 11.89 42.51 0z" p-id="16511"></path><path d="M382.72 683.63l29.91-29.91 71.86-71.86 86.94-86.94 75.2-75.2c12.19-12.19 24.66-24.16 36.6-36.6 0.17-0.18 0.35-0.35 0.53-0.53 11.13-11.13 12-31.53 0-42.51s-30.64-11.89-42.52 0L611.32 370l-71.85 71.86-87 86.94-75.15 75.2c-12.19 12.19-24.66 24.16-36.6 36.6l-0.52 0.52c-11.14 11.14-12 31.54 0 42.52s30.63 11.89 42.52 0z" p-id="16512"></path></svg>