<?xml version="1.0" standalone="no"?><!DOCTYPE svg PUBLIC "-//W3C//DTD SVG 1.1//EN" "http://www.w3.org/Graphics/SVG/1.1/DTD/svg11.dtd"><svg t="1589442709679" class="icon" viewBox="0 0 1024 1024" version="1.1" xmlns="http://www.w3.org/2000/svg" p-id="3315" xmlns:xlink="http://www.w3.org/1999/xlink" width="200" height="200"><defs><style type="text/css"></style></defs><path d="M904.429343 265.756525 704.799211 265.756525 931.75916 42.554503c9.773062-9.603363 9.90596-25.341469 0.291352-35.114531-9.627898-9.797597-25.341469-9.942762-35.114531-0.291352l-262.962847 258.607905L400.285515 265.756525 137.322668 7.14862c-9.760795-9.603363-25.475388-9.481711-35.114531 0.291352-9.61563 9.773062-9.481711 25.511168 0.291352 35.114531l226.959949 223.202022-209.548359 0c-55.558224 0-100.761704 45.178945-100.761704 100.737169l0 556.76911c0 55.558224 45.20348 100.737169 100.761704 100.737169l784.518264 0c55.558224 0 100.749436-45.178945 100.749436-100.737169L1005.178779 366.493694C1005.177757 310.93547 959.987566 265.756525 904.429343 265.756525zM955.513017 923.262804c0 28.154802-22.916604 51.071407-51.083674 51.071407L119.910056 974.334211c-28.179337 0-51.095941-22.916604-51.095941-51.071407L68.814115 366.493694c0-28.154802 22.916604-51.071407 51.095941-51.071407l784.518264 0c28.16707 0 51.083674 22.916604 51.083674 51.071407L955.511995 923.262804z" p-id="3316"></path><path d="M695.546493 626.290518 394.863306 452.680654c-7.687597-4.413212-17.144773-4.413212-24.83237 0-7.687597 4.437747-12.416696 12.634443-12.416696 21.509938l0 347.196217c0 8.875494 4.729099 17.07219 12.416696 21.509938 3.843799 2.207117 8.124114 3.322432 12.416696 3.322432 4.292582 0 8.572898-1.115315 12.416696-3.322432L695.546493 669.311416c7.687597-4.437747 12.416696-12.634443 12.416696-21.509938C707.963189 638.924962 703.23409 630.728266 695.546493 626.290518zM407.280002 778.36591 407.280002 517.211489l226.185055 130.588967L407.280002 778.36591z" p-id="3317"></path></svg>