<?xml version="1.0" standalone="no"?><!DOCTYPE svg PUBLIC "-//W3C//DTD SVG 1.1//EN" "http://www.w3.org/Graphics/SVG/1.1/DTD/svg11.dtd"><svg t="1587538805339" class="icon" viewBox="0 0 1024 1024" version="1.1" xmlns="http://www.w3.org/2000/svg" p-id="2067" xmlns:xlink="http://www.w3.org/1999/xlink" width="200" height="200"><defs><style type="text/css"></style></defs><path d="M917.5 918.9c0-0.6-0.2-1.3-0.2-1.9l-0.2-1.3c0-3.1-0.4-6.2-1.1-9.2-17.4-141.3-109.7-263.4-243.1-321.8 78.3-54.1 124.7-141.9 124.3-235.4 2.9-100.9-50.8-195.5-140.3-246.8-89.4-51.3-200.4-51.3-289.8 0-89.4 51.4-143.1 145.9-140.2 246.9-0.4 93.5 46 181.4 124.5 235.4-132.1 57.8-224 178.2-242.7 317.9-1.4 4.2-2.1 8.6-2.2 13l0.2 3.2 0.2 0.4c-0.5 14.4 7.2 28 19.9 35.4 12.8 7.4 28.7 7.4 41.4 0 12.8-7.4 20.4-20.9 19.9-35.4l-0.2-0.4h0.9c17.4-154.7 146.4-274.8 306-285.1 5.7 0.4 11.4 0.6 17.1 0.6 5.9 0 11.6-0.2 17.3-0.6 159.6 10.3 288.6 130.4 306 285.1h0.9v0.4c-0.5 14.4 7.2 28 19.9 35.4 12.8 7.4 28.7 7.4 41.5 0s20.4-20.9 19.9-35.4v-0.4zM308.4 349.6c2.9-106.4 91.6-191.5 201-192.9 109.4-1.4 200.3 81.5 206 187.8 5.7 106.3-75.9 197.9-184.8 207.7-6.1-0.2-12.3-0.4-18.4-0.4-6.1 0-12.5 0.2-18.6 0.4-106.2-11-186.4-98.7-185.2-202.6z m0 0" p-id="2068" fill="#999999"></path></svg>
