<?xml version="1.0" standalone="no"?><!DOCTYPE svg PUBLIC "-//W3C//DTD SVG 1.1//EN" "http://www.w3.org/Graphics/SVG/1.1/DTD/svg11.dtd"><svg t="1587538950915" class="icon" viewBox="0 0 1024 1024" version="1.1" xmlns="http://www.w3.org/2000/svg" p-id="3109" xmlns:xlink="http://www.w3.org/1999/xlink" width="200" height="200"><defs><style type="text/css"></style></defs><path d="M170.461867 469.546667A42.478933 42.478933 0 0 0 128 511.991467v384.221866a42.478933 42.478933 0 0 0 42.453333 42.4448h683.093334a42.478933 42.478933 0 0 0 42.453333-42.4448V511.982933a42.478933 42.478933 0 0 0-42.461867-42.4448h-683.093333zM853.546667 1024h-683.093334C100.010667 1024 42.666667 966.656 42.666667 896.213333V511.982933c0-70.442667 57.344-127.778133 127.778133-127.778133h683.093333c70.442667 0 127.786667 57.344 127.786667 127.778133v384.221867c0 70.434133-57.344 127.778133-127.786667 127.778133z" p-id="3110" fill="#999999"></path><path d="M768 469.333333H682.666667V256c0-94.122667-76.544-170.666667-170.666667-170.666667s-170.666667 76.544-170.666667 170.666667v213.333333H256V256C256 114.816 370.816 0 512 0s256 114.816 256 256v213.333333zM512 810.666667c-23.466667 0-42.666667-19.2-42.666667-42.666667V640c0-23.466667 19.2-42.666667 42.666667-42.666667s42.666667 19.2 42.666667 42.666667v128c0 23.466667-19.2 42.666667-42.666667 42.666667" p-id="3111" fill="#999999"></path></svg>
