<?xml version="1.0" standalone="no"?><!DOCTYPE svg PUBLIC "-//W3C//DTD SVG 1.1//EN" "http://www.w3.org/Graphics/SVG/1.1/DTD/svg11.dtd"><svg t="1589506119429" class="icon" viewBox="0 0 1024 1024" version="1.1" xmlns="http://www.w3.org/2000/svg" p-id="4558" xmlns:xlink="http://www.w3.org/1999/xlink" width="200" height="200"><defs><style type="text/css"></style></defs><path d="M604.501333 542.037333A242.346667 242.346667 0 1 0 238.933333 332.572444a240.867556 240.867556 0 0 0 123.335111 209.464889 372.280889 372.280889 0 0 1 242.232889 0zM291.271111 332.572444a192.170667 192.170667 0 0 1 384.227556 0 192.170667 192.170667 0 0 1-384.227556 0zM604.501333 542.037333a244.622222 244.622222 0 0 1-242.232889 0A366.705778 366.705778 0 0 0 113.777778 887.466667h52.337778a318.008889 318.008889 0 0 1 560.128-201.386667L762.311111 647.736889a371.143111 371.143111 0 0 0-157.809778-105.699556z" p-id="4559"></path><path d="M604.501333 542.037333a372.280889 372.280889 0 0 0-242.232889 0 244.622222 244.622222 0 0 0 242.232889 0zM670.72 932.977778L516.664889 775.736889l38.570667-35.384889 115.712 115.598222 201.045333-217.770666L910.222222 673.905778 670.72 932.977778z" p-id="4560"></path></svg>
