<svg width="18" height="18" viewBox="0 0 18 18"  xmlns="http://www.w3.org/2000/svg">
<path d="M10.9902 1.80713C10.7904 1.67392 10.5906 1.67392 10.3242 1.74052L5.52891 4.00498H2.99805C1.86582 4.00498 1 4.8708 1 6.00303V8.33409C1 9.0667 1.39961 9.73272 1.99902 10.0657V14.6612C1.99902 15.5937 2.73164 16.3263 3.66407 16.3263C4.59649 16.3263 5.32911 15.5937 5.32911 14.6612V10.3321H5.52891L10.3908 12.5966C10.4574 12.6632 10.5906 12.6632 10.6572 12.6632C10.7904 12.6632 10.9236 12.5966 10.9902 12.53C11.19 12.3968 11.3233 12.197 11.3233 11.9972V2.33994C11.3233 2.14013 11.19 1.87373 10.9902 1.80713V1.80713ZM2.33203 6.00303C2.33203 5.60342 2.59844 5.33701 2.99805 5.33701H4.9961V9.0001H2.99805C2.59844 9.0001 2.33203 8.7337 2.33203 8.33409V6.00303V6.00303ZM3.99707 14.6612C3.99707 14.861 3.86387 14.9943 3.66407 14.9943C3.46426 14.9943 3.33106 14.861 3.33106 14.6612V10.3321H3.99707V14.6612V14.6612ZM9.99122 10.9316L6.32813 9.26651V5.07061L9.99122 3.33896V10.9316ZM13.3213 4.8042C13.0549 4.53779 12.6553 4.53779 12.3889 4.8042C12.1225 5.07061 12.1225 5.47022 12.3889 5.73662C12.7885 6.13623 12.9883 6.60244 12.9883 7.13526C12.9883 7.66807 12.7885 8.20088 12.3889 8.53389C12.1225 8.8003 12.1225 9.19991 12.3889 9.46631C12.5221 9.59952 12.7219 9.66612 12.8551 9.66612C12.9883 9.66612 13.1881 9.59952 13.3213 9.46631C13.9207 8.8669 14.3203 8.00108 14.3203 7.13526C14.3203 6.26944 13.9873 5.47022 13.3213 4.8042V4.8042Z" fill="#15213E"/>
<path d="M15.2533 2.93955C14.9869 2.67314 14.5873 2.67314 14.3209 2.93955C14.0545 3.20596 14.0545 3.60557 14.3209 3.87197C16.1191 5.67022 16.1191 8.66729 14.3209 10.4655C14.0545 10.7319 14.0545 11.1316 14.3209 11.398C14.4541 11.5312 14.6539 11.5978 14.7871 11.5978C14.9203 11.5978 15.1201 11.5312 15.2533 11.398C17.5844 9.0669 17.5844 5.27061 15.2533 2.93955V2.93955Z" fill="#15213E"/>
</svg>
