<svg t="1587522617660" class="icon" viewBox="0 0 1024 1024" version="1.1" xmlns="http://www.w3.org/2000/svg" p-id="27036" width="200" height="200"><path d="M934.4 960 64 960c-4.266667 0-4.266667 0-8.533333 0-17.066667 0-29.866667-8.533333-38.4-21.333333-8.533333-12.8-17.066667-25.6-17.066667-38.4C0 896 0 896 0 891.733333L0 64l896 0c0 4.266667 0 4.266667 0 8.533333l0 140.8L896 213.333333l128 0c0 0 0 0 0 0l0 640c0 0 0 0 0 0 0 4.266667 0 12.8 0 17.066667-4.266667 25.6-17.066667 46.933333-38.4 64-12.8 8.533333-25.6 17.066667-42.666667 17.066667C934.4 960 934.4 960 934.4 960L934.4 960zM832 136.533333l-768 0c0 0 0 4.266667 0 4.266667 0 12.8 0 29.866667 0 42.666667 0 12.8 0 21.333333 0 34.133333 0 17.066667 0 34.133333 0 51.2 0 38.4 0 76.8 0 110.933333 0 72.533333 0 149.333333 0 221.866667 0 17.066667 0 38.4 0 55.466667 0 21.333333 0 42.666667 0 68.266667 0 17.066667 0 29.866667 0 46.933333 0 12.8 0 25.6 0 38.4 0 12.8 0 29.866667 0 42.666667 0 8.533333 0 17.066667 0 25.6 0 0 0 0 0 4.266667 0 0 0 0 4.266667 0 256 0 507.733333 0 763.733333 0 0 0 0 0 0 0 0 0 0 0 0 0C832 635.733333 832 388.266667 832 136.533333L832 136.533333zM832 136.533333" p-id="27037"></path><path d="M934.4 960c0 0 4.266667 0 4.266667 0 17.066667 0 29.866667-8.533333 42.666667-17.066667 21.333333-17.066667 34.133333-38.4 38.4-64 0-4.266667 0-12.8 0-17.066667 0 0 0 0 0 0l0 106.666667L934.4 968.533333 934.4 960zM934.4 960" p-id="27038"></path><path d="M0 891.733333C0 896 0 896 0 900.266667c4.266667 17.066667 8.533333 29.866667 17.066667 38.4 8.533333 12.8 21.333333 17.066667 38.4 21.333333 4.266667 0 4.266667 0 8.533333 0L0 960 0 891.733333 0 891.733333zM0 891.733333" p-id="27039"></path><path d="M128 776.533333 128 418.133333c0 0 315.733333 0 320 0l0 358.4L128 776.533333 128 776.533333zM128 776.533333" p-id="27040"></path><path d="M128 302.933333 128 238.933333l640 0 0 64L128 302.933333 128 302.933333zM128 302.933333" p-id="27041"></path><path d="M512 576l256 0c0 0 0 55.466667 0 59.733333 0 0-4.266667 0-4.266667 0-8.533333 0-21.333333 0-29.866667 0-12.8 0-25.6 0-38.4 0-12.8 0-21.333333 0-34.133333 0-25.6 0-51.2 0-76.8 0-17.066667 0-34.133333 0-46.933333 0-8.533333 0-17.066667 0-25.6 0 0 0 0 0-4.266667 0L507.733333 576 512 576zM512 576" p-id="27042"></path><path d="M768 418.133333l0 64c0 0 0 0-4.266667 0-8.533333 0-17.066667 0-25.6 0-12.8 0-25.6 0-38.4 0-46.933333 0-93.866667 0-140.8 0-8.533333 0-21.333333 0-29.866667 0-4.266667 0-8.533333 0-17.066667 0 0 0 0 0-4.266667 0L507.733333 418.133333C597.333333 418.133333 682.666667 418.133333 768 418.133333L768 418.133333zM768 418.133333" p-id="27043"></path><path d="M512 776.533333l0-64 187.733333 0c0 4.266667 0 55.466667 0 64L512 776.533333 512 776.533333zM512 776.533333" p-id="27044"></path></svg>
