<?xml version="1.0" standalone="no"?><!DOCTYPE svg PUBLIC "-//W3C//DTD SVG 1.1//EN" "http://www.w3.org/Graphics/SVG/1.1/DTD/svg11.dtd"><svg t="1648368788306" class="icon" viewBox="0 0 1024 1024" version="1.1" xmlns="http://www.w3.org/2000/svg" p-id="10902" xmlns:xlink="http://www.w3.org/1999/xlink" width="200" height="200"><defs><style type="text/css"></style></defs><path d="M64 331.136h128l213.76-187.904A64 64 0 0 1 512 191.36v641.28a64 64 0 0 1-105.408 48.832L192 699.456H64a64 64 0 0 1-64-64V395.136a64 64 0 0 1 64-64z m32 272.32H192c22.72 0 44.8 8.128 62.08 22.784L416 763.52V262.08L255.36 403.2a96 96 0 0 1-63.36 23.936H96v176.32z m610.112 174.208a48 48 0 0 1-67.84-67.84 272 272 0 0 0 0-384.64 48 48 0 0 1 67.84-67.968 368 368 0 0 1 0 520.448z m135.808 135.744a48 48 0 0 1-67.904-67.84 464 464 0 0 0 0-656.192 48 48 0 0 1 67.84-67.84 560 560 0 0 1 0 791.872z" fill="#2c2c2c" p-id="10903"></path></svg>