<?xml version="1.0" standalone="no"?><!DOCTYPE svg PUBLIC "-//W3C//DTD SVG 1.1//EN" "http://www.w3.org/Graphics/SVG/1.1/DTD/svg11.dtd"><svg t="1592188180254" class="icon" viewBox="0 0 1024 1024" version="1.1" xmlns="http://www.w3.org/2000/svg" p-id="3887" xmlns:xlink="http://www.w3.org/1999/xlink" width="220" height="220"><defs><style type="text/css"></style></defs><path d="M870.4 55.442286C780.8 21.357714 652.8 0 512 0 371.2 0 243.2 21.357714 153.6 55.442286 51.2 102.4 0 153.6 0 217.6v593.042286c0 59.757714 51.2 115.2 153.6 153.6C243.2 1002.642286 371.2 1024 512 1024c140.8 0 268.8-21.357714 358.4-59.757714 93.842286-38.4 153.6-93.842286 153.6-153.6V217.6C1024 153.6 972.8 102.4 870.4 55.442286m-59.757714 264.557714c-85.284571 34.157714-200.484571 46.957714-298.642286 46.957714-110.957714 0-217.6-12.8-298.642286-46.957714C119.515429 294.4 72.557714 256 72.557714 217.6c0-38.4 51.2-76.8 140.8-110.957714C294.4 76.8 405.357714 59.757714 512 59.757714c102.4 0 217.6 21.357714 298.642286 46.957715 89.6 29.842286 140.8 68.242286 140.8 110.957714 0 38.326857-42.642286 76.726857-140.8 102.326857m8.557714 183.442286c-85.357714 25.6-200.557714 46.957714-307.2 46.957714-110.957714 0-217.6-21.357714-307.2-42.642286C115.2 477.842286 64 439.442286 64 396.8v-68.242286c64 25.6 110.957714 55.442286 179.2 68.242286 85.357714 21.357714 174.957714 34.157714 268.8 34.157714s183.442286-12.8 268.8-34.157714c68.242286-12.8 115.2-46.957714 179.2-68.242286v76.8c0 29.842286-51.2 68.242286-140.8 98.084572m0 204.8c-85.357714 25.6-200.557714 46.957714-307.2 46.957714-110.957714 0-217.6-21.357714-307.2-46.957714C115.2 682.642286 64 644.242286 64 597.284571V503.442286c64 34.157714 110.957714 59.757714 179.2 76.8 85.357714 21.357714 174.957714 29.915429 268.8 29.915428s183.442286-12.8 268.8-29.842285c68.242286-21.357714 115.2-46.957714 179.2-76.8v93.842285c0 46.884571-51.2 85.284571-140.8 110.884572M512 960c-110.957714 0-217.6-17.042286-307.2-46.957714-89.6-25.6-140.8-64-140.8-110.957715V708.242286c64 29.842286 110.957714 59.757714 179.2 76.8 76.8 21.357714 174.957714 34.157714 260.242286 34.157714 93.842286 0 183.442286-12.8 268.8-34.157714 76.8-21.357714 123.757714-46.957714 183.442285-76.8v93.842285c0 38.4-51.2 76.8-140.8 110.957715-81.042286 34.157714-200.484571 46.957714-302.884571 46.957714z m0 0" p-id="3888"></path></svg>
