<?xml version="1.0" standalone="no"?><!DOCTYPE svg PUBLIC "-//W3C//DTD SVG 1.1//EN" "http://www.w3.org/Graphics/SVG/1.1/DTD/svg11.dtd"><svg t="1587520363197" class="icon" viewBox="0 0 1103 1024" version="1.1" xmlns="http://www.w3.org/2000/svg" p-id="1874" xmlns:xlink="http://www.w3.org/1999/xlink" width="215.4296875" height="200"><defs><style type="text/css"></style></defs><path d="M551.351729 157.790241 689.198978 352.555573 945.212259 412.93755 774.379289 608.962479 794.76903 865.684284 551.351729 767.435644 307.934426 865.684284 328.324168 608.962479 157.491197 412.93755 413.504479 352.555573 551.351729 157.790241M551.351729 0.025599 551.351729 0.025599C534.268432 0.025599 518.366007 8.685335 509.391372 22.855812L344.305317 284.064935 37.671944 356.019468C21.060996 359.876986 7.677767 371.921891 2.403201 387.666865-2.871365 403.490565 0.671254 420.810037 11.771461 433.484741L216.377401 666.825259 191.972691 972.513934C190.634369 989.124882 198.270681 1005.106031 212.047533 1014.946639 220.628545 1020.92973 230.784053 1024 241.018286 1024 247.316275 1024 253.69299 1022.819127 259.754806 1020.457381L551.351729 903.393497 842.948652 1020.457381C849.010467 1022.819127 855.387182 1024 861.685171 1024 871.919404 1024 882.074913 1020.92973 890.655924 1014.946639 904.432777 1005.106031 912.069089 989.124882 910.730766 972.513934L886.326056 666.825259 1090.931996 433.484741C1102.032203 420.810037 1105.574822 403.490565 1100.300256 387.666865 1095.02569 371.921891 1081.642461 359.876986 1065.031514 356.019468L758.398139 284.064935 593.23336 22.855812C584.258725 8.685335 568.435026 0.025599 551.351729 0.025599L551.351729 0.025599Z" p-id="1875"></path></svg>
