<?xml version="1.0" standalone="no"?><!DOCTYPE svg PUBLIC "-//W3C//DTD SVG 1.1//EN" "http://www.w3.org/Graphics/SVG/1.1/DTD/svg11.dtd"><svg t="1590973563319" class="icon" viewBox="0 0 1024 1024" version="1.1" xmlns="http://www.w3.org/2000/svg" p-id="2205" xmlns:xlink="http://www.w3.org/1999/xlink" width="220" height="220"><defs><style type="text/css"></style></defs><path d="M230.534 63.008c18.738 0 37.494-0.018 56.25 0.018 0 18.666-0.018 37.332 0.018 56.016 93.582 0 187.164-0.018 280.764 0 0.018-18.684 0-37.35 0.018-56.034h56.34c0.036 18.684 0 37.35 0.018 56.034 56.178 0 112.356-0.018 168.534 0 0.036 116.964-0.108 233.928 0.072 350.892 43.848 15.282 83.286 42.93 112.446 79.074 37.44 45.918 57.438 105.444 55.944 164.628-0.954 63.666-27.108 126.594-71.964 171.828-41.814 42.894-99.468 69.678-159.138 74.412-62.568 5.472-127.098-12.852-176.688-51.552-2.142-1.422-4.104-3.762-6.894-3.564-161.406-0.054-322.83-0.018-484.254-0.018V119.042c56.178-0.018 112.356 0 168.516-0.018 0.018-18.666 0-37.332 0.018-56.016M118.25 175.292c0 224.406 0.018 448.794 0 673.182 126.36 0.036 252.72 0 379.08 0.018-45.252-67.194-54.522-156.528-25.11-231.894 21.204-55.566 63.018-102.87 115.506-130.824 45.108-24.336 97.632-34.02 148.518-28.548-0.054-93.96-0.054-187.902-0.018-281.862-37.422-0.162-74.862-0.036-112.284-0.054-0.018 18.702 0 37.404-0.018 56.106-18.774 0.018-37.566 0.018-56.34 0-0.018-18.702 0-37.404-0.018-56.124H286.784c-0.018 18.72 0 37.422 0 56.124-18.756 0.018-37.512 0.018-56.25 0-0.018-18.684-0.036-37.368 0-56.07-37.422-0.126-74.844-0.018-112.284-0.054m565.866 338.238c-43.344 5.436-84.312 26.334-114.948 57.366-32.544 32.634-53.604 76.824-57.024 122.904-3.366 41.958 8.1 84.708 31.158 119.844 27.396 42.174 70.992 73.746 119.97 85.536 37.368 9.18 77.454 6.498 113.328-7.362 52.434-19.98 95.508-63.018 115.452-115.47 14.742-38.124 16.686-81.054 5.292-120.312-14.04-49.392-48.312-92.394-92.736-117.936-36.09-20.97-79.056-30.006-120.492-24.57z" p-id="2206"></path><path d="M174.284 343.466c168.588 0.018 337.194-0.018 505.8 0.018-0.018 18.738-0.018 37.476 0 56.232-168.606 0.036-337.212 0-505.8 0.018-0.018-18.756-0.018-37.512 0-56.268zM174.14 512.162c93.762-0.576 187.542-0.216 281.304-0.18-0.234 18.72 0.324 37.458-0.27 56.178-93.654-0.378-187.308 0.108-280.962-0.252 0.054-18.594 0.18-37.17-0.072-55.746zM679.958 567.926c18.792-0.018 37.584-0.054 56.394 0.018-0.054 56.106 0 112.23-0.036 168.354 37.458 0.054 74.934 0 112.392 0.036v56.124c-56.25 0-112.5 0.018-168.75 0V567.926zM174.284 680.192c74.952 0 149.922-0.036 224.874 0.018 0.018 18.72-0.018 37.458 0.036 56.178-74.97 0.108-149.958 0.036-224.928 0.036 0.018-18.738-0.018-37.494 0.018-56.232z" p-id="2207"></path></svg>
