<?xml version="1.0" standalone="no"?><!DOCTYPE svg PUBLIC "-//W3C//DTD SVG 1.1//EN" "http://www.w3.org/Graphics/SVG/1.1/DTD/svg11.dtd"><svg t="1587520642546" class="icon" viewBox="0 0 1024 1024" version="1.1" xmlns="http://www.w3.org/2000/svg" p-id="2850" xmlns:xlink="http://www.w3.org/1999/xlink" width="200" height="200"><defs><style type="text/css"></style></defs><path d="M1001.472 586.24c8.704 12.288 10.752 26.112 5.632 41.472l-88.576 292.352c-4.096 13.824-12.288 25.6-24.576 34.816-12.288 9.216-25.6 14.336-39.424 14.336h-297.984c-16.384 0-32.768-5.632-47.616-17.408-15.36-11.776-26.112-25.6-31.744-42.496-5.12-14.336-5.632-28.16-0.512-40.96 0-1.024 0.512-3.584 1.024-8.704 0.512-4.608 1.024-8.704 1.536-12.288 0.512-1.536 0-4.096-1.024-6.656s-1.024-5.12-1.024-6.144c0.512-2.56 1.536-4.608 2.56-6.656 1.536-2.048 3.072-4.608 5.12-7.68 2.048-2.56 4.096-5.632 5.12-7.68 4.608-8.192 9.728-17.92 14.336-29.696 4.608-11.776 7.68-21.504 9.728-29.696 0.512-2.048 0.512-5.632 0-9.728-0.512-4.096-0.512-7.168 0-8.704 0.512-2.56 2.56-5.632 5.632-8.704 3.072-3.584 4.608-6.144 5.632-7.168 4.608-7.68 8.704-17.408 13.312-29.696 4.608-12.288 7.168-21.504 7.68-28.672 0.512-2.048 0-5.632-0.512-10.24-0.512-4.608-0.512-7.68 0-8.704 1.024-2.56 3.584-6.144 7.168-9.728l7.168-7.168c4.096-5.632 8.704-14.848 13.824-27.136 5.12-12.8 7.68-23.04 8.704-31.232 0.512-1.536 0-4.608-1.024-8.192-1.024-3.584-1.024-6.656-0.512-8.704 0.512-1.536 1.536-3.584 2.56-5.632 1.536-2.048 3.584-4.608 5.632-7.168 2.56-2.56 4.096-5.12 5.632-6.656 1.536-2.56 3.584-5.632 5.12-9.728 1.536-4.096 3.584-7.68 4.608-11.264 1.536-3.584 3.072-7.168 5.12-11.776 2.048-4.096 4.096-7.68 6.144-10.24 2.048-2.56 5.12-5.12 8.704-7.68s7.168-3.584 11.776-3.584c4.096 0 9.216 0.512 15.36 1.536l0.512 0.512c8.192-2.048 13.824-2.56 16.384-2.56h245.248c15.872 0 28.16 6.144 36.864 18.432 8.704 12.288 10.752 26.112 5.632 41.984l-88.576 292.352c-7.68 25.6-15.36 41.984-23.04 49.664-7.68 7.168-21.504 10.752-41.472 10.752h-280.576c-5.632 0-9.728 1.536-12.288 4.608-2.56 3.584-2.56 7.68-0.512 13.824 5.12 15.36 20.48 22.528 46.592 22.528h297.984c6.144 0 12.288-1.536 18.432-5.12 5.632-3.584 9.728-7.68 11.264-13.312l96.768-318.464c1.536-4.608 2.048-10.752 1.536-18.432 8.192 1.536 14.336 5.632 18.944 12.288z m-369.664 82.944c-1.024 2.56-0.512 5.12 0.512 7.168 1.536 2.048 3.584 3.072 6.656 3.072h196.096c2.56 0 5.632-1.024 8.192-3.072 2.56-2.048 4.608-4.608 5.12-7.168l6.656-20.48c1.024-2.56 0.512-5.12-0.512-7.168-1.536-2.048-3.584-3.072-6.656-3.072h-196.096c-2.56 0-5.632 1.024-8.192 3.072-2.56 2.048-4.608 4.608-5.12 7.168l-6.656 20.48z m26.624-82.432c-1.024 2.56-0.512 5.12 0.512 7.168 1.536 2.048 3.584 3.072 6.656 3.072h196.096c2.56 0 5.632-1.024 8.192-3.072s4.608-4.608 5.12-7.168l6.656-20.48c1.024-2.56 0.512-5.12-0.512-7.168-1.536-2.048-3.584-3.072-6.656-3.072h-196.096c-2.56 0-5.632 1.024-8.192 3.072-2.56 2.048-4.608 4.608-5.12 7.168l-6.656 20.48z m0 0" p-id="2851"></path><path d="M435.2 924.16c-5.632-15.36-6.144-30.208-0.512-44.032 0-1.024 0.512-4.096 1.024-9.216s1.024-9.728 1.536-12.8c0.512-2.048 0-4.608-1.024-7.168-1.024-3.072-1.024-5.632-1.024-6.656 0.512-2.56 1.536-4.608 2.56-7.168 1.536-2.048 3.584-5.12 5.632-8.192 2.048-3.072 4.608-6.144 5.632-8.192 5.12-8.704 10.752-19.456 15.36-31.744 5.12-12.8 8.704-23.04 10.24-31.744 0.512-2.048 0.512-6.144 0-10.24-0.512-4.608-0.512-7.68 0-9.728 0.512-2.56 2.56-6.144 6.144-9.728 3.584-4.096 5.12-6.656 6.144-7.68 4.608-8.192 9.728-18.944 14.336-31.744 4.608-12.8 7.68-23.552 8.704-31.232 0.512-2.048 0-6.144-0.512-11.264-0.512-5.12-0.512-8.704 0-9.728 1.024-3.072 3.584-6.656 7.68-10.752l7.68-7.68c4.608-6.144 9.216-15.872 14.848-29.184 5.632-13.824 8.704-25.088 9.728-33.792 0.512-2.048 0-4.608-1.024-8.704-1.024-4.096-1.024-7.168-0.512-9.216 0.512-2.048 1.536-4.096 3.072-6.144 1.536-2.048 3.584-4.608 6.144-7.68s4.608-5.632 6.144-7.168c2.048-2.56 3.584-6.144 5.632-10.752 2.048-4.608 3.584-8.192 5.12-12.288 1.536-3.584 3.584-7.68 5.632-12.8 2.048-4.608 4.608-8.192 6.656-11.264 2.048-3.072 5.632-5.632 9.216-8.192s7.68-4.096 12.8-4.096c4.608 0 10.24 0.512 16.896 2.048l0.512 0.512c8.704-2.048 14.848-3.072 17.92-3.072H865.28V10.752H123.904c-29.696 0.512-59.904 6.656-81.92 27.648-34.304 32.256-36.864 76.8-34.816 121.344 1.536 34.304 55.296 34.304 53.248 0-1.536-28.16-5.12-65.024 20.48-83.968 12.288-8.704 27.136-11.776 42.496-11.776v146.944c-29.696 0.512-59.904 6.656-81.92 27.648-34.304 32.256-36.864 76.8-34.816 121.344 1.536 34.304 55.296 34.304 53.248 0-1.536-28.16-5.12-65.024 20.48-83.968 12.288-8.704 27.136-11.776 42.496-11.776V409.6c-29.696 0.512-59.904 6.656-81.92 27.136-34.304 32.256-36.864 76.8-34.816 121.344 1.536 34.304 55.296 34.304 53.248 0-1.536-28.16-5.12-65.024 20.48-83.968 12.288-8.704 27.136-11.776 42.496-11.776V609.28c-29.696 0.512-59.904 6.656-81.92 27.136-34.304 32.256-36.864 76.8-34.816 121.344 1.536 34.304 55.296 34.304 53.248 0-1.536-28.16-5.12-65.024 20.48-83.968 12.288-8.704 27.136-11.776 42.496-11.776V808.96c-29.696 0.512-59.904 6.656-81.92 27.136-34.304 32.256-36.864 76.8-34.816 121.344 1.536 34.304 55.296 34.304 53.248 0-1.536-28.16-5.12-65.024 20.48-83.968 12.288-8.704 27.136-11.776 42.496-11.776v107.52h347.648c-16.384-12.288-27.648-27.648-33.792-45.056zM293.376 110.592H696.32v215.04H293.376v-215.04z" p-id="2852"></path></svg>