<?xml version="1.0" standalone="no"?><!DOCTYPE svg PUBLIC "-//W3C//DTD SVG 1.1//EN" "http://www.w3.org/Graphics/SVG/1.1/DTD/svg11.dtd"><svg t="1648368659313" class="icon" viewBox="0 0 1024 1024" version="1.1" xmlns="http://www.w3.org/2000/svg" p-id="9939" xmlns:xlink="http://www.w3.org/1999/xlink" width="200" height="200"><defs><style type="text/css"></style></defs><path d="M745.728252 496.746598c-1.548262-21.932522-18.755156-38.468127-40.031738-38.468127L313.372174 458.278471c-21.104667 0-38.940894 18.019399-38.940894 39.3451 0 21.321608 17.836227 39.336914 38.940894 39.336914l393.438721 0c21.11183 0 38.948057-18.015306 38.948057-39.336914L745.728252 496.746598z" p-id="9940"></path><path d="M419.259806 191.314257l182.786023 0c27.755134 0 51.205219-26.782993 51.205219-58.485019 0-32.247448-23.472598-58.481949-52.322669-58.481949L419.259806 74.347289c-28.850072 0-52.318576 26.233478-52.318576 58.481949S390.410758 191.314257 419.259806 191.314257z" p-id="9941"></path><path d="M706.809871 311.908846 313.372174 311.908846c-21.104667 0-38.940894 18.015306-38.940894 39.3451 0 21.325701 17.836227 39.341007 38.940894 39.341007l393.438721 0c21.11183 0 38.948057-18.015306 38.948057-39.341007C745.757928 329.924151 727.921701 311.908846 706.809871 311.908846z" p-id="9942"></path><path d="M705.696514 617.027032 313.372174 617.027032c-21.104667 0-38.940894 18.019399-38.940894 39.3451 0 21.321608 17.836227 39.336914 38.940894 39.336914l393.438721 0c21.11183 0 38.948057-18.015306 38.948057-39.336914l-0.030699-0.876973C744.17999 633.56366 726.972073 617.027032 705.696514 617.027032z" p-id="9943"></path><path d="M884.997156 134.834918c-20.917402-22.630417-50.930973-34.592866-86.793762-34.592866l-52.384068 0c-20.875446 0-43.402509 13.752212-43.402509 35.96205 0 20.99415 21.497617 41.59842 43.402509 41.59842l52.384068 0c24.410969 0 40.187281 15.932878 40.187281 40.59558l0 609.108688c0 24.662703-15.777335 40.59558-40.187281 40.59558L234.242975 868.102371c-25.28078 0-53.5578-17.359366-53.5578-40.59558L180.685175 218.399125c0-24.662703 15.773242-40.59558 40.187281-40.59558l65.757656 0c19.293415 0 32.255635-16.718777 32.255635-41.59842 0-22.518876-12.05864-35.96205-32.255635-35.96205l-65.757656 0c-73.240071 0-116.962875 44.592614-116.962875 119.281687l0 602.351797c0 75.196633 48.097438 123.786281 122.534777 123.786281l566.18304 0c79.021751 0 122.538871-43.963281 122.538871-123.786281L915.166269 219.523739C915.166269 185.472202 904.735709 156.187225 884.997156 134.834918z" p-id="9944"></path></svg>