<svg width="18" height="18" viewBox="0 0 18 18"  xmlns="http://www.w3.org/2000/svg">
<path d="M2.27985 13.7985H10.5989V15.0783H2.27985C1.94041 15.0783 1.61488 14.9435 1.37486 14.7035C1.13484 14.4634 1 14.1379 1 13.7985V2.27985C1 1.94041 1.13484 1.61488 1.37486 1.37486C1.61488 1.13484 1.94041 1 2.27985 1H13.1586C13.498 1 13.8235 1.13484 14.0635 1.37486C14.3036 1.61488 14.4384 1.94041 14.4384 2.27985V6.8713C14.1239 6.79651 13.8018 6.75893 13.4785 6.75931C13.3716 6.75818 13.2648 6.76352 13.1586 6.77531V2.27985H2.27985V13.7985ZM11.8787 4.83954C11.8787 4.75551 11.8622 4.67229 11.83 4.59465C11.7978 4.51701 11.7507 4.44647 11.6913 4.38705C11.6319 4.32763 11.5613 4.28049 11.4837 4.24833C11.406 4.21617 11.3228 4.19962 11.2388 4.19962H4.19962C4.0299 4.19962 3.86713 4.26704 3.74713 4.38705C3.62712 4.50706 3.5597 4.66982 3.5597 4.83954C3.5597 5.00926 3.62712 5.17203 3.74713 5.29204C3.86713 5.41205 4.0299 5.47947 4.19962 5.47947H11.2388C11.3228 5.47947 11.406 5.46291 11.4837 5.43075C11.5613 5.3986 11.6319 5.35146 11.6913 5.29204C11.7507 5.23261 11.7978 5.16207 11.83 5.08443C11.8622 5.00679 11.8787 4.92358 11.8787 4.83954ZM10.2789 7.7192C10.2789 7.63516 10.2623 7.55195 10.2302 7.47431C10.198 7.39667 10.1509 7.32613 10.0915 7.2667C10.032 7.20728 9.9615 7.16015 9.88386 7.12799C9.80622 7.09583 9.72301 7.07927 9.63898 7.07927H4.19962C4.0299 7.07927 3.86713 7.1467 3.74713 7.2667C3.62712 7.38671 3.5597 7.54948 3.5597 7.7192C3.5597 7.88892 3.62712 8.05168 3.74713 8.17169C3.86713 8.2917 4.0299 8.35912 4.19962 8.35912H9.63898C9.80869 8.35912 9.97146 8.2917 10.0915 8.17169C10.2115 8.05168 10.2789 7.88892 10.2789 7.7192ZM4.19962 9.95893C4.0299 9.95893 3.86713 10.0264 3.74713 10.1464C3.62712 10.2664 3.5597 10.4291 3.5597 10.5989C3.5597 10.7686 3.62712 10.9313 3.74713 11.0513C3.86713 11.1714 4.0299 11.2388 4.19962 11.2388H8.35913C8.52885 11.2388 8.69161 11.1714 8.81162 11.0513C8.93163 10.9313 8.99905 10.7686 8.99905 10.5989C8.99905 10.4291 8.93163 10.2664 8.81162 10.1464C8.69161 10.0264 8.52885 9.95893 8.35913 9.95893H4.19962ZM16.9981 10.9188C17.0007 11.6962 16.7427 12.4521 16.2654 13.0658C16.1046 13.2733 15.9211 13.4622 15.7183 13.6289V16.3582C15.7184 16.463 15.6928 16.5662 15.6437 16.6589C15.5946 16.7515 15.5235 16.8306 15.4367 16.8893C15.3302 16.9593 15.2058 16.9971 15.0783 16.9981C14.9963 16.9972 14.9151 16.982 14.8384 16.9533L13.4785 16.4094L12.1187 16.9533C12.0214 16.9927 11.9159 17.0075 11.8115 16.9965C11.7072 16.9854 11.6071 16.9489 11.5202 16.8901C11.4333 16.8313 11.3621 16.7521 11.3131 16.6593C11.264 16.5665 11.2385 16.4631 11.2388 16.3582V13.6321C11.0375 13.4637 10.8541 13.275 10.6917 13.069C10.2147 12.4539 9.95687 11.6971 9.95894 10.9188C9.9596 10.0348 10.2914 9.18301 10.889 8.53151C11.4866 7.88002 12.3066 7.47604 13.1874 7.39924C13.6182 7.35995 14.0526 7.40339 14.4672 7.52722C15.1998 7.74164 15.8428 8.1884 16.2993 8.80016C16.7558 9.41192 17.0011 10.1555 16.9981 10.9188ZM14.4384 15.3983V14.2976C14.2522 14.353 14.0617 14.3926 13.8689 14.416C13.7394 14.4317 13.609 14.4392 13.4785 14.4384C13.3459 14.439 13.2134 14.4315 13.0818 14.416C12.891 14.3926 12.7026 14.353 12.5186 14.2976V15.3983L13.2385 15.1135C13.3925 15.0513 13.5646 15.0513 13.7185 15.1135L14.4384 15.3983ZM15.7183 10.9188C15.7191 10.4358 15.5637 9.96554 15.2754 9.57806C14.9871 9.19058 14.5813 8.90667 14.1184 8.76867C13.9108 8.70703 13.6951 8.67683 13.4785 8.67908H13.2897C12.729 8.72651 12.2067 8.98326 11.8267 9.39826C11.4467 9.81326 11.2368 10.3561 11.2388 10.9188C11.237 11.4137 11.4015 11.8949 11.7059 12.2851C11.8879 12.5257 12.1166 12.7272 12.3783 12.8773C12.64 13.0274 12.9293 13.123 13.229 13.1585C13.3924 13.181 13.5582 13.181 13.7217 13.1585C14.0794 13.1234 14.4227 12.9991 14.72 12.797C15.029 12.5912 15.282 12.3118 15.4563 11.984C15.6305 11.6561 15.7206 11.2901 15.7183 10.9188Z" fill="#333333"/>
</svg>
