<?xml version="1.0" standalone="no"?><!DOCTYPE svg PUBLIC "-//W3C//DTD SVG 1.1//EN" "http://www.w3.org/Graphics/SVG/1.1/DTD/svg11.dtd"><svg t="1598512010045" class="icon" viewBox="0 0 1024 1024" version="1.1" xmlns="http://www.w3.org/2000/svg" p-id="2133" xmlns:xlink="http://www.w3.org/1999/xlink" width="200" height="200"><defs><style type="text/css"></style></defs><path d="M870.4 596V468.8H544v-58.4h149.6c22.4 0 40-17.6 40-40v-264c0-22.4-17.6-40-40-40H330.4c-22.4 0-40 17.6-40 40v264c0 22.4 17.6 40 40 40H480v58.4H160v127.2h-45.6c-22.4 0-40 17.6-40 40v264c0 22.4 17.6 40 40 40h184c22.4 0 40-17.6 40-40v-264c0-22.4-17.6-40-40-40H224v-63.2h256v63.2h-48.8c-22.4 0-40 17.6-40 40v264c0 22.4 17.6 40 40 40h184c22.4 0 40-17.6 40-40v-264c0-22.4-17.6-40-40-40H544v-63.2h262.4v63.2h-58.4c-22.4 0-40 17.6-40 40v264c0 22.4 17.6 40 40 40h184c22.4 0 40-17.6 40-40v-264c0-22.4-17.6-40-40-40h-61.6z m-200-443.2v170.4c0 12.8-10.4 23.2-23.2 23.2H376.8c-12.8 0-23.2-10.4-23.2-23.2V152.8c0-12.8 10.4-23.2 23.2-23.2h270.4c12.8 0.8 23.2 10.4 23.2 23.2z m-215.2 700V682.4c0-12.8 10.4-23.2 23.2-23.2H568c12.8 0 23.2 10.4 23.2 23.2v170.4c0 12.8-10.4 23.2-23.2 23.2H477.6c-12.8 0-22.4-10.4-22.4-23.2z m-316.8 0V682.4c0-12.8 10.4-23.2 23.2-23.2h90.4c12.8 0 23.2 10.4 23.2 23.2v170.4c0 12.8-10.4 23.2-23.2 23.2H160.8c-12 0-22.4-10.4-22.4-23.2z m633.6 0V682.4c0-12.8 10.4-23.2 23.2-23.2h90.4c12.8 0 23.2 10.4 23.2 23.2v170.4c0 12.8-10.4 23.2-23.2 23.2H794.4c-12.8 0-22.4-10.4-22.4-23.2z" p-id="2134"></path></svg>