<?xml version="1.0" standalone="no"?><!DOCTYPE svg PUBLIC "-//W3C//DTD SVG 1.1//EN" "http://www.w3.org/Graphics/SVG/1.1/DTD/svg11.dtd"><svg t="1587028520315" class="icon" viewBox="0 0 1024 1024" version="1.1" xmlns="http://www.w3.org/2000/svg" p-id="3355" xmlns:xlink="http://www.w3.org/1999/xlink" width="200" height="200"><defs><style type="text/css"></style></defs><path d="M554.030224 561.912781v-88.99153h133.668172a39.177979 39.177979 0 1 0 0-78.319782H571.720004l116.376322-111.347939a37.513909 37.513909 0 0 0 0-54.950462 41.022925 41.022925 0 0 0-57.41039 0l-116.448673 111.311764L398.077993 228.483945a42.216714 42.216714 0 0 0-57.591267 0 37.658611 37.658611 0 0 0 0 54.950462l116.448674 111.347939H339.546165a39.177979 39.177979 0 1 0 0 78.138905h133.84905v88.99153h-133.84905a39.141803 39.141803 0 1 0 0 78.102729h133.84905v112.143799a41.022925 41.022925 0 0 0 82.04585 0v-112.324676h133.84905a39.177979 39.177979 0 1 0 0-78.138905zM172.849835 99.3377L408.424163 15.266027a358.643102 358.643102 0 0 1 207.104273 0l235.610503 84.071673a168.939206 168.939206 0 0 1 103.931978 148.319217v348.550161c0 228.628647-311.651233 378.937512-412.399775 421.588331a79.296518 79.296518 0 0 1-61.498212 0C380.749968 974.240205 68.881682 823.93134 68.881682 595.338868V246.752532a167.709242 167.709242 0 0 1 103.968153-147.414832z" p-id="3356"></path></svg>