<?xml version="1.0" standalone="no"?><!DOCTYPE svg PUBLIC "-//W3C//DTD SVG 1.1//EN" "http://www.w3.org/Graphics/SVG/1.1/DTD/svg11.dtd"><svg t="1587520956733" class="icon" viewBox="0 0 1024 1024" version="1.1" xmlns="http://www.w3.org/2000/svg" p-id="8023" xmlns:xlink="http://www.w3.org/1999/xlink" width="200" height="200"><defs><style type="text/css"></style></defs><path d="M298.634907 861.53959h420.527628c13.658632 0 24.736176 11.101025 24.736176 24.756044 0 13.709206-11.07935 24.718113-24.736176 24.718114H298.634907c-13.656825 0-24.727144-11.008908-24.727144-24.718114-0.001806-13.655019 11.070319-24.756044 24.727144-24.756044M867.548883 119.553666H150.259397c-54.629108 0-98.910384 44.290307-98.910384 98.910384v469.992754c0 54.620077 44.281276 98.910384 98.910384 98.910384h717.287679c54.616464 0 98.910384-44.290307 98.910384-98.910384V218.46405c0-54.620077-44.292114-98.910384-98.908577-98.910384M150.259397 168.991699h717.287679c27.273914 0 49.43442 22.270686 49.434421 49.472351v371.010121H100.805108V218.46405c0-27.201665 22.162313-49.472351 49.454289-49.472351M867.548883 737.894837H150.259397c-27.291976 0-49.454289-22.164119-49.454289-49.438033v-74.208526h816.178195v74.208526c0 27.27572-22.162313 49.438033-49.43442 49.438033" p-id="8024"></path><path d="M508.940264 638.984453c20.430148 0 37.031111 16.570257 37.031112 37.05098 0 20.518653-16.600963 37.157547-37.031112 37.157547-20.500591 0-37.141291-16.638894-37.141291-37.157547 0-20.482529 16.638894-37.05098 37.141291-37.05098" p-id="8025"></path></svg>