<svg width="18" height="18" viewBox="0 0 18 18"  xmlns="http://www.w3.org/2000/svg">
<path d="M7.96927 9.9894L2.00469 6.54565C1.94635 6.51232 1.8901 6.49565 1.84219 6.49565C1.74427 6.49565 1.67969 6.56232 1.67969 6.68315V12.8644C1.67969 13.0436 1.82552 13.2748 2.00469 13.3769L7.96927 16.8207C8.0276 16.854 8.08385 16.8707 8.13177 16.8707C8.22969 16.8707 8.29427 16.804 8.29427 16.6832V10.5019C8.29427 10.3227 8.14844 10.0936 7.96927 9.9894ZM6.96094 14.6998L3.01302 12.4186V8.66649L6.96094 10.9457V14.6998ZM16.1755 6.49565C16.1276 6.49565 16.0714 6.51232 16.013 6.54565L10.0484 9.9894C9.86927 10.0936 9.72344 10.3227 9.72344 10.5019V16.6832C9.72344 16.804 9.78802 16.8707 9.88594 16.8707C9.93385 16.8707 9.9901 16.854 10.0484 16.8207L16.013 13.3769C16.1922 13.2727 16.338 13.0436 16.338 12.8644V6.68315C16.3401 6.56232 16.2734 6.49565 16.1755 6.49565ZM15.0068 12.4186L11.0568 14.6998V10.9477L15.0068 8.66649V12.4186ZM15.6318 4.83315L9.27344 1.16857C9.20469 1.12899 9.11302 1.10815 9.02135 1.10815C8.92969 1.10815 8.83802 1.12899 8.76927 1.16857L2.41302 4.83315C2.27344 4.9144 2.27344 5.04357 2.41302 5.12482L8.76927 8.7894C8.83802 8.82899 8.92969 8.84982 9.02135 8.84982C9.11302 8.84982 9.20469 8.82899 9.27344 8.7894L15.6318 5.12482C15.7714 5.04357 15.7714 4.9144 15.6318 4.83315ZM9.02135 7.39565L4.83177 4.97899L9.02135 2.56232L13.213 4.97899L9.02135 7.39565Z" fill="#333333"/>
</svg>
