<?xml version="1.0" standalone="no"?><!DOCTYPE svg PUBLIC "-//W3C//DTD SVG 1.1//EN" "http://www.w3.org/Graphics/SVG/1.1/DTD/svg11.dtd"><svg t="1593590111001" class="icon" viewBox="0 0 1024 1024" version="1.1" xmlns="http://www.w3.org/2000/svg" p-id="9203" xmlns:xlink="http://www.w3.org/1999/xlink" width="220" height="220"><defs><style type="text/css"></style></defs><path d="M908.27701 500.363636v52.838142l-6.604283 4.402424c-1.475232 13.209859-2.928485 26.418424-4.402424 39.628283-8.036848 23.798949-16.336162 49.424808-26.418424 72.65099-6.321131 14.528646-18.164364 29.213737-26.42101 41.830141-1.475232 4.402424-2.928485 8.807434-4.402425 13.209859-3.634424 5.504-11.558788 10.124929-15.410424 15.410424-28.028121 38.262949-61.358545 70.803394-101.272565 96.870141-4.403717 1.475232-8.806141 2.927192-13.209859 4.402425-7.726545 4.755394-18.007919 14.15499-26.419717 17.613575-23.952808 9.859879-48.279273 18.338909-72.65099 26.418425-11.734626 1.475232-23.491232 2.928485-35.224566 4.402424-0.727919 2.201859-1.475232 4.403717-2.201858 6.604283h-123.288566c-0.727919-2.200566-1.475232-4.402424-2.201859-6.604283-8.807434-0.726626-17.613576-1.475232-26.419717-2.200566-6.274586-1.76097-16.665859-6.848646-22.016-8.807434-15.124687-5.549253-27.21099-5.086384-41.830141-11.008-8.696242-3.523232-20.342949-13.297778-28.620283-17.613576-5.701818-2.994424-10.304646-1.276121-15.410424-4.402424-66.509576-40.728566-114.98796-92.046222-151.908849-162.916849-4.424404-8.498424-14.046384-19.461172-17.612283-28.618989-7.376162-18.978909-9.115152-35.029333-15.411717-55.04-2.597495-8.256646-3.258182-24.459636-6.604283-33.024L115.711354 562.007919v-81.458424-41.830141c2.201859-0.726626 4.402424-1.475232 6.604282-2.201859 0.726626-8.807434 1.475232-17.613576 2.201859-26.419717 5.549253-20.01196 11.536808-42.247758 19.814141-61.644283 24.10796-56.46998 72.497131-124.586667 118.884849-158.513131 35.334465-25.846949 77.362424-49.512727 121.085414-66.046707 14.487273-5.483313 69.328162-9.928404 74.854141-19.814142h105.673697l4.403718 6.604283c13.209859 1.475232 26.418424 2.928485 39.628282 4.403717 13.010747 4.556283 31.569455 12.812929 44.030707 17.612283h8.807435c3.567192 1.475232 7.440808 7.330909 11.008 8.806141h8.807434c8.344566 3.47798 18.713859 13.318465 26.419717 17.612283 3.675798 0.727919 7.330909 1.475232 11.006707 2.201859 2.201859 2.928485 4.403717 5.877657 6.605576 8.806141 75.557495 45.549899 118.42198 103.716202 154.109414 189.335273 5.46004 13.09996 13.187879 31.834505 17.612283 46.232566 1.475232 13.208566 2.928485 26.419717 4.402424 39.628282 2.201859 0.726626 4.403717 1.475232 6.604283 2.201859L908.27701 500.363636z m-114.482424 116.68299c27.54198-59.618263 26.969212-157.697293 2.201858-217.955555-0.727919-5.130343-1.475232-10.281374-2.201858-15.410425-48.258586-103.694222-142.748444-187.178667-295.010263-187.133414-7.065859 4.800646-20.693333-0.307717-30.820848 2.201859-23.998061 5.965576-50.262626 10.347313-72.652283 19.814141-82.845737 35.004768-139.491556 101.162667-173.924849 184.932849-16.402101 39.91402-18.56 124.015192-4.402424 167.319273 6.560323 20.077899 6.736162 37.382465 15.410424 55.038707 33.024 67.277576 86.720646 121.240566 154.110708 154.109414 6.604283 1.475232 13.208566 2.928485 19.814141 4.402424 2.113939 0.902465 6.692202 5.723798 8.807434 6.604283 18.403556 7.57398 96.230141 20.209778 125.489132 13.209858 30.889374-7.398141 64.571475-9.072485 90.263272-22.016 72.98198-36.765737 128.241778-90.108121 162.915556-165.117414z" fill="#FF0000" p-id="9204"></path><path d="M635.281455 344.052364c11.514828 17.414465 24.679434 45.549899 17.612282 74.854141v19.814141c-7.22101 21.509172-26.859313 49.975596-44.030707 61.644283-15.369051 10.436525-38.397414 17.634263-48.435717 33.022707-12.616404 19.353859-5.767758 56.824242-11.008 83.660283h-4.402424c-7.663192 5.836283-60.719838 2.466909-66.046707-2.200565-6.075475-8.167434-2.201859-33.265778-2.201859-50.636283v-55.04c11.160566-32.956768 48.391758-47.794424 74.854142-66.046707 5.877657-6.604283 11.733333-13.208566 17.612282-19.814142 0.439596-8.652283 3.280162-12.637091 4.402425-17.612283-2.201859-9.534061-4.402424-19.087515-6.60299-28.620282-9.26901-5.965576-17.459717-15.981899-28.621576-19.814142-42.358949-14.551919-78.838949 10.083556-90.264566 35.225859-4.050747 8.91604-4.645495 44.251798-6.604282 55.038707h-11.008c-3.060364 1.696323-54.335354 0.902465-59.442425 0v-4.403717c-8.652283-12.087596-0.991677-50.989253 2.200566-61.644283 11.426909-37.999192 30.382545-70.60299 61.644283-88.062707 13.495596-7.552 39.034828-8.850101 50.637576-17.612283 82.954343-0.925737 117.145859 18.953051 149.705697 68.247273zM549.420606 667.682909c8.716929 9.777131 2.620768 28.928 0 39.628283-10.65503 7.222303-29.809778 30.359273-48.434424 15.410424-27.432081-6.891313-38.593939-60.873697-6.604283-70.450424 3.43402-2.85996 9.818505-3.675798 13.208566-6.60299 9.534061 1.475232 19.088808 2.928485 28.621575 4.402424 4.361051 6.803394 10.436525 9.049212 13.208566 17.612283z" fill="#FF0000" p-id="9205"></path></svg>
