<?xml version="1.0" standalone="no"?><!DOCTYPE svg PUBLIC "-//W3C//DTD SVG 1.1//EN" "http://www.w3.org/Graphics/SVG/1.1/DTD/svg11.dtd"><svg t="1589444101604" class="icon" viewBox="0 0 1024 1024" version="1.1" xmlns="http://www.w3.org/2000/svg" p-id="2893" xmlns:xlink="http://www.w3.org/1999/xlink" width="200" height="200"><defs><style type="text/css"></style></defs><path d="M484.441122 134.687881c-37.444349 2.142338-71.442327 9.500805-106.185466 23.006851-42.474186 16.486691-81.222567 41.915316-112.891917 73.957246-13.599191 13.785482-18.815319 19.746771-27.664108 31.483059-33.252817 43.964509-52.068137 92.399985-57.004829 146.703605-1.210887 13.506046-0.745161 39.866122 1.024597 54.48991 8.196773 68.275392 39.866122 128.354011 93.145146 176.975777 17.418142 15.834675 36.419752 30.272172 55.235071 41.82217 3.912096 2.514919 7.172176 4.936693 7.172176 5.495564 0 0.465726-6.892741 23.658867-15.275804 51.322975-8.476208 27.757253-15.555239 51.788701-15.92782 53.372169-0.372581 1.769758 0 5.122983 0.838306 8.010483 1.862903 6.33387 7.358467 11.643143 14.996368 14.530643 12.015724 4.470967 37.071768 4.470967 58.215716-0.093145 22.820561-4.843548 49.739508-16.579836 71.442327-31.110479 18.535884-12.48145 22.63427-17.231852 22.63427-26.639512 0-6.240725-2.514919-10.618547-7.172176-12.574595-6.427015-2.701209-13.878627 0.279435-30.272172 12.108869-18.349594 13.226611-43.964509 24.590318-65.015312 28.96814-12.202014 2.514919-32.600801 4.284677-32.600801 2.8875 0-0.279435 6.985886-23.845157 15.462094-52.347572 17.045562-57.5637 17.045562-57.470555 12.108869-65.853618-2.514919-4.284677-3.632661-5.122983-22.63427-16.300401-58.122571-34.277414-102.552806-89.139905-122.206431-150.42941-8.289918-25.801205-11.549998-47.131444-11.549998-75.074988-0.093145-20.491932 1.210887-32.693946 5.495564-51.881846 19.839916-89.326195 93.145146-166.17094 188.525775-197.747145 32.507656-10.711692 61.475796-15.275804 96.870952-15.182659 29.340721 0 48.994347 2.608064 76.56531 10.059676 34.92943 9.500805 73.30523 28.874995 101.341919 51.322975 11.549998 9.314515 32.600801 30.085882 41.63588 41.356445 30.737898 38.003219 49.180637 80.01168 56.725394 129.471753 2.142338 13.506046 2.421774 52.627007 0.558871 66.133054-6.70645 47.410879-25.056044 90.350791-54.769346 127.60885-8.848789 10.991127-30.644753 32.693946-42.287896 41.915316-47.224589 37.537494-104.229418 59.054022-167.661262 63.338699-16.11411 1.024597-19.094755 2.049193-23.658867 7.731047-2.608064 3.26008-2.8875 4.191532-2.8875 10.432256 0 6.52016 0.18629 7.079031 3.166935 10.152821 1.676613 1.769758 5.309273 4.191532 7.917337 5.309273 4.098386 1.862903 6.14758 2.142338 14.437498 1.956048 12.48145-0.18629 32.600801-2.421774 48.062895-5.402418 74.981842-14.344352 142.046347-54.955636 187.594324-113.543933 31.948785-41.077009 51.41612-86.997566 59.426603-140.64917 2.049193-14.064917 2.328629-60.078619 0.465726-74.050391-12.202014-88.487889-59.892329-163.376586-135.153607-212.557223-40.238703-26.173786-87.463292-43.126203-136.085058-48.621766-12.85403-1.490322-41.2633-2.514919-52.161282-1.862903z" p-id="2894"></path><path d="M621.271342 314.271722c-23.286286 4.936693-44.057654 21.609674-53.558459 43.126203-5.681854 12.760885-8.010483 31.762495-4.750402 38.18951 4.564112 8.755644 17.045562 10.991127 24.124593 4.284677 4.098386-3.818951 5.309273-6.799596 5.961289-14.437498 2.142338-23.472577 19.37419-39.866122 41.82217-39.866122 24.590318 0 44.430235 23.565722 40.704429 48.435476-1.862903 12.66774-4.843548 17.138707-23.193141 34.92943-17.604433 17.045562-22.820561 23.472577-27.664108 34.184269-3.818951 8.289918-5.122983 13.692336-5.774999 22.913706-0.465726 6.240725-0.279435 7.731047 1.676613 11.270563 1.210887 2.328629 3.26008 4.936693 4.564112 5.961289 4.936693 3.632661 13.506046 3.632661 18.349594 0 4.470967-3.353225 5.774999-6.14758 7.079031-14.996368 2.142338-13.878627 3.818951-16.579836 24.869754-37.444349 13.878627-13.785482 19.1879-19.746771 22.0754-24.683464 21.795964-37.537494 7.544757-85.600389-31.017334-104.788289-5.122983-2.608064-11.829434-5.309273-14.903223-6.14758-7.824192-2.049193-22.820561-2.514919-30.365318-0.931451z" p-id="2895"></path><path d="M316.034699 329.733816c-9.40766 4.284677-10.152821 18.908465-1.210887 24.869754l3.166935 2.142338 97.709258 0c85.507244 0 98.174984-0.18629 100.783048-1.397177 8.662499-4.098386 8.755644-18.722174 0.279435-25.056044-2.608064-1.956048-2.701209-1.956048-99.665306-2.142338-94.542323-0.279435-97.150387-0.18629-101.062483 1.583467z" p-id="2896"></path><path d="M316.034699 434.05638c-3.166935 1.397177-4.377822 2.701209-5.961289 6.14758-3.26008 7.451612-1.210887 15.182659 5.122983 19.094755 2.8875 1.769758 5.122983 1.769758 101.90079 1.583467l99.01329-0.279435 2.794354-2.8875c6.892741-6.892741 4.843548-19.467335-3.818951-23.845157-2.980645-1.583467-9.59395-1.676613-99.106435-1.676613-93.052001 0-96.032645 0.093145-99.944741 1.862903z" p-id="2897"></path><path d="M625.462873 521.053946c-13.226611 6.14758-16.486691 24.031448-6.33387 34.463704 4.936693 5.122983 8.383063 6.52016 15.275804 6.52016 12.947175 0 21.423384-8.848789 21.423384-22.26169-0.093145-15.462094-16.11411-25.33548-30.365318-18.722174z" p-id="2898"></path><path d="M317.338731 537.447491c-3.725806 1.117742-5.868144 3.353225-7.637902 8.010483-1.862903 4.936693-1.210887 11.177417 1.676613 14.903223 4.191532 5.216128-0.093145 5.029838 105.254015 5.029838 94.635468 0 97.243532-0.093145 100.131032-1.862903 4.470967-2.701209 6.14758-5.868144 6.14758-11.643143 0-5.588709-2.049193-9.873385-6.14758-12.947175l-2.608064-1.956048-97.057242-0.18629c-53.372169-0.093145-98.268129 0.18629-99.758451 0.652016z" p-id="2899"></path></svg>