<?xml version="1.0" standalone="no"?><!DOCTYPE svg PUBLIC "-//W3C//DTD SVG 1.1//EN" "http://www.w3.org/Graphics/SVG/1.1/DTD/svg11.dtd"><svg t="1590655205021" class="icon" viewBox="0 0 1024 1024" version="1.1" xmlns="http://www.w3.org/2000/svg" p-id="2600" xmlns:xlink="http://www.w3.org/1999/xlink" width="200" height="200"><defs><style type="text/css"></style></defs><path d="M927.536 428.164l-0.016-0.02c-17.781-28.595-48.783-46.952-80.946-47.912l-217.996-1.035 2.714-7.916a375.275 375.275 0 0 0 20.734-123.142c0-21.336-1.901-42.67-5.788-65.236l-3.836-16.548c-10.554-45.732-50.667-77.673-97.586-77.673-55.266 0-100.228 44.986-100.228 100.286 0 3.148 0.118 6.262 0.405 8.823-3.004 109.933-131.346 217.866-176.497 217.866l-155.917 0.071c-17.074 0-30.951 13.897-30.951 31.011l-0.384 436.147c0 16.78 14.85 29.845 34.527 30.408l134.95-0.273 5.258 0.883 3.639-0.51 515.088 0.136c16.805-1.194 33.36-6.584 47.47-15.575 14.828-9.519 27.628-23.26 33.382-35.817l6.642-11.084c35.476-84.662 79.199-348.829 79.619-351.445l0.628-9.886c1.675-21.95-3.476-43.216-14.911-61.56z m-698.81 434.142l-96.358 0.32 0.33-395.526 96.028-0.135v395.341z m662.829-371.769l-0.243 1.604c-7.447 44.073-46.128 267.346-74.647 336.058l-0.458 0.9-3.977 6.314c-3.748 7.653-9.935 14.59-17.588 19.494-6.648 4.242-14.747 7.057-21.649 7.55L279.8 862.27V464.693l4.821-0.949c81.067-15.788 208.01-142.37 211.42-268.513l-0.374-5.922c-0.009-27.486 22.04-49.564 49.152-49.564 23.007 0 42.675 15.666 47.863 38.104l3.518 14.972c3.184 18.614 4.755 37.057 4.755 55.193 0 36.527-6.102 72.529-18.165 106.987l-26.22 75.172 278.586 0.06 7.416 0.73c16.856 0.603 32.562 9.672 41.61 24.213 5.872 9.451 8.137 20.36 7.374 35.361z" fill="" p-id="2601"></path></svg>