<?xml version="1.0" standalone="no"?><!DOCTYPE svg PUBLIC "-//W3C//DTD SVG 1.1//EN" "http://www.w3.org/Graphics/SVG/1.1/DTD/svg11.dtd"><svg t="1597480467528" class="icon" viewBox="0 0 1024 1024" version="1.1" xmlns="http://www.w3.org/2000/svg" p-id="11050" xmlns:xlink="http://www.w3.org/1999/xlink" width="200" height="200"><defs><style type="text/css"></style></defs><path d="M838.4 921.6H185.6c-44.8 0-83.2-38.4-83.2-83.2L73.6 544c0-48 38.4-86.4 83.2-86.4h710.4c44.8 0 83.2 38.4 83.2 83.2l-28.8 297.6c0 44.8-38.4 83.2-83.2 83.2z m-681.6-416c-19.2 0-35.2 16-35.2 35.2l28.8 294.4c0 22.4 16 38.4 35.2 38.4h649.6c19.2 0 35.2-16 35.2-35.2l28.8-297.6c0-16-16-32-35.2-32H156.8z" p-id="11051"></path><path d="M128 505.6c-16 0-25.6-12.8-22.4-25.6l28.8-294.4c0-44.8 38.4-80 83.2-80h592c44.8 0 83.2 35.2 83.2 80l28.8 176c3.2 12.8-6.4 25.6-19.2 28.8-12.8 3.2-25.6-6.4-28.8-19.2l-28.8-182.4c0-19.2-16-35.2-35.2-35.2H217.6c-19.2 0-35.2 16-35.2 35.2l-28.8 297.6c-3.2 9.6-12.8 19.2-25.6 19.2zM630.4 803.2h-265.6c-12.8 0-25.6-9.6-25.6-25.6s9.6-25.6 25.6-25.6h265.6c12.8 0 25.6 9.6 25.6 25.6s-12.8 25.6-25.6 25.6z" p-id="11052"></path><path d="M720 387.2H275.2c-12.8 0-25.6-9.6-25.6-25.6s9.6-25.6 25.6-25.6h441.6c12.8 0 25.6 9.6 25.6 25.6s-9.6 25.6-22.4 25.6zM630.4 268.8h-265.6c-12.8 0-25.6-9.6-25.6-25.6s9.6-25.6 25.6-25.6h265.6c12.8 0 25.6 9.6 25.6 25.6s-12.8 25.6-25.6 25.6z" p-id="11053"></path></svg>