<svg t="1587522308715" class="icon" viewBox="0 0 1024 1024" version="1.1" xmlns="http://www.w3.org/2000/svg" p-id="24768" width="200" height="200"><path d="M900.578462 688.167385l2.087384-0.315077a50.491077 50.491077 0 1 1 50.412308 87.236923l-380.297846 219.372307-42.417231 22.685539a50.372923 50.372923 0 0 1-50.412308 0l-39.345231-22.212923-380.258461-219.372308a50.412308 50.412308 0 1 1 50.530461-87.355077l382.306462 219.805539a24.930462 24.930462 0 0 0 25.206154 0l382.227692-219.844923z m0-252.219077l0.590769-0.354462a50.491077 50.491077 0 1 1 50.412307 87.236923l-380.297846 219.372308-41.353846 23.158154a50.372923 50.372923 0 0 1-50.412308 0l-38.912-22.685539-380.258461-219.372307a50.530462 50.530462 0 0 1-19.140923-71.837539 50.530462 50.530462 0 0 1 69.632-15.517538l382.345846 219.963077a24.930462 24.930462 0 0 0 25.206154 0l382.227692-219.963077z m85.779692-210.313846c29.184 14.611692 29.184 38.912-0.472616 52.932923l-428.150153 214.370461a135.128615 135.128615 0 0 1-106.968616 0L22.577231 279.158154c-29.735385-14.572308-29.735385-38.912 0-53.484308L450.806154 11.303385a135.128615 135.128615 0 0 1 106.968615 0L986.358154 225.673846z" p-id="24769"></path></svg>
