<svg t="1592634347405" class="icon" viewBox="0 0 1024 1024" version="1.1" xmlns="http://www.w3.org/2000/svg" p-id="11103" width="200" height="200"><path d="M511.620741 993.848889c-65.042963 0-128.18963-12.705185-187.638519-37.925926-57.362963-24.272593-108.942222-58.974815-153.220741-103.253333s-78.980741-95.762963-103.253333-153.220741c-25.125926-59.448889-37.925926-122.595556-37.925926-187.638519s12.705185-128.18963 37.925926-187.638518c24.272593-57.362963 58.974815-108.942222 103.253333-153.220741 44.278519-44.278519 95.762963-78.980741 153.220741-103.253333 59.448889-25.125926 122.595556-37.925926 187.638519-37.925926s128.18963 12.705185 187.638518 37.925926C756.622222 92.16 808.106667 126.862222 852.385185 171.140741c44.278519 44.278519 78.980741 95.762963 103.253334 153.22074 25.125926 59.448889 37.925926 122.595556 37.925925 187.638519s-12.705185 128.18963-37.925925 187.638519c-24.272593 57.362963-58.974815 108.942222-103.253334 153.22074s-95.762963 78.980741-153.220741 103.253334c-59.354074 24.936296-122.500741 37.736296-187.543703 37.736296z m0-900.740741C280.746667 93.108148 92.918519 281.031111 92.918519 511.905185s187.828148 418.702222 418.702222 418.702222c230.874074 0 418.702222-187.828148 418.702222-418.702222S742.494815 93.108148 511.620741 93.108148z" p-id="11104"></path><path d="M698.595556 715.188148c-8.059259 0-16.213333-3.128889-22.376297-9.291852L489.244444 519.016296c-5.878519-5.878519-9.291852-13.937778-9.291851-22.376296v-256c0-17.445926 14.127407-31.573333 31.573333-31.573333s31.573333 14.127407 31.573333 31.573333V483.555556l177.682963 177.682963c12.325926 12.325926 12.325926 32.331852 0 44.657777-6.068148 6.257778-14.127407 9.291852-22.186666 9.291852z" p-id="11105"></path></svg>
