<svg width="18" height="18" viewBox="0 0 18 18"  xmlns="http://www.w3.org/2000/svg">
<g clip-path="url(#clip0_7492_114239)">
<path d="M8.56272 7.8584C10.6627 9.2984 11.5342 10.0094 11.7997 10.6851C14.9145 9.67415 16.4047 9.3329 16.9942 9.6059C18.1867 10.1594 18.4132 12.2294 17.1742 13.3236C16.1572 14.2229 11.3175 16.5239 10.3132 16.6199C9.76722 16.6724 8.78022 16.3971 7.19847 15.8399C7.04097 15.7836 6.87822 15.7259 6.71097 15.6651C6.35489 15.5356 5.99964 15.4039 5.64522 15.2699L4.79247 14.9474C4.07772 14.6774 2.75697 14.6774 0.877465 14.9856C0.683547 15.0127 0.486723 14.9629 0.329044 14.8468C0.171365 14.7308 0.0653338 14.5576 0.0336049 14.3644C0.001876 14.1712 0.0469649 13.9732 0.159238 13.8128C0.271512 13.6524 0.442067 13.5422 0.634465 13.5059C2.75322 13.1579 4.30047 13.1579 5.32197 13.5434C5.38272 13.5666 5.97147 13.7901 6.17397 13.8659C6.68002 14.0568 7.18779 14.243 7.69722 14.4246C8.98872 14.8799 9.94947 15.1484 10.1707 15.1266C10.8397 15.0629 15.39 12.8991 16.1812 12.1994C16.59 11.8394 16.5577 11.1831 16.4092 11.0046C16.3477 11.0085 16.2864 11.0147 16.2255 11.0234C15.978 11.0571 15.6307 11.1306 15.189 11.2431C14.3437 11.4584 13.1715 11.8116 11.6775 12.3029C11.4135 12.7679 10.9252 13.0994 10.2007 13.1489C9.14772 13.2209 7.28997 12.6216 6.54072 12.0614C6.38149 11.942 6.27619 11.7643 6.24799 11.5674C6.21979 11.3704 6.27099 11.1703 6.39034 11.011C6.50969 10.8518 6.6874 10.7465 6.88438 10.7183C7.08137 10.6901 7.28149 10.7413 7.44072 10.8606C7.91097 11.2131 9.41772 11.6984 10.0987 11.6526C10.2082 11.6451 10.2862 11.6204 10.3365 11.5769C10.3491 11.4994 10.3747 11.4246 10.4122 11.3556C10.4122 11.3121 10.4062 11.2626 10.3965 11.2064C10.4002 11.2274 10.3867 11.2019 10.3372 11.1404C10.2045 10.9835 10.0582 10.8387 9.89997 10.7076C9.46272 10.3296 8.77122 9.8204 7.71447 9.0959C6.18297 8.0459 5.37072 7.8719 4.86897 8.0624C4.65297 8.1449 3.33897 9.0164 1.18647 10.5269C1.10586 10.5838 1.01483 10.6242 0.918569 10.6459C0.822312 10.6676 0.722727 10.67 0.625519 10.6531C0.52831 10.6362 0.43539 10.6003 0.352081 10.5475C0.268772 10.4946 0.196712 10.4258 0.140029 10.3451C0.083346 10.2643 0.0431543 10.1732 0.0217565 10.0769C0.000358785 9.98054 -0.00182449 9.88095 0.0153318 9.78379C0.0324881 9.68663 0.0686468 9.59381 0.121736 9.51064C0.174826 9.42748 0.243803 9.35561 0.324715 9.29915C2.68722 7.64165 3.93672 6.81215 4.33572 6.6599C5.35347 6.27365 6.65922 6.5549 8.56272 7.8584Z" />
<path d="M11.2578 4.625C11.2578 4.92337 11.3763 5.20952 11.5873 5.42049C11.7983 5.63147 12.0844 5.75 12.3828 5.75C12.6812 5.75 12.9673 5.63147 13.1783 5.42049C13.3893 5.20952 13.5078 4.92337 13.5078 4.625C13.5078 4.32663 13.3893 4.04048 13.1783 3.82951C12.9673 3.61853 12.6812 3.5 12.3828 3.5C12.0844 3.5 11.7983 3.61853 11.5873 3.82951C11.3763 4.04048 11.2578 4.32663 11.2578 4.625Z" />
<path d="M14.5021 8.29862L16.6231 4.62587L14.5021 0.953125H10.2616L8.14062 4.62587L10.2616 8.29862H14.5021ZM14.8906 4.62587L13.6366 6.79862H11.1279L9.87388 4.62587L11.1279 2.45237H13.6366L14.8906 4.62587Z" />
</g>
<defs>
<clipPath id="clip0_7492_114239">
<rect width="18" height="18" />
</clipPath>
</defs>
</svg>
