<?xml version="1.0" standalone="no"?><!DOCTYPE svg PUBLIC "-//W3C//DTD SVG 1.1//EN" "http://www.w3.org/Graphics/SVG/1.1/DTD/svg11.dtd"><svg t="1597481140152" class="icon" viewBox="0 0 1024 1024" version="1.1" xmlns="http://www.w3.org/2000/svg" p-id="13515" xmlns:xlink="http://www.w3.org/1999/xlink" width="200" height="200"><defs><style type="text/css"></style></defs><path d="M933.390192 512c0-60.042644 37.663113-110.80597 90.063966-131.002132-12.554371-49.1258-32.204691-96.06823-57.313433-138.643923-51.855011 22.925373-114.081023 13.646055-156.110874-28.929638-42.029851-42.029851-51.855011-104.801706-28.929638-156.110874-42.575693-25.108742-89.518124-44.759062-138.643923-57.313433-20.196162 52.400853-70.959488 90.063966-131.002132 90.063966S400.648188 52.400853 380.452026 0c-49.1258 12.554371-96.06823 32.204691-138.643924 57.313433 22.925373 51.855011 13.646055 114.081023-28.929637 156.110874s-103.710021 51.855011-155.565032 28.929638C32.204691 284.929638 12.554371 331.326226 0 380.997868c52.400853 20.196162 90.063966 70.959488 90.063966 131.002132s-37.663113 110.80597-90.063966 131.002132c12.554371 49.1258 32.204691 96.06823 57.313433 138.643923 51.855011-22.925373 114.081023-13.646055 156.110874 28.929638 42.029851 42.029851 51.855011 104.801706 28.929638 156.110874 42.575693 25.108742 89.518124 44.759062 138.643923 57.313433 20.196162-52.400853 70.959488-90.063966 131.002132-90.063966s110.80597 37.663113 131.002132 90.063966c49.1258-12.554371 96.06823-32.204691 138.643923-57.313433-22.925373-51.855011-13.646055-114.081023 28.929638-156.110874 42.029851-42.029851 104.801706-51.855011 156.110874-28.929638 25.654584-42.575693 44.759062-88.972281 57.313433-138.643923-52.946695-20.742004-90.609808-71.50533-90.609808-131.002132z m-421.390192 140.28145C433.944563 652.28145 371.172708 589.509595 371.172708 512S433.944563 371.172708 512 371.172708s140.28145 62.771855 140.28145 140.28145-62.771855 140.827292-140.28145 140.827292z" p-id="13516"></path></svg>