<?xml version="1.0" standalone="no"?><!DOCTYPE svg PUBLIC "-//W3C//DTD SVG 1.1//EN" "http://www.w3.org/Graphics/SVG/1.1/DTD/svg11.dtd"><svg t="1595056423081" class="icon" viewBox="0 0 1095 1024" version="1.1" xmlns="http://www.w3.org/2000/svg" p-id="2483" xmlns:xlink="http://www.w3.org/1999/xlink" width="235.25390625" height="220"><defs><style type="text/css"></style></defs><path d="M884.540148 602.352845a210.768736 210.768736 0 0 0-175.722752 94.514637L487.534864 585.92504a249.319318 249.319318 0 0 0-3.559357-158.473558L744.903807 301.943053a182.786709 182.786709 0 1 0-32.85561-57.059242l-258.737926 124.303723a249.15504 249.15504 0 1 0 6.187806 276.370437l221.939644 111.10672A210.823496 210.823496 0 1 0 884.540148 602.352845z m0-536.641626A117.732601 117.732601 0 1 1 766.807547 183.443821 117.84212 117.84212 0 0 1 884.540148 65.711219z m-635.208454 629.73252A183.443821 183.443821 0 1 1 432.775515 511.999918 183.662858 183.662858 0 0 1 249.331694 695.443739z m635.208454 262.844877a145.112276 145.112276 0 1 1 145.112276-145.112276 145.276554 145.276554 0 0 1-145.112276 145.112276z" p-id="2484"></path></svg>
