<svg width="18" height="18" viewBox="0 0 18 18"  xmlns="http://www.w3.org/2000/svg">
<path d="M14.2986 16.8292H3.74203C2.99672 16.8292 2.39062 16.2231 2.39062 15.4785V8.61375C2.39062 8.25076 2.68436 7.95703 3.04734 7.95703C3.41033 7.95703 3.70406 8.25076 3.70406 8.61375V15.4784L14.2984 15.5156L14.3362 8.61375C14.3362 8.25076 14.6299 7.95703 14.9929 7.95703C15.3559 7.95703 15.6496 8.25076 15.6496 8.61375V15.4784C15.65 16.2231 15.0439 16.8292 14.2986 16.8292V16.8292Z" fill="#15213E"/>
<path d="M15.9064 7.36424C15.5435 7.36424 15.2497 7.07367 15.2497 6.71068V6.70436C15.2497 6.66779 15.2529 6.63123 15.2587 6.59467C15.2689 6.53438 15.2735 6.47338 15.2779 6.41309C15.2824 6.37072 15.288 6.3426 15.2856 6.31043C15.2837 6.2918 15.283 6.25277 15.283 6.23344C15.283 6.12498 15.2638 6.0102 15.222 5.86535L14.8776 4.70643C14.8679 4.68463 14.8602 4.66213 14.8532 4.6391L14.1913 2.41793H3.85313L2.82059 5.87168C2.80705 5.92371 2.78596 6.00053 2.77699 6.07242C2.76539 6.14291 2.76223 6.19178 2.76223 6.24047C2.76223 6.28723 2.75713 6.33346 2.74746 6.37898C2.74746 6.74145 2.4576 7.019 2.09461 7.019C1.73162 7.019 1.44141 6.70945 1.44141 6.34646C1.44141 6.30867 1.44141 6.25277 1.44914 6.18809C1.45178 6.08227 1.46127 5.97715 1.47744 5.87889C1.49027 5.77764 1.52297 5.64281 1.55637 5.5159L2.73463 1.5733C2.81742 1.29486 3.07336 1.10449 3.36375 1.10449H14.6809C14.9715 1.10449 15.2274 1.29557 15.31 1.574L16.0924 4.19982C16.1026 4.22285 16.1111 4.24658 16.1188 4.27102L16.483 5.49674C16.56 5.76551 16.5966 6.00211 16.5966 6.22729C16.6043 6.31061 16.5978 6.41396 16.5864 6.52805C16.58 6.61277 16.5716 6.70629 16.5563 6.80068C16.5101 7.11797 16.2367 7.36424 15.9064 7.36424V7.36424Z" fill="#15213E"/>
<path d="M4.46361 9.91202C2.79738 9.91202 1.44141 8.31241 1.44141 6.34665C1.44141 6.30885 1.44141 6.25295 1.44914 6.18827C1.45178 6.08245 1.46127 5.97733 1.47744 5.87907C1.53844 5.52118 1.8777 5.28387 2.23488 5.341C2.59277 5.402 2.83324 5.74055 2.77295 6.09844C2.76521 6.14327 2.76205 6.19213 2.76205 6.24082C2.76205 6.28758 2.75695 6.33381 2.74729 6.37934C2.75502 7.58837 3.52143 8.59858 4.46361 8.59858C4.89146 8.59858 5.29998 8.38237 5.61357 7.99055C5.85211 7.69876 6.01893 7.34016 6.09979 6.94887C6.17361 6.59292 6.52061 6.36721 6.87656 6.43893C7.23182 6.51276 7.46016 6.86028 7.3865 7.21571C7.26275 7.81214 7.00295 8.36567 6.63609 8.81602C6.07992 9.51054 5.28662 9.91202 4.46361 9.91202V9.91202Z" fill="#15213E"/>
<path d="M9.02252 9.91175C8.19265 9.91175 7.41851 9.52239 6.84318 8.81505C6.48213 8.37191 6.22496 7.81837 6.0998 7.21544C6.02598 6.86019 6.25431 6.51249 6.60974 6.43866C6.96306 6.36677 7.31199 6.59265 7.38652 6.9486C7.46861 7.34622 7.63349 7.70552 7.86183 7.98642C8.08894 8.26538 8.47496 8.59831 9.02269 8.59831C9.56972 8.59831 9.95591 8.26538 10.183 7.98642C10.4274 7.68302 10.5986 7.29894 10.6756 6.87812C10.7404 6.52146 11.0841 6.28292 11.4395 6.35025C11.7967 6.41564 12.0328 6.75753 11.9674 7.11419C11.8514 7.75052 11.587 8.33728 11.2034 8.81312C10.626 9.52239 9.85255 9.91175 9.02252 9.91175Z" fill="#15213E"/>
<path d="M13.5804 9.72691C12.8537 9.72691 12.1515 9.41964 11.6018 8.86172C11.1599 8.41207 10.8424 7.82004 10.6821 7.14926C10.5981 6.79646 10.8155 6.44174 11.1683 6.35771C11.5223 6.27439 11.8758 6.49113 11.9599 6.84392C12.063 7.27617 12.2691 7.66623 12.5391 7.94062C12.7507 8.15613 13.1042 8.4133 13.5807 8.4133C14.3812 8.4133 15.0816 7.66605 15.2535 6.63281C15.2554 6.61998 15.2566 6.60715 15.2586 6.59502C15.2688 6.53473 15.2733 6.47373 15.2777 6.41344C15.2823 6.37107 15.2879 6.34295 15.2855 6.31078C15.2835 6.29215 15.2828 6.25312 15.2828 6.23379C15.2828 5.8708 15.5766 5.57373 15.9395 5.57373C16.3025 5.57373 16.5963 5.8643 16.5963 6.22728C16.604 6.3106 16.5975 6.41396 16.5861 6.52805C16.5803 6.60697 16.5725 6.69346 16.5592 6.78135C16.558 6.79206 16.5565 6.80273 16.5546 6.81334C16.2883 8.50189 15.0376 9.72691 13.5804 9.72691V9.72691Z" fill="#15213E"/>
</svg>
