<svg width="18" height="18" viewBox="0 0 18 18"  xmlns="http://www.w3.org/2000/svg">
<path d="M4.33549 17.3834H13.0785C13.5123 17.3834 13.864 17.0317 13.864 16.5979C13.864 16.1641 13.5123 15.8124 13.0785 15.8124H4.33549C3.95033 15.8124 3.63728 15.5525 3.63728 15.2337V10.388C3.63728 9.95349 3.28437 9.60059 2.84989 9.60059C2.4154 9.60059 2.0625 9.95349 2.0625 10.388V15.2318C2.0625 16.4177 3.08326 17.3834 4.33549 17.3834Z" fill="#333333"/>
<path d="M8.6058 11.3952C7.77288 11.3952 6.9779 11.1201 6.35368 10.6324C5.50748 11.2358 4.39375 11.4559 3.33125 11.194C2.50781 10.9929 1.79063 10.5205 1.3163 9.86403C0.741408 9.07474 0.564957 8.09003 0.834377 7.16224L1.75458 3.31637C1.75837 3.30309 1.76027 3.28981 1.76406 3.27843C2.04676 2.31648 2.98214 1.64673 4.04085 1.64673H12.8843C13.8595 1.64673 14.7474 2.22351 15.0927 3.083C15.1003 3.10197 15.1079 3.12284 15.1136 3.14182L16.0945 6.28378C16.622 7.81113 16.4607 9.05197 15.6031 9.94561C15.3565 10.2074 15.0567 10.4332 14.7114 10.6154C13.5445 11.2339 12.1102 11.158 11.0306 10.4845C10.3912 11.065 9.53169 11.3952 8.6058 11.3952ZM6.37835 8.76358H6.39732C6.63638 8.76927 6.85837 8.88311 7.00257 9.07284C7.35926 9.54148 7.95881 9.82039 8.6039 9.82039C9.29073 9.82039 9.93013 9.49595 10.2735 8.97229C10.3153 8.90968 10.3646 8.85276 10.4215 8.80532C10.7023 8.56247 11.19 8.56816 11.4651 8.8186C11.4802 8.83188 11.4954 8.84706 11.5087 8.86224C12.1215 9.50543 13.1594 9.65912 13.9752 9.22653C14.1687 9.12407 14.33 9.00264 14.4609 8.86604L14.4666 8.86034C14.736 8.57954 15.0434 8.05778 14.5994 6.77709L13.6242 3.6484C13.5085 3.39226 13.2163 3.22151 12.8862 3.22151H4.04275C3.68984 3.22151 3.37299 3.42642 3.28002 3.70912L2.35603 7.56637C2.21183 8.06537 2.29911 8.5397 2.5913 8.94003C2.84933 9.29673 3.24397 9.55287 3.70692 9.66481C4.48482 9.85454 5.29687 9.61168 5.77879 9.04059C5.92678 8.86604 6.14687 8.76358 6.37835 8.76358Z" fill="#333333"/>
<path d="M12.5176 14C12.232 14 12 14.2241 12 14.5C12 14.7759 12.2307 15 12.5176 15L15.4824 15C15.768 15 16 14.7759 16 14.5C16 14.2241 15.768 14 15.4824 14L12.5176 14Z" fill="#333333"/>
<path d="M11.4047 12C11.1814 12 11 12.2241 11 12.5C11 12.7759 11.1804 13 11.4047 13L15.5953 13C15.8186 13 16 12.7759 16 12.5C16 12.2241 15.8186 12 15.5953 12L11.4047 12Z" fill="#333333"/>
</svg>
