<svg width="18" height="18" viewBox="0 0 18 18"  xmlns="http://www.w3.org/2000/svg">
<path d="M7.0227 1.95051C7.10797 1.92628 7.19718 1.91908 7.28524 1.92933C7.37329 1.93958 7.45847 1.96707 7.5359 2.01024C7.69227 2.09741 7.80762 2.24314 7.85655 2.41536C7.88078 2.50063 7.88797 2.58984 7.87772 2.6779C7.86748 2.76595 7.83998 2.85113 7.79682 2.92856C7.75365 3.00599 7.69566 3.07416 7.62615 3.12917C7.55664 3.18419 7.47697 3.22498 7.3917 3.24921C6.41364 3.52911 5.52548 4.05923 4.81488 4.78724C4.10429 5.51526 3.59583 6.41599 3.33969 7.40054C3.08355 8.38509 3.0886 9.41942 3.35432 10.4014C3.62004 11.3834 4.13725 12.2792 4.85491 13.0002C5.57256 13.7213 6.46585 14.2427 7.44659 14.5131C8.42734 14.7834 9.46163 14.7934 10.4474 14.5419C11.4331 14.2904 12.3363 13.7862 13.0676 13.079C13.799 12.3719 14.3333 11.4862 14.6178 10.5095C14.6406 10.4222 14.6806 10.3404 14.7355 10.2689C14.7904 10.1973 14.8591 10.1375 14.9376 10.093C15.016 10.0484 15.1026 10.0201 15.1921 10.0095C15.2817 9.999 15.3725 10.0065 15.4591 10.0317C15.5457 10.0568 15.6264 10.0991 15.6964 10.1559C15.7665 10.2128 15.8244 10.2831 15.8667 10.3627C15.9091 10.4423 15.9351 10.5296 15.9432 10.6194C15.9513 10.7093 15.9413 10.7998 15.9138 10.8857C15.5638 12.088 14.9062 13.1783 14.0061 14.0488C13.106 14.9193 11.9943 15.54 10.781 15.8496C9.56765 16.1593 8.29453 16.1471 7.08733 15.8143C5.88013 15.4815 4.7806 14.8396 3.89729 13.952C3.01398 13.0644 2.37744 11.9618 2.0505 10.753C1.72357 9.54419 1.71755 8.27103 2.03304 7.05919C2.34853 5.84736 2.97463 4.73876 3.84951 3.84285C4.72439 2.94694 5.8178 2.29469 7.0218 1.95051H7.0227Z" fill="#15213E"/>
<path d="M9.675 1.7998C9.49598 1.7998 9.32429 1.87092 9.1977 1.99751C9.07112 2.12409 9 2.29578 9 2.4748V8.3248C9 8.6974 9.3024 8.9998 9.675 8.9998H15.525C15.6146 8.99982 15.7034 8.98198 15.786 8.94733C15.8687 8.91268 15.9437 8.86191 16.0065 8.79798C16.0693 8.73406 16.1188 8.65826 16.152 8.57501C16.1852 8.49176 16.2016 8.40273 16.2 8.3131L16.1964 8.1034C16.1383 6.41237 15.4259 4.80997 14.2093 3.63401C12.9927 2.45806 11.367 1.80044 9.675 1.7998V1.7998ZM10.35 3.1939L10.476 3.2119C11.561 3.38231 12.5638 3.89326 13.3393 4.67094C14.1149 5.44861 14.6231 6.45273 14.7906 7.5382L14.805 7.64981H10.35V3.1939Z" fill="#15213E"/>
</svg>
