<?xml version="1.0" standalone="no"?><!DOCTYPE svg PUBLIC "-//W3C//DTD SVG 1.1//EN" "http://www.w3.org/Graphics/SVG/1.1/DTD/svg11.dtd"><svg t="1597482552058" class="icon" viewBox="0 0 1024 1024" version="1.1" xmlns="http://www.w3.org/2000/svg" p-id="19206" xmlns:xlink="http://www.w3.org/1999/xlink" width="200" height="200"><defs><style type="text/css"></style></defs><path d="M527.02976 5.376l417.664 226.816a31.232 31.232 0 0 1 14.528 37.888L959.15776 730.88c0 10.88-5.568 21.056-14.72 26.816l-415.168 261.44a31.04 31.04 0 0 1-18.112 4.736 31.04 31.04 0 0 1-18.112-4.736L77.87776 757.76A31.68 31.68 0 0 1 63.15776 730.88v-467.2l-0.128-2.048a31.36 31.36 0 0 1 16.384-26.624L496.69376 5.504a31.616 31.616 0 0 1 30.336-0.128z m369.408 315.456L543.98976 542.72v392.64l352.448-221.888V320.832z m-770.56 0v392.64l352.448 221.888V542.72L125.87776 320.832z m385.856-252.032L156.78976 264.128l353.6 219.84L866.99776 261.76 511.79776 68.8z" p-id="19207"></path></svg>
