<?xml version="1.0" standalone="no"?><!DOCTYPE svg PUBLIC "-//W3C//DTD SVG 1.1//EN" "http://www.w3.org/Graphics/SVG/1.1/DTD/svg11.dtd">
<svg t="1597482062810" class="icon" viewBox="0 0 1024 1024" version="1.1" xmlns="http://www.w3.org/2000/svg" p-id="14881" width="200" height="200">
  <defs>
    <style type="text/css"></style>
  </defs>
  <path
    d="M471.990857 56.027429A483.401143 483.401143 0 0 0 2.998857 539.209143a482.742857 482.742857 0 0 0 483.254857 483.328 483.474286 483.474286 0 0 0 483.254857-469.138286 13.750857 13.750857 0 0 0-13.750857-14.189714H499.785143a13.750857 13.750857 0 0 1-13.750857-13.750857V69.778286a13.677714 13.677714 0 0 0-14.043429-13.750857zM890.148571 612.205714a411.428571 411.428571 0 0 1-244.004571 304.786286c-50.468571 21.430857-104.228571 32.256-159.670857 32.256a407.478857 407.478857 0 0 1-159.670857-32.182857 411.428571 411.428571 0 0 1-218.258286-218.331429 407.478857 407.478857 0 0 1-32.182857-159.670857 409.526857 409.526857 0 0 1 120.100571-290.084571A409.380571 409.380571 0 0 1 412.964571 135.314286v463.067428c0 7.533714 6.144 13.750857 13.677715 13.750857h463.36v0.073143zM528.457143 18.870857v455.387429c0 7.606857 6.144 13.750857 13.750857 13.750857h455.533714c7.753143 0 13.897143-6.436571 13.677715-14.189714A483.254857 483.254857 0 0 0 542.573714 5.12a13.750857 13.750857 0 0 0-14.116571 13.750857z m73.142857 65.682286a410.258286 410.258286 0 0 1 330.386286 330.313143H601.6V84.553143z"
    p-id="14882"></path>
</svg>
