<svg width="18" height="18" viewBox="0 0 18 18"  xmlns="http://www.w3.org/2000/svg">
<path d="M10.4667 16.2662H7.53333C7.13333 16.2662 6.86667 15.9996 6.86667 15.5996V2.39958C6.86667 1.99958 7.13333 1.73291 7.53333 1.73291H10.4667C10.8667 1.73291 11.1333 1.99958 11.1333 2.39958V15.5996C11.1333 15.9996 10.8667 16.2662 10.4667 16.2662ZM8.2 14.9329H9.8V3.06624H8.2V14.9329ZM16.3333 16.2662H13.4C13 16.2662 12.7333 15.9996 12.7333 15.5996V6.06624C12.7333 5.66624 13 5.39958 13.4 5.39958H16.3333C16.7333 5.39958 17 5.66624 17 6.06624V15.5996C17 15.9996 16.7333 16.2662 16.3333 16.2662ZM14.0667 14.9329H15.6667V6.73291H14.0667V14.9329ZM4.6 16.2662H1.66667C1.26667 16.2662 1 15.9996 1 15.5996V9.73291C1 9.33291 1.26667 9.06624 1.66667 9.06624H4.6C5 9.06624 5.26667 9.33291 5.26667 9.73291V15.5996C5.26667 15.9996 5 16.2662 4.6 16.2662ZM2.33333 14.9329H3.93333V10.3996H2.33333V14.9329Z" fill="#15213E"/>
</svg>
