<?xml version="1.0" standalone="no"?><!DOCTYPE svg PUBLIC "-//W3C//DTD SVG 1.1//EN" "http://www.w3.org/Graphics/SVG/1.1/DTD/svg11.dtd"><svg t="1597479821068" class="icon" viewBox="0 0 1024 1024" version="1.1" xmlns="http://www.w3.org/2000/svg" p-id="6788" xmlns:xlink="http://www.w3.org/1999/xlink" width="200" height="200"><defs><style type="text/css"></style></defs><path d="M936.261 258.479l-160.749-160.751c-4.666-4.666-10.878-7.238-17.484-7.238h-607.829c-32.647 0-59.207 26.566-59.207 59.222v734.081c0 32.656 26.56 59.222 59.207 59.222h734.081c32.655 0 59.22-26.566 59.22-59.222v-607.842c0.002-6.503-2.635-12.871-7.238-17.473v0zM617.239 139.906h53.58v182.74h-53.58v-182.74zM362.62 139.906h205.204v182.74h-205.204v-182.74zM755.381 893.596h-460.585v-259.777c0-47.58 38.707-86.288 86.286-86.288h288.002c47.586 0 86.295 38.708 86.295 86.288v259.777zM894.085 883.793c0 5.407-4.398 9.807-9.802 9.807h-79.479v-259.777c0-74.828-60.881-135.703-135.716-135.703h-288.004c-74.826 0-135.7 60.876-135.7 135.703v259.777h-95.181c-5.398 0-9.79-4.398-9.79-9.807v-734.081c0-5.407 4.391-9.806 9.79-9.806h163.004v184.86c0 26.079 21.212 47.296 47.282 47.296h312.471c26.073 0 47.285-21.216 47.285-47.296v-184.86h27.568l146.275 146.275v597.612h-0.001z" p-id="6789"></path></svg>