<?xml version="1.0" standalone="no"?><!DOCTYPE svg PUBLIC "-//W3C//DTD SVG 1.1//EN" "http://www.w3.org/Graphics/SVG/1.1/DTD/svg11.dtd"><svg t="1589443550072" class="icon" viewBox="0 0 1097 1024" version="1.1" xmlns="http://www.w3.org/2000/svg" p-id="7144" xmlns:xlink="http://www.w3.org/1999/xlink" width="214.2578125" height="200"><defs><style type="text/css"></style></defs><path d="M989.503937 1024H107.715947a107.838491 107.838491 0 0 1-107.715947-107.66693V230.357722a107.838491 107.838491 0 0 1 107.66693-107.66693h881.837007a107.838491 107.838491 0 0 1 107.66693 107.66693v685.975348a107.838491 107.838491 0 0 1-107.66693 107.66693zM107.715947 196.670448a33.797563 33.797563 0 0 0-33.7608 33.748546v685.914076a33.785309 33.785309 0 0 0 33.7608 33.748546h881.78799a33.785309 33.785309 0 0 0 33.736292-33.748546V230.357722a33.797563 33.797563 0 0 0-33.736292-33.687274z" p-id="7145"></path><path d="M259.486369 362.178024a36.959192 36.959192 0 0 1-36.959192-36.959192V36.959192a36.959192 36.959192 0 0 1 73.918384 0v288.25964a36.959192 36.959192 0 0 1-36.959192 36.959192zM855.722936 364.396065a36.959192 36.959192 0 0 1-36.959192-36.959192V39.164979a36.959192 36.959192 0 0 1 73.918384 0V327.436873a36.959192 36.959192 0 0 1-36.959192 36.959192zM565.686412 364.396065a36.971446 36.971446 0 0 1-36.959191-36.959192V39.164979a36.959192 36.959192 0 0 1 73.918383 0V327.436873a36.959192 36.959192 0 0 1-36.959192 36.959192zM897.608387 553.713889h-707.07738a36.959192 36.959192 0 1 1 0-73.918384h707.07738a36.959192 36.959192 0 0 1 0 73.918384zM897.608387 726.365764h-707.07738a36.959192 36.959192 0 1 1 0-73.906129h707.07738a36.959192 36.959192 0 1 1 0 73.906129z" p-id="7146"></path></svg>