<?xml version="1.0" standalone="no"?><!DOCTYPE svg PUBLIC "-//W3C//DTD SVG 1.1//EN" "http://www.w3.org/Graphics/SVG/1.1/DTD/svg11.dtd"><svg t="1589443314743" class="icon" viewBox="0 0 1024 1024" version="1.1" xmlns="http://www.w3.org/2000/svg" p-id="6034" xmlns:xlink="http://www.w3.org/1999/xlink" width="200" height="200"><defs><style type="text/css"></style></defs><path d="M336.794 190.362h555.52c16.179 0 29.286 13.107 29.286 29.286s-13.107 29.184-29.286 29.184h-555.52c-16.18 0-29.287-13.107-29.287-29.286s13.21-29.184 29.287-29.184z m0 292.352H664.37c16.18 0 29.287 13.107 29.287 29.286s-13.108 29.286-29.287 29.286H336.794c-16.18 0-29.287-13.107-29.287-29.286s13.21-29.286 29.287-29.286z m0 292.454H541.49c16.18 0 29.287 13.107 29.287 29.286s-13.108 29.287-29.287 29.287H336.794c-16.18 0-29.287-13.107-29.287-29.287 0.103-16.179 13.21-29.286 29.287-29.286zM219.853 131.891h-58.47c-32.257 0-58.471 26.215-58.471 58.47v58.471c0 32.256 26.214 58.47 58.47 58.47h58.47c32.257 0 58.471-26.214 58.471-58.47v-58.47c0-32.256-26.112-58.47-58.47-58.47z m0 116.941h-58.47v-58.47h58.47v58.47z m0 175.411h-58.47c-32.257 0-58.471 26.215-58.471 58.47v58.471c0 32.256 26.214 58.47 58.47 58.47h58.47c32.257 0 58.471-26.214 58.471-58.47v-58.47c0-32.256-26.112-58.47-58.47-58.47z m0 117.043h-58.47v-58.47h58.47v58.47z m0 175.412h-58.47c-32.257 0-58.471 26.214-58.471 58.47v58.47c0 32.256 26.214 58.47 58.47 58.47h58.47c32.257 0 58.471-26.214 58.471-58.47v-58.47c0-32.358-26.112-58.47-58.47-58.47z m0 116.94h-58.47v-58.47h58.47v58.47z" fill="" p-id="6035"></path></svg>