<?xml version="1.0" standalone="no"?><!DOCTYPE svg PUBLIC "-//W3C//DTD SVG 1.1//EN" "http://www.w3.org/Graphics/SVG/1.1/DTD/svg11.dtd"><svg t="1589443652353" class="icon" viewBox="0 0 1024 1024" version="1.1" xmlns="http://www.w3.org/2000/svg" p-id="7632" xmlns:xlink="http://www.w3.org/1999/xlink" width="200" height="200"><defs><style type="text/css"></style></defs><path d="M1016.4224 503.808C1011.643733 508.654933 1005.090133 511.317333 998.263467 511.317333L998.1952 511.317333 537.668267 510.5664C523.4688 510.498133 512 499.029333 512 484.829867L512 25.736533C512 11.537067 523.4688 0 537.736533 0 603.3408 0 666.965333 12.834133 726.8352 38.161067 784.725333 62.600533 836.676267 97.621333 881.322667 142.199467 925.969067 186.7776 961.058133 238.728533 985.565867 296.5504 1010.961067 356.420267 1023.863467 420.0448 1024 485.5808 1024 492.407467 1021.269333 498.961067 1016.4224 503.808ZM844.936533 178.653867C768.955733 102.741333 669.764267 58.368 563.473067 52.224L563.473067 459.093333 971.707733 459.844267C965.358933 353.553067 920.917333 254.498133 844.936533 178.653867ZM486.331733 972.526933C538.077867 972.526933 588.663467 963.515733 636.791467 945.7664 683.281067 928.631467 726.2208 903.7824 764.450133 871.901867 841.3184 807.867733 894.1568 718.779733 913.134933 621.1584 915.797333 607.232 929.314133 598.084267 943.3088 600.814933 957.2352 603.5456 966.382933 617.0624 963.652267 630.9888 942.421333 740.215467 883.370667 839.816533 797.422933 911.496533 754.619733 947.131733 706.628267 974.916267 654.609067 994.0992 600.814933 1013.9648 544.1536 1024 486.331733 1024 420.6592 1024 356.9664 1011.165867 297.028267 985.770667 239.069867 961.262933 187.118933 926.242133 142.404267 881.595733 97.757867 836.949333 62.737067 784.930133 38.229333 726.971733 12.834133 667.0336 0 603.3408 0 537.736533 0 480.6656 9.762133 424.823467 29.0816 371.712 47.7184 320.375467 74.752 272.861867 109.431467 230.331733 178.9952 145.134933 276.206933 85.469867 383.112533 62.395733 397.038933 59.392 410.760533 68.1984 413.764267 82.1248 416.768 95.982933 407.893333 109.704533 394.0352 112.708267 298.461867 133.3248 211.5584 186.709333 149.2992 262.894933 118.306133 300.919467 94.139733 343.4496 77.482667 389.3248 60.2112 436.770133 51.473067 486.673067 51.473067 537.736533 51.473067 653.858133 96.733867 763.016533 178.858667 845.141333 260.983467 927.266133 370.141867 972.526933 486.331733 972.526933Z" p-id="7633"></path></svg>