<?xml version="1.0" standalone="no"?><!DOCTYPE svg PUBLIC "-//W3C//DTD SVG 1.1//EN" "http://www.w3.org/Graphics/SVG/1.1/DTD/svg11.dtd"><svg t="1592968488422" class="icon" viewBox="0 0 1024 1024" version="1.1" xmlns="http://www.w3.org/2000/svg" p-id="2109" xmlns:xlink="http://www.w3.org/1999/xlink" width="220" height="220"><defs><style type="text/css"></style></defs><path d="M512 128a384 384 0 0 0-384 384 384 384 0 0 0 384 384 384 384 0 0 0 384-384 384 384 0 0 0-384-384z m233.344 617.344a328.277333 328.277333 0 0 1-104.96 70.698667 326.826667 326.826667 0 0 1-128.384 25.941333 328.106667 328.106667 0 0 1-233.344-96.597333 328.277333 328.277333 0 0 1-70.698667-104.917334A327.466667 327.466667 0 0 1 182.016 512 328.106667 328.106667 0 0 1 278.613333 278.656a328.277333 328.277333 0 0 1 104.917334-70.698667A327.466667 327.466667 0 0 1 512 182.016a328.106667 328.106667 0 0 1 233.344 96.597333c30.293333 30.293333 54.144 65.621333 70.698667 104.917334 17.237333 40.704 25.941333 83.925333 25.941333 128.469333a328.106667 328.106667 0 0 1-96.64 233.344z m-144.682667-88.149333H536.746667V394.666667a26.965333 26.965333 0 0 0-27.008-27.008H437.76a26.965333 26.965333 0 1 0 0 54.016h44.970667v235.562666H418.858667a26.965333 26.965333 0 1 0 0 54.016h181.802666a26.965333 26.965333 0 1 0 0-54.016z m-117.930666-363.818667a27.008 27.008 0 1 0 54.016 0 27.008 27.008 0 0 0-54.016 0z" fill="#000000" p-id="2110"></path></svg>