<?xml version="1.0" standalone="no"?><!DOCTYPE svg PUBLIC "-//W3C//DTD SVG 1.1//EN" "http://www.w3.org/Graphics/SVG/1.1/DTD/svg11.dtd"><svg t="1589443744212" class="icon" viewBox="0 0 1024 1024" version="1.1" xmlns="http://www.w3.org/2000/svg" p-id="8844" xmlns:xlink="http://www.w3.org/1999/xlink" width="200" height="200"><defs><style type="text/css"></style></defs><path d="M330 222h170c16.3 0 29.5 13.2 29.5 29.5S516.3 281 500 281h-170c-16.3 0-29.5-13.2-29.5-29.5s13.2-29.5 29.5-29.5z" fill="" p-id="8845"></path><path d="M446 254v119c0 16.3-13.2 29.5-29.5 29.5s-29.5-13.2-29.5-29.5V254c0-16.3 13.2-29.5 29.5-29.5s29.5 13.2 29.5 29.5zM323.5 502h387c12.7 0 23 10.3 23 23s-10.3 23-23 23H323.5c-12.7 0-23-10.3-23-23s10.3-23 23-23zM526.5 380h183c12.7 0 23 10.3 23 23s-10.3 23-23 23H526.5c-12.7 0-23-10.3-23-23s10.3-23 23-23zM323.5 631h387c12.7 0 23 10.3 23 23s-10.3 23-23 23H323.5c-12.7 0-23-10.3-23-23s10.3-23 23-23zM323.5 759h276c12.7 0 23 10.3 23 23s-10.3 23-23 23H323.5c-12.7 0-23-10.3-23-23s10.3-23 23-23zM848.5 301.6H648.5c-28.7 0-52-23.3-52-52V68h46v181.6c0 3.3 2.7 6 6 6h200v46z" fill="" p-id="8846"></path><path d="M811.5 952H222.5c-29.2 0-53-23.8-53-53V105c0-29.2 23.8-53 53-53h41c12.7 0 23 10.3 23 23s-10.3 23-23 23h-41c-3.9 0-7 3.1-7 7v794c0 3.9 3.1 7 7 7h589c3.9 0 7-3.1 7-7V274.5L616.8 98H433.5c-12.7 0-23-10.3-23-23s10.3-23 23-23h192c5.6 0 11 2 15.1 5.7l216 189c5 4.4 7.9 10.7 7.9 17.3v635c0 29.2-23.8 53-53 53zM372.4 98h-39c-12.7 0-23-10.3-23-23s10.3-23 23-23h39c12.7 0 23 10.3 23 23s-10.3 23-23 23z" fill="" p-id="8847"></path></svg>