<svg width="16" height="16" viewBox="0 0 16 16" xmlns="http://www.w3.org/2000/svg">
<path d="M7.99666 15.7306C3.73711 15.7306 0.272217 12.2657 0.272217 8.00618C0.272217 3.74663 3.73711 0.281738 7.99666 0.281738C12.2562 0.281738 15.7211 3.74663 15.7211 8.00618C15.7211 12.2657 12.2562 15.7306 7.99666 15.7306ZM7.99666 1.52618C4.42333 1.52618 1.51666 4.43285 1.51666 8.00618C1.51666 11.5795 4.42333 14.4862 7.99666 14.4862C11.57 14.4862 14.4767 11.5795 14.4767 8.00618C14.4767 4.43285 11.57 1.52618 7.99666 1.52618Z" fill="white"/>
<path d="M8.00161 10.0932C7.65761 10.0932 7.37939 9.815 7.37939 9.471V8.75989C7.37939 8.20433 7.75272 7.72344 8.28783 7.59011C8.83005 7.45411 9.20161 6.94922 9.17228 6.38833C9.14117 5.799 8.65494 5.31278 8.06561 5.28167C7.73939 5.26478 7.43005 5.37856 7.1945 5.60167C6.95894 5.82567 6.82916 6.127 6.82916 6.45233C6.82916 6.79633 6.55094 7.07456 6.20694 7.07456C5.86294 7.07456 5.58472 6.79633 5.58472 6.45233C5.58472 5.79278 5.85938 5.15367 6.3385 4.69945C6.82383 4.239 7.46028 4.00434 8.13139 4.039C9.34828 4.103 10.3518 5.10567 10.4158 6.32345C10.4754 7.46567 9.72428 8.49589 8.62472 8.78833V9.471C8.62448 9.6361 8.55873 9.79437 8.4419 9.91103C8.32507 10.0277 8.16671 10.0932 8.00161 10.0932Z" fill="white"/>
<path d="M7.35278 11.544C7.35278 11.7388 7.43014 11.9255 7.56783 12.0632C7.70552 12.2009 7.89228 12.2783 8.087 12.2783C8.28173 12.2783 8.46848 12.2009 8.60618 12.0632C8.74387 11.9255 8.82122 11.7388 8.82122 11.544C8.82122 11.3493 8.74387 11.1626 8.60618 11.0249C8.46848 10.8872 8.28173 10.8098 8.087 10.8098C7.89228 10.8098 7.70552 10.8872 7.56783 11.0249C7.43014 11.1626 7.35278 11.3493 7.35278 11.544Z" fill="white"/>
</svg>
