<?xml version="1.0" standalone="no"?><!DOCTYPE svg PUBLIC "-//W3C//DTD SVG 1.1//EN" "http://www.w3.org/Graphics/SVG/1.1/DTD/svg11.dtd"><svg t="1587521170369" class="icon" viewBox="0 0 1024 1024" version="1.1" xmlns="http://www.w3.org/2000/svg" p-id="12273" xmlns:xlink="http://www.w3.org/1999/xlink" width="200" height="200"><defs><style type="text/css"></style></defs><path d="M831.878095 31.695238H190.659048A164.327619 164.327619 0 0 0 23.893333 195.047619v483.230476A74.605714 74.605714 0 0 0 97.52381 751.420952h826.026666a75.093333 75.093333 0 0 0 75.580953-74.118095V195.047619A164.815238 164.815238 0 0 0 831.878095 31.695238z m69.729524 622.201905h-780.190476V195.047619a66.80381 66.80381 0 0 1 69.241905-65.828571h641.219047A67.291429 67.291429 0 0 1 901.607619 195.047619zM950.369524 786.529524h-877.714286a48.761905 48.761905 0 1 0 0 97.523809h390.095238v59.489524a48.761905 48.761905 0 0 0 97.52381 0v-59.489524h390.095238a48.761905 48.761905 0 0 0 0-97.523809z" p-id="12274"></path><path d="M405.211429 266.727619a28.769524 28.769524 0 0 0-25.84381-18.529524 28.281905 28.281905 0 0 0-25.843809 18.529524L243.809524 497.859048a40.472381 40.472381 0 0 0-5.36381 19.017142 26.819048 26.819048 0 0 0 27.794286 28.281905 29.257143 29.257143 0 0 0 26.331429-17.554285l28.281904-60.952381H438.857143l28.281905 60.464761a29.744762 29.744762 0 0 0 28.769523 18.041905 26.819048 26.819048 0 0 0 19.504762-9.264762 27.306667 27.306667 0 0 0 7.801905-19.017143 43.885714 43.885714 0 0 0-5.363809-19.504761zM349.135238 409.112381l30.232381-64.853333 30.232381 64.853333zM649.99619 253.561905h-78.019047a30.232381 30.232381 0 0 0-33.645714 31.207619v223.329524a30.72 30.72 0 0 0 33.645714 31.695238h78.019047a126.780952 126.780952 0 0 0 97.52381-41.935238 146.285714 146.285714 0 0 0 36.571429-101.424762c0.487619-93.622857-45.83619-142.872381-134.095239-142.872381z m54.125715 206.262857a68.754286 68.754286 0 0 1-54.125715 22.430476h-54.125714V311.100952h54.125714c51.687619 0 74.605714 26.331429 74.605715 85.333334a91.184762 91.184762 0 0 1-20.48 63.390476z" p-id="12275"></path></svg>