<svg width="18" height="18" viewBox="0 0 18 18"  xmlns="http://www.w3.org/2000/svg">
<path d="M9 3.5C10.275 3.5 11.25 4.475 11.25 5.75C11.25 7.025 10.275 8 9 8C7.725 8 6.75 7.025 6.75 5.75C6.75 4.475 7.725 3.5 9 3.5ZM9 2C6.9 2 5.25 3.65 5.25 5.75C5.25 7.85 6.9 9.5 9 9.5C11.1 9.5 12.75 7.85 12.75 5.75C12.75 3.65 11.1 2 9 2ZM13.5 12.5C14.325 12.5 15 13.175 15 14V15.5H3V14C3 13.175 3.675 12.5 4.5 12.5H13.5ZM13.5 11H4.5C2.85 11 1.5 12.35 1.5 14V15.5C1.5 16.325 2.175 17 3 17H15C15.825 17 16.5 16.325 16.5 15.5V14C16.5 12.35 15.15 11 13.5 11V11Z" fill="#15213E"/>
</svg>
