<?xml version="1.0" standalone="no"?><!DOCTYPE svg PUBLIC "-//W3C//DTD SVG 1.1//EN" "http://www.w3.org/Graphics/SVG/1.1/DTD/svg11.dtd"><svg t="1590975514647" class="icon" viewBox="0 0 1024 1024" version="1.1" xmlns="http://www.w3.org/2000/svg" p-id="6214" xmlns:xlink="http://www.w3.org/1999/xlink" width="220" height="220"><defs><style type="text/css"></style></defs><path d="M128 384h256v64H128zM128 512h192v64H128zM128 256h384v64H128z" p-id="6215"></path><path d="M64 128h128v64h64V128h256v64h64V128h128v128h64V149.333333c0-46.933333-38.4-85.333333-85.333333-85.333333h-106.666667V0h-64v64H256V0H192v64H85.333333C38.4 64 0 102.4 0 149.333333v725.333334c0 46.933333 38.4 85.333333 85.333333 85.333333h234.666667v-64H64V128z" p-id="6216"></path><path d="M829.866667 729.6c59.733333-40.533333 98.133333-108.8 98.133333-185.6C928 420.266667 827.733333 320 704 320s-224 100.266667-224 224c0 76.8 38.4 145.066667 98.133333 185.6C465.066667 778.666667 384 891.733333 384 1024h64c0-140.8 115.2-256 256-256s256 115.2 256 256h64c0-132.266667-81.066667-245.333333-194.133333-294.4z m-285.866667-185.6c0-87.466667 72.533333-160 160-160s160 72.533333 160 160S791.466667 704 704 704s-160-72.533333-160-160z" p-id="6217"></path></svg>
