<?xml version="1.0" standalone="no"?><!DOCTYPE svg PUBLIC "-//W3C//DTD SVG 1.1//EN" "http://www.w3.org/Graphics/SVG/1.1/DTD/svg11.dtd"><svg t="1587520650334" class="icon" viewBox="0 0 1024 1024" version="1.1" xmlns="http://www.w3.org/2000/svg" p-id="3231" xmlns:xlink="http://www.w3.org/1999/xlink" width="200" height="200"><defs><style type="text/css"></style></defs><path d="M584.704 983.04h90.112-91.648 1.536z" p-id="3232"></path><path d="M749.056 486.4c-132.096 0-240.64 107.008-240.64 240.64s108.544 240.64 240.64 240.64 240.64-107.008 240.64-240.64c-0.512-132.608-108.544-240.64-240.64-240.64z m-32.768 396.8h-67.584v-246.784h-21.504v-23.04h90.112v130.048l110.592-130.048h111.616l-223.232 269.824z m0 0" p-id="3233"></path><path d="M749.056 486.4c-132.096 0-240.64 107.008-240.64 240.64s108.544 240.64 240.64 240.64 240.64-107.008 240.64-240.64c-0.512-132.608-108.544-240.64-240.64-240.64z m-32.768 396.8h-67.584v-246.784h-21.504v-23.04h90.112v130.048l110.592-130.048h111.616l-223.232 269.824z m0 0" p-id="3234"></path><path d="M865.28 968.704v-2.048c-1.536 0.512-2.56 1.024-4.096 2.048h4.096zM482.304 727.04c0-147.456 119.296-266.752 266.752-266.752 41.472 0 81.408 9.728 116.224 26.624V10.24H123.904c-29.696 0.512-59.904 6.656-81.92 27.648-34.304 32.256-36.864 76.8-34.816 121.344 1.536 34.304 55.296 34.304 53.248 0-1.536-28.16-5.12-65.024 20.48-83.968 12.288-8.704 27.136-11.776 42.496-11.776v146.944c-29.696 0.512-59.904 6.656-81.92 27.648-34.304 32.256-36.864 76.8-34.816 121.344 1.536 34.304 55.296 34.304 53.248 0-1.536-28.16-5.12-65.024 20.48-83.968 12.288-8.704 27.136-11.776 42.496-11.776v145.408c-29.696 0.512-59.904 6.656-81.92 27.136-34.304 32.256-36.864 76.8-34.816 121.344 1.536 34.304 55.296 34.304 53.248 0-1.536-28.16-5.12-65.024 20.48-83.968 12.288-8.704 27.136-11.776 42.496-11.776v146.944c-29.696 0.512-59.904 6.656-81.92 27.136-34.304 32.256-36.864 76.8-34.816 121.344 1.536 34.304 55.296 34.304 53.248 0-1.536-28.16-5.12-65.024 20.48-83.968 12.288-8.704 27.136-11.776 42.496-11.776v146.944c-29.696 0.512-59.904 6.656-81.92 27.136-34.304 32.256-36.864 76.8-34.816 121.344 1.536 34.304 55.296 34.304 53.248 0-1.536-28.16-5.12-65.024 20.48-83.968 12.288-8.704 27.136-11.776 42.496-11.776v107.52h515.072c-91.136-41.984-154.112-134.656-154.112-241.664zM293.376 325.12v-215.04H696.32v215.04H293.376z" p-id="3235"></path></svg>