<?xml version="1.0" standalone="no"?><!DOCTYPE svg PUBLIC "-//W3C//DTD SVG 1.1//EN" "http://www.w3.org/Graphics/SVG/1.1/DTD/svg11.dtd"><svg t="1591971268381" class="icon" viewBox="0 0 1024 1024" version="1.1" xmlns="http://www.w3.org/2000/svg" p-id="3273" xmlns:xlink="http://www.w3.org/1999/xlink" width="220" height="220"><defs><style type="text/css"></style></defs><path d="M512 0C230.4 0 0 230.4 0 512c0 281.6 230.4 512 512 512s512-230.4 512-512C1024 230.4 793.6 0 512 0zM512 972.8c-253.44 0-460.8-207.36-460.8-460.8 0-253.44 207.36-460.8 460.8-460.8s460.8 207.36 460.8 460.8C972.8 765.44 765.44 972.8 512 972.8z" p-id="3274"></path><path d="M729.6 445.44l-284.16-179.2 0 0c-23.04-15.36-51.2-15.36-76.8 0C345.6 281.6 332.8 307.2 332.8 332.8l0 358.4c0 28.16 12.8 53.76 38.4 66.56 12.8 7.68 25.6 10.24 38.4 10.24 12.8 0 25.6-2.56 38.4-10.24l284.16-179.2C755.2 563.2 768 540.16 768 512S755.2 460.8 729.6 445.44zM704 535.04l-284.16 179.2c-12.8 7.68-20.48 2.56-25.6 0C391.68 711.68 384 706.56 384 691.2L384 332.8c0-7.68 7.68-17.92 12.8-17.92 5.12-2.56 12.8-2.56 25.6 7.68l0 0 284.16 179.2C716.8 506.88 716.8 512 716.8 517.12S716.8 527.36 704 535.04z" p-id="3275"></path></svg>
