<?xml version="1.0" standalone="no"?><!DOCTYPE svg PUBLIC "-//W3C//DTD SVG 1.1//EN" "http://www.w3.org/Graphics/SVG/1.1/DTD/svg11.dtd"><svg t="1589442788851" class="icon" viewBox="0 0 1024 1024" version="1.1" xmlns="http://www.w3.org/2000/svg" p-id="1746" xmlns:xlink="http://www.w3.org/1999/xlink" width="200" height="200"><defs><style type="text/css"></style></defs><path d="M120.66 92.72c19.08-13.16 42.2-20.15 65.35-20.22h633c13.36 0.09 26.86-0.64 40.06 1.98 32.04 5.7 61.01 25.81 77.95 53.54 11.47 18.5 17.28 40.26 17.22 61.99 0.02 146.99 0.01 293.97 0.01 440.96-0.14 12.62 0.51 25.29-0.97 37.86-3.52 29.46-18.97 57.27-42.08 75.86 14.48 11.87 26.12 27.18 33.54 44.38 14.86 34.14 11.98 75.37-7.76 106.98-17.75 29.07-48.77 49.64-82.57 54.24-13.41 1.94-26.98 0.99-40.46 1.21H205c-12.35-0.12-24.79 0.59-37.03-1.46-34.39-5.15-65.64-26.91-82.79-57.1-17.98-30.93-20.25-70.25-6.24-103.13 7.42-17.51 19.18-33.12 33.9-45.15-20.63-16.65-35.29-40.56-40.57-66.56-2.2-10.2-2.61-20.69-2.52-31.1 0-149.34-0.01-298.68 0-448.02-0.11-11.04 0.09-22.18 2.34-33.03 5.75-29.54 23.68-56.37 48.57-73.23m23.54 40.5c-13.21 9.88-22.67 24.62-26.2 40.73-1.54 6.92-1.82 14.03-1.76 21.09 0.04 153.01-0.03 306.02 0.04 459.03-0.13 23.31 12.21 46.18 31.84 58.76 4.67 3.25 10.1 5.1 14.88 8.16 8.56-1.6 17.28-2.44 26-2.25 209.33 0.02 418.67 0 628 0.01 14.71 0.12 29.58-0.79 44.09 2.25 4.34-2.78 9.26-4.5 13.56-7.36 14-8.65 24.7-22.42 29.71-38.09 3.91-11.43 3.42-23.64 3.39-35.54 0-148.01-0.01-296.02 0-444.03 0.13-9.02-0.32-18.18-3.01-26.86-4.79-16.33-15.84-30.67-30.31-39.6-11.15-6.99-24.31-10.52-37.44-10.53-217 0.02-434-0.01-651 0.02-14.97 0.15-29.89 5.07-41.79 14.21m38.11 632.14c-14.15 0.79-27.97 6.07-39.1 14.82-13.98 10.86-23.56 27.25-26.09 44.78-2.64 17.14 1.61 35.19 11.47 49.44 9.83 14.53 25.35 25.08 42.48 28.86 11.11 2.57 22.58 1.52 33.88 1.74 211.03-0.01 422.06 0.01 633.1-0.01 21.4-0.07 42.44-10.56 55.29-27.7 12.98-16.81 17.58-39.73 11.91-60.22-6.11-23.29-25.06-42.58-48.23-49.07-11.67-3.69-24-2.6-36.04-2.75H508.94c-108.87 0.07-217.76-0.15-326.63 0.11z" p-id="1747"></path><path d="M491.59 185.82c40.02-3.5 80.94 3.39 117.44 20.22 33.34 15.26 62.95 38.58 85.66 67.36 21.62 27.3 37.03 59.51 44.52 93.53 9.27 41.7 6.92 85.96-6.99 126.37-11.75 34.34-31.73 65.83-57.76 91.12-26.15 25.59-58.46 44.83-93.4 55.65-40.26 12.48-83.9 13.73-124.82 3.68-36.81-8.99-71.28-27.26-99.47-52.57-27.64-24.69-49.26-56.07-62.41-90.72-19.94-52.13-20.15-111.47-0.66-163.75 19-51.69 57.13-95.94 105.3-122.59 28.41-15.81 60.19-25.54 92.59-28.3m-2.07 46.98c-35.18 4.17-68.99 18.8-96.22 41.44-23.2 19.16-41.66 44.03-53.24 71.82-12.64 30.15-17.02 63.7-12.7 96.1 4.43 34.28 18.79 67.18 40.83 93.8 20.06 24.44 46.43 43.65 75.88 55.17 36.78 14.53 78.21 16.75 116.37 6.44 36.3-9.73 69.43-30.82 93.65-59.55 22.83-26.79 37.8-60.21 42.44-95.11 5.21-37.63-1.44-76.85-19-110.56-16.31-31.68-41.94-58.46-72.86-76.19-34.51-20.01-75.58-28.22-115.15-23.36z" p-id="1748"></path><path d="M491.25 310.27c14.5-1.8 29.49 0.49 42.67 6.85 21.2 10.76 42.34 21.64 63.53 32.41 13.18 6.79 24.41 17.41 31.62 30.4 9.19 16.22 11.91 35.83 8.09 54.02-3.63 17.46-13.63 33.56-27.84 44.38-4.99 3.92-10.57 7.02-16.27 9.77-19.15 9.79-38.32 19.55-57.46 29.37-13.43 6.78-28.86 9.61-43.81 7.72-21.38-2.52-41.43-14.54-53.71-32.22-8.81-12.48-13.53-27.69-13.76-42.94-0.14-16.34-0.02-32.69-0.06-49.03 0.08-9.06-0.4-18.19 1.08-27.17 2.85-17.84 12.29-34.58 26.23-46.09 11.18-9.49 25.16-15.59 39.69-17.47m5.14 46.27c-9.99 1.62-19.02 8.45-23.05 17.78-2.27 4.88-2.63 10.37-2.61 15.68 0.05 19.33-0.02 38.65 0.03 57.98-0.01 7.02 2.02 14.15 6.51 19.64 8.23 10.59 23.93 14.92 36.11 8.81 18.39-9.25 36.65-18.74 55.02-28.02 5.52-3 11.65-5.31 15.93-10.12 8.45-8.77 10.28-22.82 5.08-33.71-2.79-5.88-7.62-10.72-13.39-13.68-17.89-9.11-35.74-18.27-53.63-27.37-7.9-4.41-16.65-8.85-26-6.99zM302.38 806.47c2.48-0.56 5.04-0.71 7.58-0.73 136.01 0.02 272.02 0 408.02 0.01 4.38 0.03 8.8-0.25 13.15 0.49 7.22 1.25 13.68 6.24 16.72 12.91 3.24 6.83 2.92 15.3-1 21.79-3.81 6.66-11.23 11.16-18.92 11.31H314.06c-4.93-0.07-10.1 0.55-14.74-1.5-8.72-3.32-14.94-12.35-14.62-21.72-0.36-10.45 7.57-20.26 17.68-22.56z" p-id="1749"></path></svg>