<?xml version="1.0" standalone="no"?><!DOCTYPE svg PUBLIC "-//W3C//DTD SVG 1.1//EN" "http://www.w3.org/Graphics/SVG/1.1/DTD/svg11.dtd"><svg t="1587521516711" class="icon" viewBox="0 0 1024 1024" version="1.1" xmlns="http://www.w3.org/2000/svg" p-id="17513" xmlns:xlink="http://www.w3.org/1999/xlink" width="200" height="200"><defs><style type="text/css"></style></defs><path d="M465.408 628.736h-248.32v-351.744h481.792v84.992s68.096-4.096 103.424 8.192v-91.136s-2.048-109.568-105.472-109.568h-473.6c0 2.048-103.424 10.24-103.424 115.712v336.896s-6.144 111.616 101.376 111.616 165.376 2.048 165.376 2.048 10.24 33.28-64 49.664c-78.848 14.336-148.992 14.336-159.232 68.096h417.792c0.512 1.024-121.856-88.064-115.712-224.768z" p-id="17514"></path><path d="M740.864 411.648c-121.856 0-221.184 99.328-221.184 221.184 0 121.856 99.328 221.184 221.184 221.184 121.856 0 221.184-99.328 221.184-221.184 0-121.856-99.328-221.184-221.184-221.184z m-35.328 53.76c10.24-2.048 22.528-4.096 33.28-4.096 12.288 0 24.576 2.048 37.376 4.096l-2.048 2.048c12.288 35.328 20.48 68.096 24.576 101.376-43.52 6.144-82.944 4.096-113.664 0 4.096-33.28 12.288-66.048 24.576-101.376l-4.096-2.048z m-134.656 200.704c-2.048-10.24-4.096-20.48-4.096-33.28 0-18.432 4.096-37.376 10.24-55.808 18.432 10.24 39.424 16.384 57.856 22.528-2.048 27.136-2.048 53.76 2.048 84.992-40.96-8.192-66.048-18.432-66.048-18.432z m20.992 49.664c18.432 6.144 37.376 12.288 53.76 16.384 4.096 16.384 8.192 33.28 14.336 51.712-28.672-14.336-53.76-39.424-68.096-68.096z m49.664-157.184c-24.576-6.144-41.472-14.336-45.568-16.384 16.384-27.136 39.424-47.616 66.048-61.952-8.192 20.48-16.384 47.104-20.48 78.336z m132.096 242.176c-10.24 2.048-22.528 4.096-33.28 4.096-10.24 0-20.48-2.048-31.232-2.048 0-2.048-10.24-24.576-18.432-61.952 37.376 4.096 70.144 4.096 101.376 0-7.68 32.768-16.384 53.248-18.432 59.904z m25.088-108.032c-43.52 6.144-82.944 4.096-115.712 0-2.048-24.576-4.096-51.712-2.048-80.896 45.568 8.192 87.04 6.144 121.856 0 0 29.184 0 56.32-4.096 80.896z m86.528-148.48c-14.336 6.144-29.184 10.24-43.52 14.336-6.144-31.232-12.288-55.808-18.432-74.24 25.088 14.336 47.616 34.816 61.952 59.904z m-61.952 237.568c6.144-16.384 10.24-33.28 14.336-49.664 20.48-4.096 37.376-10.24 51.712-16.384-14.336 28.672-36.864 51.712-66.048 66.048z m84.992-115.712c-20.48 8.192-41.472 14.336-61.952 18.432 4.096-31.232 4.096-57.856 2.048-84.992 31.232-10.24 51.712-20.48 55.808-22.528 6.144 16.384 10.24 35.328 10.24 55.808-2.048 12.8-4.096 23.04-6.144 33.28z" p-id="17515"></path></svg>