<?xml version="1.0" standalone="no"?><!DOCTYPE svg PUBLIC "-//W3C//DTD SVG 1.1//EN" "http://www.w3.org/Graphics/SVG/1.1/DTD/svg11.dtd"><svg t="1589443893774" class="icon" viewBox="0 0 1445 1024" version="1.1" xmlns="http://www.w3.org/2000/svg" p-id="11123" xmlns:xlink="http://www.w3.org/1999/xlink" width="282.2265625" height="200"><defs><style type="text/css"></style></defs><path d="M1312.264059 852.825304V67.860605a67.747241 67.747241 0 0 0-67.747241-67.747241h-200.757658a21.453293 21.453293 0 1 0 0 42.680762h201.660954A24.389007 24.389007 0 0 1 1269.809121 67.860605v784.964699zM174.787882 852.825304V67.860605a24.389007 24.389007 0 0 1 24.389007-25.066479h759.220748a21.227469 21.227469 0 0 0 21.227468-21.453293 21.227469 21.227469 0 0 0-21.227468-21.227469H199.176889a67.747241 67.747241 0 0 0-67.747241 67.747241v784.964699z" p-id="11124"></path><path d="M1219.450339 152.318832a59.843396 59.843396 0 0 0-59.843396-59.843396H284.538412A59.843396 59.843396 0 0 0 225.824137 152.318832v607.466928a59.843396 59.843396 0 0 0 59.843396 59.843396h874.165234A59.843396 59.843396 0 0 0 1219.450339 759.78576z m-42.680762 607.466928a17.388459 17.388459 0 0 1-17.162634 17.162634H284.538412a17.388459 17.388459 0 0 1-17.162634-17.162634V152.318832A17.388459 17.388459 0 0 1 284.538412 135.607846h875.294355a17.388459 17.388459 0 0 1 17.162634 17.162634zM1359.235479 851.922008H86.038996A86.26482 86.26482 0 0 0 0 937.961004a86.26482 86.26482 0 0 0 86.038996 86.038996h194.208758a20.098348 20.098348 0 0 0 18.291755-19.872524 19.872524 19.872524 0 0 0-19.6467-19.872524H90.329655a46.519772 46.519772 0 1 1 0-93.039544h1266.873407a46.519772 46.519772 0 0 1 0 93.039544H413.032346a19.872524 19.872524 0 0 0 0 39.745048h946.203133A86.26482 86.26482 0 0 0 1445.274476 937.961004a86.26482 86.26482 0 0 0-86.038997-86.038996z" p-id="11125"></path><path d="M552.140014 245.5842H383.901033a5.871428 5.871428 0 0 1-5.871428-7.000548 91.6846 91.6846 0 0 1 179.078541 0 6.5489 6.5489 0 0 1-4.968132 7.000548zM385.93345 299.104521h163.948323a2.935714 2.935714 0 0 1 3.387362 3.387362 30.937907 30.937907 0 0 1-30.260434 30.260434h-110.202179a30.937907 30.937907 0 0 1-30.260434-30.260434 3.613186 3.613186 0 0 1 3.387362-3.387362zM562.527925 258.456176h-125.332396c-1.354945 0-2.484066 1.129121-3.613186 1.129121l-8.129669 12.871976a2.032417 2.032417 0 0 1-3.387362 0l-15.581866-14.001097h-30.937906a5.645603 5.645603 0 0 0-5.871428 5.871428v16.259338a5.419779 5.419779 0 0 0 5.871428 5.645603h186.982385a5.419779 5.419779 0 0 0 5.871427-5.645603v-16.259338a7.226372 7.226372 0 0 0-5.871427-5.871428zM456.842229 529.219316c1.129121-1.354945 2.258241-1.354945 3.613186-2.484065l1.129121-1.129121v-1.129121h1.12912l2.258242-2.258241 1.12912-1.354945a70.457131 70.457131 0 0 0 17.614283-31.163731c6.774724-24.614831 34.776917-90.329655 49.907134-70.908779 1.129121 1.129121 2.258241 2.258241 3.387362 2.258242a14.452745 14.452745 0 0 0 18.51758-5.871428c7.000548-13.775272-5.645603-20.775821-12.646152-22.582414a9.25879 9.25879 0 0 1-4.742307-4.516482c-1.129121-7.000548-5.645603-22.582414-20.775821-16.259338a13.0978 13.0978 0 0 0-9.258789 16.259338s1.129121 2.258241 2.258241 3.387362c15.130217 17.388459-53.52032 33.647796-77.909327 37.260982a79.490096 79.490096 0 0 0-33.647796 11.517031l-1.129121 1.129121-2.258241 2.484066s-1.354945 0-1.354945 1.12912l-1.129121 1.129121h-1.129121l-3.387362 3.613186-1.12912 1.129121a53.746145 53.746145 0 0 0 67.747241 79.038448c0.677472 0.451648 1.806593 0.451648 1.806593-0.677473zM478.972994 579.12645l8.129669 18.51758a4.968131 4.968131 0 0 1-1.129121 3.613186 176.594475 176.594475 0 0 0-51.262079 38.164279 188.33733 188.33733 0 0 0-33.647796 51.262079c-1.129121 1.129121-2.258241 2.258241-3.387362 1.129121l-19.872524-5.871428c-2.258241-1.129121-4.516483-4.742307-3.387362-7.000548a188.563154 188.563154 0 0 1 37.035158-59.165924 200.080185 200.080185 0 0 1 59.391748-43.13241 6.5489 6.5489 0 0 1 8.129669 2.484065zM490.490025 618.645674a129.623055 129.623055 0 0 0-45.164827 32.518676 130.977999 130.977999 0 0 0-28.002193 45.164827c-1.129121 2.484066 0 3.613186 2.258241 4.742307l22.582414 8.129669a8.129669 8.129669 0 0 1 2.484065-4.742307 14.226921 14.226921 0 0 1 18.51758-1.12912 15.80769 15.80769 0 0 1 3.387362 14.001096L541.977928 745.333015c2.258241 1.354945 5.645603-2.258241 4.516483-4.516483L496.813101 620.903916a6.323076 6.323076 0 0 0-6.323076-2.258242z m-27.776369 45.164828c-2.258241-2.258241-3.613186-7.000548 0-9.25879a6.5489 6.5489 0 0 1 9.25879 9.25879 6.774724 6.774724 0 0 1-9.25879 0z m53.294497 31.389555a8.355493 8.355493 0 0 1-13.775273 0 9.710438 9.710438 0 1 1 13.775273 0zM649.696042 206.064976H1074.922891v27.776369H649.696042zM649.696042 258.456176h246.374133v27.776369H649.696042zM649.696042 387.401758h442.615308v27.776369h-442.615308zM649.696042 439.567134h353.18895v27.776369H649.696042zM649.696042 577.99733h407.838391v27.776369H649.696042zM649.696042 631.291826h325.186757v27.776369h-325.186757z" p-id="11126"></path></svg>