<?xml version="1.0" standalone="no"?><!DOCTYPE svg PUBLIC "-//W3C//DTD SVG 1.1//EN" "http://www.w3.org/Graphics/SVG/1.1/DTD/svg11.dtd">
<svg t="1587521913027" class="icon" viewBox="0 0 1024 1024" version="1.1" xmlns="http://www.w3.org/2000/svg" p-id="21193" xmlns:xlink="http://www.w3.org/1999/xlink" width="200" height="200">
    <defs>
        <style type="text/css"></style>
    </defs>
    <path d="M640 64H384C208 64 63.999 208 63.999 384v256c0 176 144 320 320.001 320h256c175.999 0 320.001-144 320.001-320V384c0-176-144.002-320-320.001-320zM445.582 762.033c-50.617 50.622-133.063 50.622-183.685 0-50.622-50.622-50.622-133.063 0-183.685L392.015 448.23c50.622-50.616 133.063-50.616 183.685 0 1.351 1.352 2.702 2.827 3.931 4.178 0.735 0.616 1.475 1.351 2.21 1.969 2.091 2.086 3.69 4.301 5.041 6.757 0.119 0.247 0.365 0.37 0.489 0.616l-0.124 0.119a31.076 31.076 0 0 1-5.529 36.619c-9.949 9.949-25.061 11.794-36.86 5.406-0.859 0.859-8.968-7.25-13.269-11.551-26.413-26.419-69.05-26.66-95.591-0.246L305.885 622.336c-26.418 26.413-26.418 69.296 0 95.71 26.418 26.418 69.296 26.418 95.715 0l78.509-78.51c27.277 13.392 59.22 13.762 86.743 1.105l-121.27 121.392zM762.088 445.65L631.969 575.769c-50.617 50.622-133.063 50.622-183.685 0-1.351-1.351-2.702-2.826-3.931-4.177-0.735-0.617-1.475-1.352-2.21-1.969-2.091-2.086-3.685-4.301-5.159-6.757-0.124-0.248-0.37-0.365-0.492-0.612l0.122-0.123a31.077 31.077 0 0 1 5.529-36.615c9.954-9.953 25.062-11.798 36.861-5.406 0.857-0.862 8.966 7.247 13.267 11.547 26.418 26.418 69.05 26.665 95.591 0.246l130.361-130.36c26.418-26.418 26.418-69.296 0-95.715-26.418-26.418-69.296-26.418-95.715 0l-78.51 78.51c-27.153-13.268-59.219-13.762-86.742-1.105l121.269-121.269c50.622-50.622 133.063-50.622 183.685 0 50.5 50.625 50.5 133.071-0.122 183.686z"
          p-id="21194"></path>
</svg>
