<?xml version="1.0" standalone="no"?><!DOCTYPE svg PUBLIC "-//W3C//DTD SVG 1.1//EN" "http://www.w3.org/Graphics/SVG/1.1/DTD/svg11.dtd">
<svg t="1587521773802" class="icon" viewBox="0 0 1024 1024" version="1.1" xmlns="http://www.w3.org/2000/svg" p-id="20212" xmlns:xlink="http://www.w3.org/1999/xlink" width="200" height="200">
    <defs>
        <style type="text/css"></style>
    </defs>
    <path d="M128 91.42857101l768 0A18.285714 18.285714 0 0 1 914.285714 109.714286L914.285714 914.285714a18.285714 18.285714 0 0 1-18.285714 18.28571499l-768 0a18.285714 18.285714 0 0 1-18.285714-18.28571499l0-804.571428a18.285714 18.285714 0 0 1 18.285714-18.28571499zM877.714286 128l-731.428572 0 0 768L877.714286 896z" p-id="20213"></path>
    <path d="M146.285714 347.428571L877.714286 347.428571a18.285714 18.285714 0 0 1 0 36.571429l-731.428572 0a18.285714 18.285714 0 0 1 0-36.571429zM694.857143 182.857143L768 182.857143a18.285714 18.285714 0 0 1 18.285714 18.285714l0 73.142857A18.285714 18.285714 0 0 1 767.99999999 292.571429l-73.142857 0a18.285714 18.285714 0 0 1-18.28571399-18.285715l0-73.142857a18.285714 18.285714 0 0 1 18.285714-18.285714z m54.857143 36.571428l-36.571429 0 0 36.571429 36.571429 0zM475.428571 182.857143l73.142858 0a18.285714 18.285714 0 0 1 18.285714 18.285714l0 73.142857a18.285714 18.285714 0 0 1-18.28571401 18.285715l-73.14285798 0a18.285714 18.285714 0 0 1-18.28571401-18.285715l0-73.142857a18.285714 18.285714 0 0 1 18.285714-18.285714z m54.857143 36.571428l-36.571428 0 0 36.571429 36.571428 0zM256 182.857143l73.142857 0a18.285714 18.285714 0 0 1 18.285714 18.285714l0 73.142857a18.285714 18.285714 0 0 1-18.28571399 18.285715l-73.142857 0a18.285714 18.285714 0 0 1-18.28571401-18.285715l0-73.142857a18.285714 18.285714 0 0 1 18.285714-18.285714z m54.857143 36.571428l-36.571429 0 0 36.571429 36.571429 0z"
          p-id="20214"></path>
</svg>
