<?xml version="1.0" standalone="no"?><!DOCTYPE svg PUBLIC "-//W3C//DTD SVG 1.1//EN" "http://www.w3.org/Graphics/SVG/1.1/DTD/svg11.dtd">
<svg t="1587522351132" class="icon" viewBox="0 0 1024 1024" version="1.1" xmlns="http://www.w3.org/2000/svg" p-id="26160" xmlns:xlink="http://www.w3.org/1999/xlink" width="200" height="200">
    <defs>
        <style type="text/css"></style>
    </defs>
    <path d="M285.52398875 137.00846656a175.87958625 175.87958625 0 0 0-175.92474094 175.90216407 175.90216406 175.90216406 0 1 0 351.826905 0 175.87958625 175.87958625 0 0 0-175.90216406-175.90216407z m0 306.60395157a130.72436531 130.72436531 0 1 1-0.02257781-261.44873063 130.72436531 130.72436531 0 0 1 0.02257781 261.44873063zM422.86359406 526.11100625H148.18438344c-37.38852281 0-67.73283188 30.36688594-67.73283094 67.73283188v308.54562562a67.73283188 67.73283188 0 0 0 67.73283094 67.73283188h274.67921062a67.73283188 67.73283188 0 0 0 67.73283094-67.73283188V593.84383813a67.73283188 67.73283188 0 0 0-67.73283094-67.73283188z m33.7986825 350.74318031a56.53433719 56.53433719 0 0 1-56.53433718 56.53433625H170.89746031a56.51175937 56.51175937 0 0 1-56.51175937-56.53433625v-257.38476a56.51175937 56.51175937 0 0 1 56.51175937-56.57949281h229.20790219a56.53433719 56.53433719 0 0 1 56.53433625 56.57949281v257.38476zM737.05362219 46.69802469a175.87958625 175.87958625 0 0 0-175.90216406 175.90216312 175.90216406 175.90216406 0 0 0 351.80432718 0A175.87958625 175.87958625 0 0 0 737.05362219 46.69802469z m0 306.60395062a130.72436531 130.72436531 0 1 1 0-261.49388531 130.72436531 130.72436531 0 0 1 0 261.49388531zM874.41580437 435.80056437H599.73659469c-37.38852281 0-67.73283188 30.38946375-67.73283188 67.73283188v308.54562563a67.73283188 67.73283188 0 0 0 67.73283188 67.73283093h274.67920968c37.43367844 0 67.73283188-30.29915344 67.73283188-67.73283094V503.53339625a67.73283188 67.73283188 0 0 0-67.73283188-67.73283188z m33.77610563 350.74317938a56.53433719 56.53433719 0 0 1-56.53433719 56.53433719H622.42709281a56.48918156 56.48918156 0 0 1-56.48918156-56.53433719v-257.38476a56.48918156 56.48918156 0 0 1 56.48918156-56.55691406h229.20790219a56.53433719 56.53433719 0 0 1 56.53433719 56.55691406v257.38476h0.02257781z"
          p-id="26161"></path>
</svg>
