<svg t="1592633782972" class="icon" viewBox="0 0 1024 1024" version="1.1" xmlns="http://www.w3.org/2000/svg" p-id="8855" width="200" height="200">
    <path d="M943.44644 306.678421a30.612174 30.612174 0 0 0-0.211824-4.45854c-0.549515-4.557801-6.634087-45.278184-50.222795-71.349954-50.276007-30.074939-105.661376-62.200582-106.214984-62.521899a30.743157 30.743157 0 0 0-7.14881-3.019774l-97.267204-56.239829a31.346907 31.346907 0 0 0-2.703572-1.69664l-6.880704-3.840464a25.618445 25.618445 0 0 0-0.515746-0.281409L528.511541 23.13386a30.78102 30.78102 0 0 0-3.524263-1.680267c-4.261043-1.70892-42.897976-15.945141-86.707718 9.743912-31.597617 18.525917-157.49997 93.775686-247.996986 147.915693l-88.92829 49.153441a30.786136 30.786136 0 0 0-3.739157 2.437513c-3.652176 2.779297-35.703118 28.624916-36.150302 79.412575-0.146333 16.61336-0.23536 55.875533-0.291642 103.657744a30.941679 30.941679 0 0 0-0.245593 3.818975l-0.050142 127.320653-0.002046 0.36532-0.001024 7.87945c0 0.158612 0.001023 0.316201 0.004094 0.47379l0.049118 164.703015c0 1.300621 0.083911 2.602265 0.248663 3.8947 0.584307 4.552685 6.967685 45.228042 50.746727 70.979516 26.677566 15.693408 121.535909 70.466841 205.426468 118.844617l134.779524 79.795291a31.047079 31.047079 0 0 0 2.149965 1.160428c2.525517 1.235129 17.5548 8.103554 39.294918 8.103554 13.481022 0 29.54589-2.657524 46.805979-10.920713 0.296759-0.138146 0.59454-0.273222 0.889252-0.420579l0.199545-0.094144a31.187272 31.187272 0 0 0 2.841718-1.589193L753.12805 867.83442a31.521893 31.521893 0 0 0 2.089589-1.123589l6.793723-3.992936 0.480954-0.288573 141.867959-83.505795a30.389094 30.389094 0 0 0 3.232621-2.190896c3.62864-2.812043 35.451385-28.938047 35.451385-79.7298 0-36.631255-1.236153-183.339449-2.169407-288.794117l2.571566-101.530293zM870.475571 727.624215l-139.895027 82.345368-217.205733 125.083708c-10.66898 4.968147-19.891006 5.056151-25.820037 4.222157-12.907971-7.433289-72.584059-41.798947-139.227832-80.229172l-9.45534-5.598503a30.761577 30.761577 0 0 0-2.806926-1.473559c-80.620075-46.496941-167.730975-96.810809-193.012752-111.683527-14.957652-8.799401-19.545129-20.958313-20.72807-25.147725v-0.205684c0.128936-1.142009 0.200568-2.302437 0.199545-3.479238-0.002047-3.418863-0.174985-342.56778 0.336667-400.799985 0.090051-10.314916 3.041263-18.030637 6.057967-23.261773 11.322872-6.78042 47.251116-28.291318 91.971599-55.045632l0.49221-0.273223a30.327695 30.327695 0 0 0 2.031261-1.238199c90.274959-54.004931 214.66896-128.353168 245.920699-146.675447 14.970955-8.778935 27.823668-6.861261 32.058105-5.853306l141.561991 78.905016 213.674307 123.547727c0.560771 0.324388 1.129729 0.62217 1.700734 0.906648l3.165083 1.892091c8.84238 5.288441 14.016211 11.733217 17.004262 16.976633 0.121773 13.184264 0.507559 55.062005 0.96907 107.182008l-0.01535 0.573051c-0.021489 0.803295 0 1.598403 0.040932 2.387371 0.929161 105.190656 2.149964 250.097832 2.149964 286.321811 0.001023 17.356279-8.155742 27.476767-11.167329 30.621384z"
          p-id="8856"></path>
    <path d="M750.946363 312.685223L495.742239 461.742925 235.75621 310.274316c-14.648614-8.537435-33.445706-3.578498-41.979049 11.071138s-3.577475 33.444683 11.071139 41.979049L465.195556 515.004936l2.263551 298.688454c0.127913 16.875326 13.846342 30.465842 30.693016 30.465842l0.237407-0.001023c16.871232-0.127913 30.460725-13.841226 30.465841-30.682783l-0.001023-0.24764-2.261505-298.399882 255.317712-149.123193c14.64145-8.550738 19.577875-27.351924 11.026113-41.992352-8.549715-14.640427-27.350901-19.576851-41.990305-11.027136z" p-id="8857"></path>
</svg>
