<?xml version="1.0" standalone="no"?><!DOCTYPE svg PUBLIC "-//W3C//DTD SVG 1.1//EN" "http://www.w3.org/Graphics/SVG/1.1/DTD/svg11.dtd">
<svg t="1587521778960" class="icon" viewBox="0 0 1024 1024" version="1.1" xmlns="http://www.w3.org/2000/svg" p-id="20333" xmlns:xlink="http://www.w3.org/1999/xlink" width="200" height="200">
    <defs>
        <style type="text/css"></style>
    </defs>
    <path d="M896 932.571429h-768A18.285714 18.285714 0 0 1 109.714286 914.285714V109.714286a18.285714 18.285714 0 0 1 18.285714-18.285715h768a18.285714 18.285714 0 0 1 18.285714 18.285715v804.571428a18.285714 18.285714 0 0 1-18.285714 18.285715zM146.285714 896h731.428572v-768H146.285714z" p-id="20334"></path>
    <path d="M877.714286 676.571429H146.285714a18.285714 18.285714 0 0 1 0-36.571429h731.428572a18.285714 18.285714 0 0 1 0 36.571429zM329.142857 841.142857H256a18.285714 18.285714 0 0 1-18.285714-18.285714v-73.142857A18.285714 18.285714 0 0 1 256 731.428571h73.142857a18.285714 18.285714 0 0 1 18.285714 18.285715v73.142857a18.285714 18.285714 0 0 1-18.285714 18.285714z m-54.857143-36.571428h36.571429v-36.571429h-36.571429zM548.571429 841.142857h-73.142858a18.285714 18.285714 0 0 1-18.285714-18.285714v-73.142857a18.285714 18.285714 0 0 1 18.285714-18.285715h73.142858a18.285714 18.285714 0 0 1 18.285714 18.285715v73.142857a18.285714 18.285714 0 0 1-18.285714 18.285714z m-54.857143-36.571428h36.571428v-36.571429h-36.571428zM768 841.142857h-73.142857a18.285714 18.285714 0 0 1-18.285714-18.285714v-73.142857a18.285714 18.285714 0 0 1 18.285714-18.285715h73.142857a18.285714 18.285714 0 0 1 18.285714 18.285715v73.142857a18.285714 18.285714 0 0 1-18.285714 18.285714z m-54.857143-36.571428h36.571429v-36.571429h-36.571429z"
          p-id="20335"></path>
</svg>
