<?xml version="1.0" standalone="no"?><!DOCTYPE svg PUBLIC "-//W3C//DTD SVG 1.1//EN" "http://www.w3.org/Graphics/SVG/1.1/DTD/svg11.dtd">
<svg t="1589442847269" class="icon" viewBox="0 0 1024 1024" version="1.1" xmlns="http://www.w3.org/2000/svg" p-id="2038" xmlns:xlink="http://www.w3.org/1999/xlink" width="200" height="200">
    <defs>
        <style type="text/css"></style>
    </defs>
    <path d="M754.8 692.5c-41.3 0-74.9 33.6-74.9 74.9 0 41.3 33.6 74.9 74.9 74.9 41.3 0 74.9-33.6 74.9-74.9 0-41.3-33.6-74.9-74.9-74.9z m0 111.2c-20 0-36.3-16.3-36.3-36.3 0-20 16.3-36.3 36.3-36.3 20 0 36.3 16.3 36.3 36.3 0 20-16.3 36.3-36.3 36.3z" p-id="2039"></path>
    <path d="M952.8 728.2c-2.8-14.8-12.3-24.4-24.5-24.4h-1.7c-23.4 0-42.4-19-42.4-42.4 0-6.1 2.7-13.7 3.7-16 5.8-13 1.3-29-11.5-37.9L826.7 580c-3.9-1.7-8.1-2.5-12.5-2.5-9 0-17.9 3.7-23.7 9.7-6.2 6.4-22.6 19.5-33.9 19.5-11.4 0-27.9-13.4-34.1-19.9-5.9-6.2-14.9-10-23.9-10-4.3 0-8.5 0.8-12.2 2.4l-0.9 0.4-50.5 27.8-1.2 0.8c-11.7 8.2-16.2 24.1-10.5 37.1 0.4 0.9 3.8 9.1 3.8 16.2 0 23.4-19 42.4-42.4 42.4h-2c-11.9 0-21.4 9.6-24.2 24.4-0.4 2.3-4.2 22.8-4.2 39.4 0 16.6 3.8 37.1 4.2 39.4 2.8 14.8 12.3 24.4 24.5 24.4h1.7c23.4 0 42.4 19 42.4 42.4 0 6.1-2.7 13.7-3.7 16-5.8 13-1.3 29 11.5 37.9l48.6 27.1c3.9 1.7 8.1 2.6 12.5 2.6 9.1 0 18.1-3.8 24-10.2 6-6.5 23-20.7 34.6-20.7 11.7 0 28.6 14.3 34.8 21.2 5.9 6.5 14.9 10.4 24.1 10.4 4.3 0 8.5-0.8 13.5-3.1l49.2-27.2 1.2-0.8c11.7-8.1 16.2-24.1 10.4-37-0.4-0.9-3.8-9.1-3.8-16.2 0-23.4 19-42.4 42.4-42.4h2c11.9 0 21.5-9.6 24.3-24.4 0-0.2 4.2-22 4.2-39.4 0.1-16.7-3.7-37.2-4.1-39.5z m-36.9 65.3c-39.9 5.2-70.4 39.3-70.4 80.3 0 9.5 2.3 18.4 4.3 24.5l-35.5 19.6c-3.2-3.1-8.3-7.8-14.6-12.5-15.7-11.6-30.9-17.6-45.1-17.6-14.1 0-29.2 5.8-44.8 17.2-5.1 3.8-9.9 7.8-14.5 12.2l-33.9-19c2-6.1 4.3-15.1 4.3-24.6 0-41-30.4-75.1-70.4-80.3-1-6.6-2.5-17.4-2.5-25.9 0-8.6 1.4-19.3 2.5-25.9 39.9-5.2 70.4-39.3 70.4-80.3 0-9.4-2.3-18.4-4.3-24.5l36.6-20.1c3.2 3 8.3 7.5 14.5 12 15.4 11 30.2 16.5 44.1 16.5 13.7 0 28.4-5.5 43.7-16.2 6.2-4.4 11.2-8.7 14.5-11.7l35.1 19.5c-2 6.1-4.3 15.1-4.3 24.5 0 41 30.4 75.1 70.3 80.3 1 6.7 2.5 17.5 2.5 25.9 0 8.7-1.4 19.4-2.5 26.1zM427.3 671.4l-133.6 0.3c-11.5 0-22.1 6.1-27.9 16.1-5.7 10-5.7 22.2 0 32.2 5.8 10 16.4 16.1 27.9 16.1l133.6-0.3c11.5 0 22.1-6.1 27.9-16.1 5.7-10 5.7-22.2 0-32.2-5.8-10-16.4-16.1-27.9-16.1zM698.2 515.6c6.1-6.1 9.4-14.5 9.1-23.1 0.3-8.6-3-17-9.1-23.1-6.1-6.1-14.5-9.4-23.1-9.1l-381.5 0.8c-8.6-0.2-17 3.1-23.1 9.2-6 6.2-9.3 14.5-9.1 23.2-0.2 8.6 3.1 16.9 9.2 23 6.1 6.1 14.4 9.4 23.1 9.1l381.6-0.8c8.4 0.2 16.8-3.1 22.9-9.2zM298.5 319.1l0.2 0.5h157.9c9.4 0.9 18.7-2.2 25.7-8.4 7-6.3 11.1-15.1 11.3-24.5-0.4-9.2-4.6-17.9-11.6-23.9-7-6.1-16.1-9-25.3-8.1H298.5c-12.6-1.8-25.1 3.9-32 14.6-6.9 10.7-6.9 24.5 0 35.2 6.9 10.7 19.4 16.4 32 14.6z"
          p-id="2040"></path>
    <path d="M528 894.8h-0.2l-335.6 0.5c-13.8 0-25-11.1-25-24.9l-1.5-715.7c0-6.6 2.7-13 7.4-17.6 4.6-4.7 11-7.3 17.6-7.3l610.4-1.3c13.8 0 25 11.2 25 25l0.7 347.4c0.7 17.3 15 30.9 32.2 30.9 17.3 0 31.5-13.6 32.2-30.9l-0.8-347.5c-0.2-49.4-40.2-89.4-89.6-89.5l-610.3 1.4c-48.8 0.2-88.3 39.5-89.1 88.1v73.3l1.4 643.7c0.2 49.3 40.3 89.3 89.6 89.3l335.6-0.5c17.3-0.7 30.9-15 30.9-32.2 0-17.3-13.6-31.5-30.9-32.2z" p-id="2041"></path>
</svg>
