<?xml version="1.0" standalone="no"?><!DOCTYPE svg PUBLIC "-//W3C//DTD SVG 1.1//EN" "http://www.w3.org/Graphics/SVG/1.1/DTD/svg11.dtd">
<svg t="1592789958325" class="icon" viewBox="0 0 1024 1024" version="1.1" xmlns="http://www.w3.org/2000/svg" p-id="1898" xmlns:xlink="http://www.w3.org/1999/xlink" width="220" height="220">
    <defs>
        <style type="text/css"></style>
    </defs>
    <path d="M715.9 437.8c0-15.7-12.7-28.4-28.4-28.4H296.8c-15.7 0-28.4 12.7-28.4 28.4s12.7 28.4 28.4 28.4h390.7c15.7 0.1 28.4-12.8 28.4-28.4zM268.5 619.2c0 15.7 12.7 28.4 28.4 28.4h151.4c9.4-20.8 22.1-39.6 36.8-56.8H296.8c-15.6 0-28.3 12.7-28.3 28.4z" p-id="1899"></path>
    <path d="M473.8 889.6H214.2c-7.8 0-14.4-6.6-14.4-14.4V213.5c0-7.8 6.6-14.4 14.4-14.4H331v54.6c0 15.7 12.7 28.4 28.4 28.4s28.4-12.7 28.4-28.4v-54.6h194.9v54.6c0 15.7 12.7 28.4 28.4 28.4s28.4-12.7 28.4-28.4v-54.6h130.7c7.8 0 14.4 6.6 14.4 14.4v322.8c20.9 11.6 40.3 25.5 56.8 42.5V213.5c0-39.3-31.9-71.2-71.2-71.2H639.5V92.5c0-15.7-12.7-28.4-28.4-28.4s-28.4 12.7-28.4 28.4v49.9H387.8V92.5c0-15.7-12.7-28.4-28.4-28.4S331 76.8 331 92.5v49.9H214.2c-39.3 0-71.2 31.9-71.2 71.2v661.5c0 39.3 31.9 71.2 71.2 71.2h317.6c-22.5-15.4-41.8-34.9-58-56.7z" p-id="1900"></path>
    <path d="M878.8 712.6c-0.9-2.2-2.3-4.3-3.9-6-3.4-3.4-6.8-6.3-10.8-8.8-2.4-1.6-4.9-3-7.5-4.2-0.8-0.5-1.7-0.9-2.6-1.3-12.1-5.4-20.5-11.8-21.1-12.2-0.9-3.3 1-14.7 5.3-25.7 0-0.2 0.1-0.3 0.1-0.4 0.6-1.2 1-2.6 1.3-3.9 0.7-2.2 1.3-4.5 1.9-7 1-4.7 1.4-9.4 1.2-13.9 0-2.3-0.5-4.5-1.4-6.6-0.9-2.3-4.6-7.9-6.3-9.6l-33.1-33.1c-2.7-2.5-5.7-4.5-9.1-5.9-6.2-2.6-14.1-1.6-20.8-0.2-2.6 0.5-5.2 1.2-7.7 2.1-1.2 0.3-2.3 0.7-3.5 1.2-9.1 3.4-18.1 5.6-23.7 6.3-2.6-1.5-9.1-9.9-15-23.2-0.4-0.9-0.8-1.7-1.2-2.4-1.2-2.4-2.5-4.6-3.7-6.5-2.6-4.1-5.7-7.8-9.1-11.1-1.7-1.5-3.6-2.8-5.6-3.6-2.4-1-8.8-2.3-11.4-2.3h-46.3c-2.5 0-8.9 1.3-11.1 2.2-2.2 0.9-4.2 2.2-6 3.9-3.3 3.2-6.3 6.8-8.9 10.8-1.8 2.7-3.4 5.5-4.8 8.6-0.3 0.5-0.6 1.1-0.8 1.6-5.4 12.1-11.9 20.6-14.5 21.3-5.5 0-14.6-2.2-24.7-6-0.9-0.4-1.8-0.6-2.7-0.9-2.5-0.8-4.9-1.5-7.4-2-4.2-0.9-8.4-1.3-13.7-1.3-1.4-0.1-4.9 0.5-7.2 1.5-2.2 0.9-7.6 4.6-9.4 6.3l-32.8 32.8c-1.7 1.7-5.2 7.1-6.1 9.3-0.9 2.2-1.4 4.5-1.4 6.9 0 4.8 0.4 9.4 1.3 13.7 0.6 2.9 1.3 5.8 2.4 8.6 0.3 0.9 0.6 1.7 0.9 2.6 4.9 13 6.1 23.1 6.3 23.5-1.5 2.6-9.9 9.2-19.1 13.5-1.1 0.3-3.6 1.3-4.6 1.8-0.7 0.3-1.3 0.6-1.9 1-2.4 1.2-4.6 2.5-6.5 3.8-3.8 2.5-7.5 5.4-10.8 8.7-1.9 1.9-3.4 4.2-4.3 6.7-0.8 2.1-1.9 8.3-1.9 10.6V770c0 2.5 1.3 9 2.3 11.3 0.9 2.2 2.2 4.2 3.8 5.8 3.2 3.3 6.8 6.3 10.6 8.7 2.5 1.7 5.3 3.3 10.4 5.7 12.1 5.4 20.6 11.9 21.1 12.2 0.8 2.7-0.4 12.6-5.1 25.4-0.2 0.4-0.4 0.9-0.5 1.3-0.5 1.1-0.8 2.2-1.1 3.3-0.8 2.3-1.4 4.7-1.9 7.1-0.9 4.6-1.3 9.2-1.3 13.7 0 2.4 0.6 4.9 1.5 7.1 0.9 2.2 4.5 7.7 6.2 9.4l33 32.9c1.8 1.7 7.2 5.3 9.5 6.3 6.2 2.6 13.6 1.5 20.6 0.1 3.2-0.7 6.4-1.6 9.6-2.8 0.5-0.1 1-0.3 1.5-0.5 6.7-2.5 16.9-5.5 23.6-6.3 2.5 1.4 8.8 9.4 14.5 22 0 0.1 0.1 0.2 0.1 0.3 0.5 1.2 1 2.3 1.6 3.4 1.2 2.3 2.5 4.4 3.8 6.6 2.6 4 5.6 7.5 8.8 10.7 1.8 1.7 3.7 3 6 3.9s8.7 2.2 11.1 2.2h46.3c2.5 0 8.9-1.2 11.2-2.2 2.2-0.9 4.2-2.2 6-3.9 3.3-3.2 6.3-6.9 8.7-10.5 1.8-2.7 3.4-5.5 4.7-8.4 0.3-0.5 0.6-1 0.8-1.5 0.2-0.3 0.3-0.7 0.5-1 5.4-11.8 11.7-20.1 14.2-20.8 6.7 0 16.9 3 21.9 4.8 0.7 0.4 1.5 0.7 2.3 0.9 1.1 0.5 2.2 0.9 3.4 1.1 2.3 0.8 4.7 1.4 7.2 1.9 4.1 0.9 8.3 1.3 13.6 1.3 3.2 0 5.2-0.6 7.5-1.6 2.1-0.9 7.4-4.5 9.1-6.2l32.9-32.9c1.7-1.7 5.2-7.1 6.1-9.3 0.9-2.1 1.4-4.4 1.4-6.7 0.1-4.5-0.3-9.2-1.3-14.4-0.3-1.5-0.7-3-1.1-4.5-0.3-2-0.9-3.9-1.8-5.8-0.1-0.3-0.2-0.6-0.3-0.8-4.3-11-6.2-22.3-6.2-23.4 1.4-2.5 9.4-8.8 23.2-15 0.9-0.4 1.8-0.9 2.7-1.4 2.2-1.1 4.4-2.4 6.2-3.6 3.9-2.5 7.5-5.5 10.8-8.9 1.5-1.5 2.7-3.3 3.6-5.3 1.1-2.5 2.5-9.1 2.5-11.8v-46.4c0.1-2.3-1.2-8.7-2.1-10.9z m-38.7 53.7c-0.6 0.3-1.2 0.6-1.8 1-11.9 5.3-32.6 16.5-41.2 34.4-5.8 16.9 1.2 39.7 5.8 51.7l0.3-0.1c0.2 1.8 0.6 3.6 1.2 5.1L780 883.3c-1-0.2-2.3-0.5-3.8-0.9-0.6-0.3-1.3-0.5-1.9-0.6-0.1 0-0.3-0.1-0.4-0.2-8-3-22.9-7.8-36.5-7.8-5.4 0-10.3 0.7-16.7 3.1-15.9 7.7-27.1 28.8-32.4 40.6-0.2 0.4-0.3 0.8-0.5 1.1-0.8 1.2-1.6 2.3-2.2 3.5l-34.6 0.5c-0.6-1-1.4-2.2-2.3-3.8l-0.6-1.2c0-0.1 0-0.1-0.1-0.2s-0.1-0.2-0.2-0.3c-6.5-14.4-17.3-32.9-34.4-41.2-14.9-5.3-38.1 0.7-52.8 6.2-1.4 0.2-2.8 0.6-4.1 1.1l-24.7-24.1c0.2-1.1 0.6-2.5 1-4.2l0.6-1.8c5.6-14.8 11.1-35.8 4.9-53.7-7.9-16-28.9-27.1-41.3-32.6v0.2c-1.3-1-2.6-1.8-3.9-2.5l-0.3-34.8c0.9-0.6 2-1.3 3.4-2.1l1.8-0.9c11.8-5.3 32.6-16.4 41.3-34.5 5.3-15.4 0.1-35.8-6.3-52.8-0.2-1.4-0.6-2.8-1-4l24.2-24.8c1.1 0.2 2.4 0.6 4.2 1l1.8 0.6c7.9 3 23.2 8 37 8 5.3 0 10.2-0.7 16.7-3.1 15-7.4 25.8-26.6 32.6-41.4 0.9-1.3 1.8-2.6 2.3-3.9l34.6-0.6c0.6 1 1.4 2.2 2.4 3.8 0.2 0.6 0.6 1.1 0.8 1.7 5.4 12 16.6 32.9 34.6 41.3 15.3 5.1 41.2-1.9 49.5-5.2 0.7-0.2 2.1-0.7 3.2-1.1 1.4-0.2 2.7-0.6 4-1l24.9 24.1c-0.3 1.1-0.6 2.5-1.1 4.2l-0.6 1.8c-4.7 12.1-11.5 34.6-4.9 53.5 7.8 16 28.9 27.2 37.1 30.4 1.1 0.8 3.2 1.9 4.8 2.6 1.2 0.8 2.3 1.5 3.5 2.1l0.7 34.5c-1.3 0.7-2.6 1.4-4.2 2.4z"
          p-id="1901"></path>
    <path d="M668.1 645.8c-55.7 0-101.1 45.3-101.1 101.1S612.4 848 668.1 848s101.1-45.3 101.1-101.1c0-55.7-45.4-101.1-101.1-101.1z m0 164.4c-34.8 0-63.2-28.3-63.2-63.2 0-34.8 28.3-63.2 63.2-63.2s63.2 28.3 63.2 63.2c-0.1 34.8-28.4 63.2-63.2 63.2z" p-id="1902"></path>
</svg>
