<?xml version="1.0" standalone="no"?><!DOCTYPE svg PUBLIC "-//W3C//DTD SVG 1.1//EN" "http://www.w3.org/Graphics/SVG/1.1/DTD/svg11.dtd">
<svg t="1587028587685" class="icon" viewBox="0 0 1024 1024" version="1.1" xmlns="http://www.w3.org/2000/svg" p-id="4115" xmlns:xlink="http://www.w3.org/1999/xlink" width="200" height="200">
    <defs>
        <style type="text/css"></style>
    </defs>
    <path d="M1024 754.517333c0 59.528533-53.930667 107.793067-120.490667 107.793067H301.192533c-66.525867 0-120.456533-48.264533-120.456533-107.793067V107.793067C180.701867 48.264533 234.632533 0 301.192533 0H781.994667c8.567467 0.2048 16.0768 2.56 21.845333 7.714133l211.490133 189.2352c5.768533 5.12 8.3968 11.8784 8.465067 18.6368 0.068267 0.443733 0.136533 180.087467 0.170667 538.965334zM783.0528 64.785067v123.835733c0 14.882133 13.482667 26.965333 30.1056 26.965333h138.4448L783.018667 64.785067z m180.701867 204.6976h-180.701867c-33.28 0-60.245333-24.132267-60.245333-53.930667V53.930667H301.1584c-33.245867 0-60.2112 24.132267-60.2112 53.896533v646.724267c0 29.764267 26.965333 53.930667 60.2112 53.930666h602.385067c33.245867 0 60.2112-24.1664 60.2112-53.930666V269.482667z m-180.701867 377.2416H421.649067c-16.622933 0-30.139733-12.049067-30.139734-26.965334 0-14.848 13.5168-26.9312 30.139734-26.9312H783.018667c16.657067 0 30.1056 12.0832 30.1056 26.965334 0 14.882133-13.448533 26.965333-30.1056 26.965333z m0-107.793067H421.649067c-16.622933 0-30.139733-12.049067-30.139734-26.965333 0-14.848 13.5168-26.9312 30.139734-26.9312H783.018667c16.657067 0 30.1056 12.0832 30.1056 26.965333 0 14.882133-13.448533 26.965333-30.1056 26.965333z m-210.807467-107.793067h-150.596266c-16.622933 0-30.139733-12.049067-30.139734-26.965333 0-14.848 13.5168-26.897067 30.139734-26.897067h150.596266c16.622933 0 30.1056 12.049067 30.1056 26.9312 0 14.882133-13.482667 26.965333-30.1056 26.965334zM120.490667 215.586133c-33.28 0-60.245333 24.132267-60.245334 53.896534v646.724266c0 29.764267 26.965333 53.896533 60.245334 53.896534h602.350933c33.245867 0 60.2112-24.132267 60.2112-53.896534 0-14.882133 13.482667-26.965333 30.139733-26.965333 16.622933 0 30.1056 12.0832 30.1056 26.965333 0 59.528533-53.930667 107.793067-120.490666 107.793067H120.490667C53.930667 1024 0 975.735467 0 916.206933V269.482667C0 209.92 53.930667 161.6896 120.490667 161.6896c16.622933 0 30.1056 12.049067 30.1056 26.965333 0 14.848-13.482667 26.9312-30.1056 26.9312z"
          p-id="4116"></path>
</svg>
