<?xml version="1.0" standalone="no"?><!DOCTYPE svg PUBLIC "-//W3C//DTD SVG 1.1//EN" "http://www.w3.org/Graphics/SVG/1.1/DTD/svg11.dtd">
<svg t="1587522054396" class="icon" viewBox="0 0 1188 1024" version="1.1" xmlns="http://www.w3.org/2000/svg" p-id="23192" xmlns:xlink="http://www.w3.org/1999/xlink" width="232.03125" height="200">
    <defs>
        <style type="text/css"></style>
    </defs>
    <path d="M1159.02519 246.785603l-544.85133-242.619093a51.280125 51.280125 0 0 0-40.062598 0L29.259932 246.785603a49.03662 49.03662 0 0 0 0 89.740219l544.85133 242.619092a47.754617 47.754617 0 0 0 39.742097 0l457.034116-203.838498v284.925196a36.537089 36.537089 0 0 0 73.074178 0v-317.616276l13.781534-6.410015a48.716119 48.716119 0 0 0 29.165571-44.549609 49.677621 49.677621 0 0 0-27.883568-44.870109zM595.264313 508.314241L109.705628 291.655712 595.264313 74.997183 1080.822999 291.655712z" p-id="23193"></path>
    <path d="M261.9435 499.019718a34.934585 34.934585 0 0 0-14.743036-3.205008 35.896088 35.896088 0 0 0-36.53709 36.53709v168.903912c0 194.543975 151.276369 322.744288 384.600939 322.744288s384.600939-126.277308 384.600939-320.500782v-171.147418a36.537089 36.537089 0 0 0-50.959624-32.050079l-333.641315 147.43036z m644.847574 89.419719v112.816275c0 230.760563-238.452582 248.388106-311.526761 248.388106s-311.847261-17.627543-311.847261-248.388106v-112.816275l297.104225 132.366823a36.216588 36.216588 0 0 0 29.486072 0z" p-id="23194"></path>
</svg>
