<?xml version="1.0" standalone="no"?><!DOCTYPE svg PUBLIC "-//W3C//DTD SVG 1.1//EN" "http://www.w3.org/Graphics/SVG/1.1/DTD/svg11.dtd">
<svg t="1587521059854" class="icon" viewBox="0 0 1239 1024" version="1.1" xmlns="http://www.w3.org/2000/svg" p-id="9423" xmlns:xlink="http://www.w3.org/1999/xlink" width="241.9921875" height="200">
    <defs>
        <style type="text/css"></style>
    </defs>
    <path d="M1160.81327229 771.61969312h-76.27824975v-60.05631885h76.25305591V158.2958208h-76.25305591V98.23950195h76.25305591a60.57569971 60.57569971 0 0 1 61.1212434 60.05631885v553.26755347a60.57569971 60.57569971 0 0 1-61.09508056 60.05631885z m-171.58754443 85.03892578H256.07604011a60.60186254 60.60186254 0 0 1-61.1212434-60.05534986V75.95941967A60.60186254 60.60186254 0 0 1 256.07604011 15.90310084h733.14968775a60.60186254 60.60186254 0 0 1 61.1212434 60.05631883V796.60326904a60.60186254 60.60186254 0 0 1-61.06891772 60.05631885zM256.07604011 796.60326904h2.44380322a66.21718359 66.21718359 0 0 1-2.44380322-2.26163232v2.26163232zM989.22572786 75.95941967H256.07604011v604.25021119l26.46613697-29.74230615 176.0080957-160.1485686 176.00809571 160.1485686 117.27736084-100.09321875 237.51984375 246.22916308V75.95941967zM681.56330526 322.11009424a114.26185107 114.26185107 0 1 1 114.23568823 112.44208008 113.35293457 113.35293457 0 0 1-114.23568823-112.44208008zM21.52034944 711.17383862V157.90531616a60.57569971 60.57569971 0 0 1 61.09508057-60.02918701h76.27921875v60.02918702h-76.27921875v553.26852246h76.27921875v60.05534985h-76.27921875A60.57569971 60.57569971 0 0 1 21.4951556 711.17383862zM458.88845174 942.99890381a32.4457998 32.4457998 0 1 1-31.95161279 32.4457998 32.21130322 32.21130322 0 0 1 31.92544995-32.4457998z m150.03517676 0a32.4457998 32.4457998 0 1 1-32.34114844 32.4457998 32.39347412 32.39347412 0 0 1 32.18514038-32.4457998z m150.45184424 0a32.4457998 32.4457998 0 1 1-32.36731129 32.4457998 32.39347412 32.39347412 0 0 1 32.34114844-32.4457998z"
          p-id="9424"></path>
</svg>
