<svg width="18" height="18" viewBox="0 0 18 18" xmlns="http://www.w3.org/2000/svg">
<path d="M4.7307 4.07661C4.98048 4.81657 4.92105 5.65802 4.49636 6.39C4.06828 7.12778 3.35781 7.60141 2.58177 7.75225C2.50216 8.15804 2.46044 8.57729 2.46044 9.00622C2.46044 9.41255 2.49786 9.81018 2.56945 10.1959C3.35031 10.3441 4.06602 10.8188 4.49636 11.5605C4.9302 12.3082 4.98287 13.1703 4.71412 13.9216C5.33381 14.4571 6.05578 14.8785 6.84697 15.1529C7.36647 14.5437 8.14153 14.1571 9.00733 14.1571C9.87127 14.1571 10.6449 14.5421 11.1643 15.149C11.9485 14.8754 12.6644 14.4573 13.2797 13.9268C13.0088 13.1743 13.0607 12.31 13.4956 11.5605C13.9275 10.8162 14.6467 10.3407 15.4308 10.1943C15.5022 9.8091 15.5395 9.412 15.5395 9.00622C15.5395 8.57785 15.498 8.15911 15.4185 7.75383C14.6392 7.60477 13.9252 7.13039 13.4956 6.38997C13.0699 5.65625 13.0112 4.8125 13.2631 4.07125C12.6515 3.5476 11.9414 3.13457 11.1643 2.86346C10.6449 3.47039 9.87127 3.85536 9.00733 3.85536C8.14153 3.85536 7.36647 3.46874 6.84697 2.85952C6.06283 3.13149 5.34667 3.54785 4.73072 4.07658V4.0766L4.7307 4.07661ZM3.77675 2.97625C4.53725 2.32347 5.41514 1.81719 6.36633 1.48728C6.93641 1.28957 7.56998 1.46127 7.96058 1.91933C8.22086 2.22455 8.59798 2.40216 9.00734 2.40216C9.41584 2.40216 9.79222 2.22532 10.0525 1.92125C10.4439 1.46389 11.0778 1.29335 11.6475 1.49211C12.5902 1.821 13.4606 2.32327 14.2157 2.96972C14.6667 3.35597 14.8372 3.97586 14.6466 4.53678C14.5205 4.90778 14.558 5.31446 14.7604 5.66336C14.9647 6.01546 15.3042 6.25214 15.6943 6.32675C16.2797 6.43872 16.738 6.89355 16.852 7.47582C16.9502 7.97691 17 8.48882 17 9.00624C17 9.49655 16.9553 9.98194 16.867 10.4579C16.7575 11.0489 16.2937 11.5118 15.7002 11.6226C15.3078 11.6959 14.9658 11.9332 14.7604 12.2871C14.5536 12.6435 14.5191 13.0602 14.6547 13.4368C14.8579 14.0015 14.6917 14.6325 14.236 15.0252C13.4764 15.6801 12.5988 16.1885 11.6475 16.5204C11.0778 16.7192 10.4439 16.5486 10.0525 16.0913C9.79222 15.7872 9.41584 15.6103 9.00734 15.6103C8.59797 15.6103 8.22084 15.788 7.96058 16.0932C7.56998 16.5512 6.93641 16.7229 6.36633 16.5252C5.40664 16.1924 4.52159 15.68 3.75648 15.0188C3.30266 14.6266 3.13666 13.9978 3.33825 13.4342C3.47275 13.0583 3.43789 12.6427 3.23159 12.2871C3.02697 11.9344 2.68659 11.6976 2.29581 11.6234C1.70433 11.5111 1.2427 11.0491 1.13331 10.4598C1.04484 9.98325 1 9.49722 1 9.00625C1 8.48813 1.04994 7.97558 1.14836 7.47383C1.26225 6.8933 1.71836 6.43938 2.30177 6.32597C2.69017 6.25049 3.02802 6.01421 3.23158 5.66336C3.43355 5.31528 3.4713 4.90974 3.34627 4.53938C3.15734 3.97969 3.32748 3.36191 3.77673 2.97625H3.77675ZM8.99998 11.9667C10.6401 11.9667 11.9696 10.6437 11.9696 9.01169C11.9696 7.37968 10.6401 6.05666 8.99998 6.05666C7.35992 6.05666 6.03042 7.37968 6.03042 9.01169C6.03042 10.6437 7.35992 11.9667 8.99998 11.9667V11.9667ZM8.99998 10.5135C8.16655 10.5135 7.49086 9.84113 7.49086 9.01169C7.49086 8.18227 8.16653 7.50989 8.99998 7.50989C9.83345 7.50989 10.5091 8.18224 10.5091 9.01169C10.5091 9.84113 9.83345 10.5135 8.99998 10.5135V10.5135Z" fill="#15213E"/>
</svg>
