<svg t="1587522743603" class="icon" viewBox="0 0 1024 1024" version="1.1" xmlns="http://www.w3.org/2000/svg" p-id="28548" width="200" height="200">
    <path d="M970.086912 297.6256a331.2128 331.2128 0 0 0-93.2352-41.9328V154.5216c0-31.4368-25.4976-56.8832-56.8832-56.8832H152.269312c-31.4368 0-56.8832 25.4464-56.8832 56.8832v450.048c0 31.4368 25.4464 56.9344 56.832 56.9344h312.832c8.704 34.9696 22.8864 67.7888 41.472 97.4848H56.934912A56.8832 56.8832 0 0 1 0.000512 702.0544v-645.12C0.000512 25.3952 25.446912 0 56.883712 0h856.32c31.4368 0 56.8832 25.4464 56.8832 56.8832v240.7424zM377.600512 813.2096h268.8a54.2208 54.2208 0 0 1 0 108.3904h-268.8a54.2208 54.2208 0 1 1 0-108.4416z" p-id="28549"></path>
    <path d="M778.906112 459.5712a98.3552 98.3552 0 0 0-98.5088 97.9456 98.3552 98.3552 0 0 0 116.1216 96.256 18.432 18.432 0 1 0-6.6048-36.2496 62.8224 62.8224 0 0 1-10.9568 1.1776c-33.8944 0-61.44-27.4432-61.44-61.184a61.3376 61.3376 0 1 1 122.8288 0c-0.0512 3.328-0.4096 6.7584-1.2288 10.9056a18.432 18.432 0 0 0 18.3296 21.76 18.432 18.432 0 0 0 18.176-15.104 96.9216 96.9216 0 0 0-27.136-86.784 98.0992 98.0992 0 0 0-69.5808-28.7232z m237.2608 52.9408a16.384 16.384 0 0 0-12.4928-12.9024 83.8144 83.8144 0 0 1-62.0032-106.5984 16.1792 16.1792 0 0 0-4.9664-17.2032 241.152 241.152 0 0 0-78.5408-45.056 16.4864 16.4864 0 0 0-17.408 4.2496 83.8656 83.8656 0 0 1-61.8496 26.88 83.968 83.968 0 0 1-61.8496-26.9312 16.7936 16.7936 0 0 0-17.5104-4.3008 241.1008 241.1008 0 0 0-78.4896 45.1584 16.384 16.384 0 0 0-4.9664 17.1008c6.9632 22.6816 4.3008 46.3872-7.5264 66.7648-11.776 20.4288-31.1296 34.6112-54.4256 39.936a16.5376 16.5376 0 0 0-12.4928 12.9024 240.384 240.384 0 0 0-4.352 45.056c0 14.6944 1.4336 29.8496 4.352 45.0048a16.384 16.384 0 0 0 12.4928 12.9024 83.8144 83.8144 0 0 1 61.952 106.6496c-1.8432 6.144 0.0512 12.8 4.9664 17.152 23.1936 19.9168 49.6128 35.072 78.5408 45.056a16.5376 16.5376 0 0 0 17.408-4.2496 83.968 83.968 0 0 1 61.8496-26.88c23.6544 0 45.6192 9.5744 61.8496 26.88a16.4864 16.4864 0 0 0 17.5104 4.352 241.5616 241.5616 0 0 0 78.4896-45.1072 16.4352 16.4352 0 0 0 4.9664-17.152 82.8416 82.8416 0 0 1 7.5776-66.816c11.8272-20.3776 31.1808-34.56 54.4256-39.8848a16.5376 16.5376 0 0 0 12.4928-12.8512c2.9184-15.1552 4.352-30.3104 4.352-45.056 0-14.7456-1.4336-29.9008-4.352-45.056z m-125.184 185.6a180.224 180.224 0 0 1-43.6736 25.088 102.7584 102.7584 0 0 0-135.7312 0 180.224 180.224 0 0 1-43.7248-25.088 100.6592 100.6592 0 0 0-11.6224-71.2704 102.0928 102.0928 0 0 0-56.32-45.7216 175.7696 175.7696 0 0 1 0-50.176c23.808-7.936 43.7248-24.064 56.32-45.7216 12.544-21.6064 16.64-46.7968 11.6224-71.2704 13.312-10.3424 28.0064-18.7904 43.7248-25.088 18.7904 16.5376 42.8032 25.6 67.84 25.6 25.1392 0 49.152-9.0624 67.8912-25.6 15.7184 6.3488 30.3616 14.7456 43.6736 25.088-5.0176 24.5248-0.9216 49.7152 11.6224 71.3216 12.4928 21.5552 32.4096 37.6832 56.32 45.6704a176.3328 176.3328 0 0 1 0 50.176c-23.8592 7.9872-43.8272 24.1152-56.32 45.7216a101.376 101.376 0 0 0-11.6224 71.2704z"
          p-id="28550"></path>
</svg>
