<svg t="1712901629018" class="icon" viewBox="0 0 1024 1024" version="1.1" xmlns="http://www.w3.org/2000/svg" p-id="15179" id="mx_n_1712901629019" width="200" height="200"><path d="M768 597.357714a157.988571 157.988571 0 0 0 73.142857 11.702857V828.952381a73.142857 73.142857 0 0 1-73.142857 73.142857h-219.428571v-170.666667h-73.142858v170.666667h-219.428571a73.142857 73.142857 0 0 1-73.142857-73.142857v-223.670857a158.915048 158.915048 0 0 0 73.142857 0V828.952381h146.285714v-170.666667h219.428572v170.666667h146.285714zM743.960381 121.904762a73.142857 73.142857 0 0 1 62.829714 35.718095l116.297143 195.242667-0.316952-0.024381a126.537143 126.537143 0 0 1-208.091429 140.531809 137.48419 137.48419 0 0 1-100.303238 43.227429 137.679238 137.679238 0 0 1-103.521524-46.738286 137.679238 137.679238 0 0 1-103.497143 46.738286 137.630476 137.630476 0 0 1-100.303238-43.227429 126.537143 126.537143 0 0 1-200.899047-152.868571L203.946667 160.182857A73.142857 73.142857 0 0 1 268.263619 121.904762h475.721143z m0 73.142857H268.263619L168.96 378.148571l-1.706667 2.633143a53.394286 53.394286 0 0 0 84.796953 64.438857l52.931047-60.537904 55.271619 58.441143c12.214857 12.946286 29.013333 20.333714 47.152762 20.333714 18.919619 0 36.376381-8.045714 48.664381-21.991619l54.857143-62.122667 54.832762 62.122667c12.288 13.945905 29.744762 21.991619 48.664381 21.991619 18.139429 0 34.913524-7.387429 47.104-20.284953l55.222857-58.514285 53.004191 60.537904a53.394286 53.394286 0 0 0 87.844571-59.221333l-0.828952-1.633524L743.984762 195.047619z" p-id="15180"></path></svg>