<svg t="1587028909967" class="icon" viewBox="0 0 1102 1024" version="1.1" xmlns="http://www.w3.org/2000/svg" p-id="5799" width="200" height="200">
    <path d="M512 464.738462c102.4 0 189.046154-86.646154 189.046154-189.046154 0-102.4-86.646154-189.046154-189.046154-189.046154C401.723077 86.646154 315.076923 173.292308 315.076923 275.692308c0 102.4 86.646154 189.046154 196.923077 189.046154m0 86.646153C354.461538 551.384615 236.307692 425.353846 236.307692 275.692308S354.461538 0 512 0C661.661538 0 787.692308 126.030769 787.692308 275.692308S661.661538 551.384615 512 551.384615" p-id="5800"></path>
    <path d="M1016.123077 976.738462c0 15.753846-7.876923 31.507692-23.630769 39.384615-15.753846 7.876923-31.507692 7.876923-39.384616 0-15.753846-7.876923-23.630769-23.630769-23.630769-39.384615 0-236.307692-189.046154-425.353846-425.353846-425.353847C267.815385 551.384615 78.769231 740.430769 78.769231 976.738462c0 23.630769-15.753846 39.384615-39.384616 39.384615s-39.384615-15.753846-39.384615-39.384615c0-283.569231 228.430769-512 512-512 275.692308 0 504.123077 228.430769 504.123077 512" p-id="5801"></path>
    <path d="M1079.138462 425.353846c23.630769 15.753846 23.630769 31.507692 15.753846 55.138462L945.230769 740.430769c-15.753846 23.630769-31.507692 31.507692-55.138461 15.753846-23.630769-15.753846-31.507692-31.507692-15.753846-55.138461L1024 441.107692c7.876923-23.630769 23.630769-31.507692 55.138462-15.753846M1102.769231 63.015385c0 31.507692-15.753846 39.384615-39.384616 39.384615h-173.292307c-31.507692 0-39.384615-15.753846-39.384616-39.384615 0-31.507692 15.753846-39.384615 39.384616-39.384616h173.292307c23.630769 0 39.384615 15.753846 39.384616 39.384616M1102.769231 189.046154c0 31.507692-15.753846 47.261538-39.384616 47.261538h-86.646153c-31.507692 0-39.384615-15.753846-39.384616-39.384615 0-31.507692 15.753846-39.384615 39.384616-39.384615h86.646153c23.630769-7.876923 39.384615 7.876923 39.384616 31.507692"
          p-id="5802"></path>
</svg>
