<?xml version="1.0" standalone="no"?><!DOCTYPE svg PUBLIC "-//W3C//DTD SVG 1.1//EN" "http://www.w3.org/Graphics/SVG/1.1/DTD/svg11.dtd"><svg t="1607739667852" class="icon" viewBox="0 0 1024 1024" version="1.1" xmlns="http://www.w3.org/2000/svg" p-id="3127" xmlns:xlink="http://www.w3.org/1999/xlink" width="64" height="64"><defs><style type="text/css"></style></defs><path d="M562.805 80.6975a72.135 72.135 0 0 0-96.93 0L73.925 452.87a36.1575 36.1575 0 0 0 48.42 53.7075l6.2325-5.91750001V889.10000001a72.315 72.315 0 0 0 72.315 72.40499999h210.4425v-217.71a50.9175 50.9175 0 0 1 50.94-50.985h99.0225a50.9175 50.9175 0 0 1 50.94 50.985v217.71h215.4375a72.315 72.315 0 0 0 72.3375-72.40500001V505.4075c16.065 14.535 38.8575 13.4325 52.2225-1.4625a36.1575 36.1575 0 0 0-2.61-51.075L562.805 80.72z" fill="#26a2ff" p-id="3128"></path></svg>