<?xml version="1.0" standalone="no"?><!DOCTYPE svg PUBLIC "-//W3C//DTD SVG 1.1//EN" "http://www.w3.org/Graphics/SVG/1.1/DTD/svg11.dtd"><svg t="1608626133356" class="icon" viewBox="0 0 1024 1024" version="1.1" xmlns="http://www.w3.org/2000/svg" p-id="10632" xmlns:xlink="http://www.w3.org/1999/xlink" width="200" height="200"><defs><style type="text/css"></style></defs><path d="M878.6 109H143.2c-40.6 0-73.5 35.2-73.5 78.5v523.2c0 43.3 32.9 78.4 73.5 78.5h343.1v78.5H363.8c-13.3 0.3-24 11.9-24 26.2 0 14.2 10.7 25.9 24 26.2H658c13.3-0.3 24-11.9 24-26.2 0-14.2-10.7-25.9-24-26.2H535.4v-78.5h343.2c40.6 0 73.5-35.2 73.5-78.5V187.5c0-43.3-32.9-78.5-73.5-78.5zM657.3 623.3H843c3.4 0 6.2 2 6.2 4.4v74.8H651.1v-74.8c0-2.5 2.8-4.4 6.2-4.4z m221.3 113.5" p-id="10633" fill="#409EFF"></path></svg>